<mxfile modified="2020-06-18T02:09:55.374Z" host="app.diagrams.net" agent="5.0 (Macintosh; Intel Mac OS X 10_14_6) AppleWebKit/537.36 (KHTML, like Gecko) Chrome/83.0.4103.97 Safari/537.36" etag="evzidSho9qNVA6auVy-F" version="13.2.6" type="github">
  <diagram id="f106602c-feb2-e66a-4537-3a34d633f6aa" name="Page-1">
    <mxGraphModel dx="1426" dy="793" grid="1" gridSize="10" guides="1" tooltips="1" connect="1" arrows="1" fold="1" page="1" pageScale="1" pageWidth="1169" pageHeight="827" background="#ffffff" math="0" shadow="0">
      <root>
        <mxCell id="0" />
        <mxCell id="1" parent="0" />
        <mxCell id="bFlOcaczlWVgxTT0vWoC-794" value="Master" style="rounded=1;absoluteArcSize=1;arcSize=2;html=1;strokeColor=none;gradientColor=none;shadow=0;dashed=0;strokeColor=none;fontSize=12;fontColor=#9E9E9E;align=left;verticalAlign=top;spacing=10;spacingTop=-4;fillColor=#E1F5FE;" vertex="1" parent="1">
          <mxGeometry x="320" y="37" width="140" height="210" as="geometry" />
        </mxCell>
        <mxCell id="756" value="Users" style="rounded=1;absoluteArcSize=1;arcSize=2;html=1;strokeColor=none;gradientColor=none;shadow=0;dashed=0;strokeColor=none;fontSize=12;fontColor=#9E9E9E;align=left;verticalAlign=top;spacing=10;spacingTop=-4;fillColor=#F1F8E9;" parent="1" vertex="1">
          <mxGeometry x="940" y="290" width="90" height="190" as="geometry" />
        </mxCell>
        <mxCell id="754" value="us-central1-f" style="rounded=1;absoluteArcSize=1;arcSize=2;html=1;strokeColor=none;gradientColor=none;shadow=0;dashed=0;strokeColor=none;fontSize=12;fontColor=#9E9E9E;align=left;verticalAlign=top;spacing=10;spacingTop=-4;fillColor=#E1F5FE;" parent="1" vertex="1">
          <mxGeometry x="530" y="440" width="175" height="120" as="geometry" />
        </mxCell>
        <mxCell id="753" value="us-east1-d" style="rounded=1;absoluteArcSize=1;arcSize=2;html=1;strokeColor=none;gradientColor=none;shadow=0;dashed=0;strokeColor=none;fontSize=12;fontColor=#9E9E9E;align=left;verticalAlign=top;spacing=10;spacingTop=-4;fillColor=#E1F5FE;" parent="1" vertex="1">
          <mxGeometry x="510" y="140" width="180" height="220" as="geometry" />
        </mxCell>
        <mxCell id="757" style="edgeStyle=orthogonalEdgeStyle;rounded=0;html=1;labelBackgroundColor=none;startFill=1;startSize=4;endArrow=blockThin;endFill=1;endSize=4;jettySize=auto;orthogonalLoop=1;strokeColor=#4284F3;strokeWidth=2;fontSize=12;fontColor=#000000;align=center;dashed=1;" parent="1" source="734" target="bFlOcaczlWVgxTT0vWoC-788" edge="1">
          <mxGeometry relative="1" as="geometry">
            <mxPoint x="210" y="145" as="targetPoint" />
          </mxGeometry>
        </mxCell>
        <mxCell id="bFlOcaczlWVgxTT0vWoC-789" value="&lt;font style=&quot;font-size: 12px&quot;&gt;git push&lt;/font&gt;" style="edgeLabel;html=1;align=center;verticalAlign=middle;resizable=0;points=[];" vertex="1" connectable="0" parent="757">
          <mxGeometry x="-0.32" y="-1" relative="1" as="geometry">
            <mxPoint x="6" y="-12" as="offset" />
          </mxGeometry>
        </mxCell>
        <mxCell id="734" value="Development&lt;br&gt;Team&lt;br&gt;" style="rounded=1;absoluteArcSize=1;arcSize=2;html=1;strokeColor=none;gradientColor=none;shadow=0;dashed=0;strokeColor=none;fontSize=12;fontColor=#9E9E9E;align=left;verticalAlign=top;spacing=10;spacingTop=-4;fillColor=#F3E5F5;" parent="1" vertex="1">
          <mxGeometry x="30" y="150" width="90" height="120" as="geometry" />
        </mxCell>
        <mxCell id="732" value="" style="strokeColor=#dddddd;fillColor=#ffffff;shadow=1;strokeWidth=1;rounded=1;absoluteArcSize=1;arcSize=2;labelPosition=center;verticalLabelPosition=middle;align=center;verticalAlign=bottom;spacingLeft=0;fontColor=#999999;fontSize=12;whiteSpace=wrap;spacingBottom=2;html=1;" parent="1" vertex="1">
          <mxGeometry x="40" y="190" width="70" height="70" as="geometry" />
        </mxCell>
        <mxCell id="733" value="" style="dashed=0;connectable=0;html=1;fillColor=#757575;strokeColor=none;shape=mxgraph.gcp2.laptop;part=1;" parent="732" vertex="1">
          <mxGeometry x="0.5" width="50" height="33" relative="1" as="geometry">
            <mxPoint x="-25" y="18.5" as="offset" />
          </mxGeometry>
        </mxCell>
        <mxCell id="741" value="" style="shape=mxgraph.gcp2.doubleRect;strokeColor=#dddddd;fillColor=#ffffff;shadow=1;strokeWidth=1;fontSize=10;fontColor=#9E9E9E;align=center;html=1;" parent="1" vertex="1">
          <mxGeometry x="520" y="169" width="158" height="78" as="geometry" />
        </mxCell>
        <mxCell id="742" value="&lt;font color=&quot;#000000&quot;&gt;Test Instances&lt;/font&gt;&lt;br&gt;Compute Engine&lt;hr&gt;&lt;font style=&quot;font-size: 11px&quot;&gt;Build Artifact&lt;/font&gt;" style="dashed=0;connectable=0;html=1;fillColor=#5184F3;strokeColor=none;shape=mxgraph.gcp2.hexIcon;prIcon=compute_engine;part=1;labelPosition=right;verticalLabelPosition=middle;align=left;verticalAlign=top;spacingLeft=5;fontColor=#999999;fontSize=12;spacingTop=-8;" parent="741" vertex="1">
          <mxGeometry width="44" height="39" relative="1" as="geometry">
            <mxPoint x="5" y="7" as="offset" />
          </mxGeometry>
        </mxCell>
        <mxCell id="743" value="" style="shape=mxgraph.gcp2.doubleRect;strokeColor=#dddddd;fillColor=#ffffff;shadow=1;strokeWidth=1;fontSize=10;fontColor=#9E9E9E;align=center;html=1;" parent="1" vertex="1">
          <mxGeometry x="521" y="270" width="158" height="78" as="geometry" />
        </mxCell>
        <mxCell id="744" value="&lt;font color=&quot;#000000&quot;&gt;Prod Instances&lt;/font&gt;&lt;br&gt;Compute Engine&lt;hr&gt;&lt;font style=&quot;font-size: 11px&quot;&gt;Autoscaler&lt;/font&gt;" style="dashed=0;connectable=0;html=1;fillColor=#5184F3;strokeColor=none;shape=mxgraph.gcp2.hexIcon;prIcon=compute_engine;part=1;labelPosition=right;verticalLabelPosition=middle;align=left;verticalAlign=top;spacingLeft=5;fontColor=#999999;fontSize=12;spacingTop=-8;" parent="743" vertex="1">
          <mxGeometry width="44" height="39" relative="1" as="geometry">
            <mxPoint x="5" y="7" as="offset" />
          </mxGeometry>
        </mxCell>
        <mxCell id="745" value="" style="shape=mxgraph.gcp2.doubleRect;strokeColor=#dddddd;fillColor=#ffffff;shadow=1;strokeWidth=1;fontSize=10;fontColor=#9E9E9E;align=center;html=1;" parent="1" vertex="1">
          <mxGeometry x="540" y="470" width="158" height="78" as="geometry" />
        </mxCell>
        <mxCell id="746" value="&lt;font color=&quot;#000000&quot;&gt;Prod Instances&lt;/font&gt;&lt;br&gt;Compute Engine&lt;hr&gt;&lt;font style=&quot;font-size: 11px&quot;&gt;Autoscaler&lt;/font&gt;" style="dashed=0;connectable=0;html=1;fillColor=#5184F3;strokeColor=none;shape=mxgraph.gcp2.hexIcon;prIcon=compute_engine;part=1;labelPosition=right;verticalLabelPosition=middle;align=left;verticalAlign=top;spacingLeft=5;fontColor=#999999;fontSize=12;spacingTop=-8;" parent="745" vertex="1">
          <mxGeometry width="44" height="39" relative="1" as="geometry">
            <mxPoint x="5" y="7" as="offset" />
          </mxGeometry>
        </mxCell>
        <mxCell id="747" value="" style="strokeColor=#dddddd;fillColor=#ffffff;shadow=1;strokeWidth=1;rounded=1;absoluteArcSize=1;arcSize=2;fontSize=10;fontColor=#9E9E9E;align=center;html=1;" parent="1" vertex="1">
          <mxGeometry x="757.5" y="375" width="130" height="60" as="geometry" />
        </mxCell>
        <mxCell id="748" value="Cloud Load&#xa;Balancing" style="dashed=0;connectable=0;html=1;fillColor=#5184F3;strokeColor=none;shape=mxgraph.gcp2.hexIcon;prIcon=cloud_load_balancing;part=1;labelPosition=right;verticalLabelPosition=middle;align=left;verticalAlign=middle;spacingLeft=5;fontColor=#999999;fontSize=12;" parent="747" vertex="1">
          <mxGeometry y="0.5" width="44" height="39" relative="1" as="geometry">
            <mxPoint x="5" y="-19.5" as="offset" />
          </mxGeometry>
        </mxCell>
        <mxCell id="767" style="edgeStyle=orthogonalEdgeStyle;rounded=0;html=1;labelBackgroundColor=none;startFill=1;startSize=4;endArrow=blockThin;endFill=1;endSize=4;jettySize=auto;orthogonalLoop=1;strokeColor=#9E9E9E;strokeWidth=2;fontSize=12;fontColor=#000000;align=center;dashed=0;" parent="1" source="749" target="747" edge="1">
          <mxGeometry relative="1" as="geometry" />
        </mxCell>
        <mxCell id="749" value="" style="strokeColor=#dddddd;fillColor=#ffffff;shadow=1;strokeWidth=1;rounded=1;absoluteArcSize=1;arcSize=2;labelPosition=center;verticalLabelPosition=middle;align=center;verticalAlign=bottom;spacingLeft=0;fontColor=#999999;fontSize=12;whiteSpace=wrap;spacingBottom=2;html=1;" parent="1" vertex="1">
          <mxGeometry x="950" y="320" width="70" height="69" as="geometry" />
        </mxCell>
        <mxCell id="750" value="" style="dashed=0;connectable=0;html=1;fillColor=#757575;strokeColor=none;shape=mxgraph.gcp2.laptop;part=1;" parent="749" vertex="1">
          <mxGeometry x="0.5" width="50" height="33" relative="1" as="geometry">
            <mxPoint x="-25" y="18.5" as="offset" />
          </mxGeometry>
        </mxCell>
        <mxCell id="768" style="edgeStyle=orthogonalEdgeStyle;rounded=0;html=1;labelBackgroundColor=none;startFill=1;startSize=4;endArrow=blockThin;endFill=1;endSize=4;jettySize=auto;orthogonalLoop=1;strokeColor=#9E9E9E;strokeWidth=2;fontSize=12;fontColor=#000000;align=center;dashed=0;" parent="1" source="751" target="747" edge="1">
          <mxGeometry relative="1" as="geometry" />
        </mxCell>
        <mxCell id="751" value="" style="strokeColor=#dddddd;fillColor=#ffffff;shadow=1;strokeWidth=1;rounded=1;absoluteArcSize=1;arcSize=2;labelPosition=center;verticalLabelPosition=middle;align=center;verticalAlign=bottom;spacingLeft=0;fontColor=#999999;fontSize=12;whiteSpace=wrap;spacingBottom=2;html=1;" parent="1" vertex="1">
          <mxGeometry x="950" y="405" width="70" height="65" as="geometry" />
        </mxCell>
        <mxCell id="752" value="" style="dashed=0;connectable=0;html=1;fillColor=#757575;strokeColor=none;shape=mxgraph.gcp2.mobile_devices;part=1;" parent="751" vertex="1">
          <mxGeometry x="0.5" width="50" height="36.5" relative="1" as="geometry">
            <mxPoint x="-25" y="16.75" as="offset" />
          </mxGeometry>
        </mxCell>
        <mxCell id="779" value="" style="fillColor=#ffffff;strokeColor=#BDBDBD;strokeWidth=1;shadow=0;gradientColor=none;fontSize=10;fontColor=#9E9E9E;align=center;html=1;" parent="1" vertex="1">
          <mxGeometry x="250" y="620" width="600" height="70" as="geometry" />
        </mxCell>
        <mxCell id="780" value="1 Commit code" style="strokeColor=none;fillColor=none;fontColor=#757575;align=left;html=1;fontStyle=0;spacingLeft=5;fontSize=11;verticalAlign=top;whiteSpace=wrap;spacingRight=5;" parent="779" vertex="1">
          <mxGeometry width="200" height="30" relative="1" as="geometry" />
        </mxCell>
        <mxCell id="781" value="2 Detect code change" style="strokeColor=none;fillColor=none;fontColor=#757575;align=left;html=1;fontStyle=0;spacingLeft=5;fontSize=11;verticalAlign=top;whiteSpace=wrap;spacingRight=5;" parent="779" vertex="1">
          <mxGeometry width="200" height="30" relative="1" as="geometry">
            <mxPoint y="30" as="offset" />
          </mxGeometry>
        </mxCell>
        <mxCell id="782" value="3 Build immutable image" style="strokeColor=none;fillColor=none;fontColor=#757575;align=left;html=1;fontStyle=0;spacingLeft=5;fontSize=11;verticalAlign=top;whiteSpace=wrap;spacingRight=5;" parent="779" vertex="1">
          <mxGeometry width="200" height="30" relative="1" as="geometry">
            <mxPoint x="200" as="offset" />
          </mxGeometry>
        </mxCell>
        <mxCell id="783" value="4 Launch test instance from image" style="strokeColor=none;fillColor=none;fontColor=#757575;align=left;html=1;fontStyle=0;spacingLeft=5;fontSize=11;verticalAlign=top;whiteSpace=wrap;spacingRight=5;" parent="779" vertex="1">
          <mxGeometry width="200" height="30" relative="1" as="geometry">
            <mxPoint x="200" y="30" as="offset" />
          </mxGeometry>
        </mxCell>
        <mxCell id="784" value="5 Run tests" style="strokeColor=none;fillColor=none;fontColor=#757575;align=left;html=1;fontStyle=0;spacingLeft=5;fontSize=11;verticalAlign=top;whiteSpace=wrap;spacingRight=5;" parent="779" vertex="1">
          <mxGeometry width="200" height="30" relative="1" as="geometry">
            <mxPoint x="400" as="offset" />
          </mxGeometry>
        </mxCell>
        <mxCell id="785" value="6 Perform rolling update of image to autoscaler" style="strokeColor=none;fillColor=none;fontColor=#757575;align=left;html=1;fontStyle=0;spacingLeft=5;fontSize=11;verticalAlign=top;whiteSpace=wrap;spacingRight=5;" parent="779" vertex="1">
          <mxGeometry width="200" height="30" relative="1" as="geometry">
            <mxPoint x="400" y="30" as="offset" />
          </mxGeometry>
        </mxCell>
        <mxCell id="bFlOcaczlWVgxTT0vWoC-788" value="" style="shape=image;verticalLabelPosition=bottom;verticalAlign=top;imageAspect=0;image=data:image/png,iVBORw0KGgoAAAANSUhEUgAABQAAAASECAYAAAA7sqKNAAEIoElEQVR42uzd91+U2fn/8XU3yW72k2w2MdsCyIwzQ1WKUmyAFUWxoNgL9t4FRGzYQcSCiopd7L03xIK9YUMUK4sV+f4P5/s4AzeOlTbAlNcPzwebZLOFua97rvt9n+ucb4QQ3wAAAKDAu3fvvn358uUPz54//yk7+1H1e/cy/7hx46bq9JkzbvsPHGy0KWVL66QVq7osXLSkz+y584ZOnjZ93PiIyOhhI0bN6jdgUHznbj1XtO3QcX3TFq121vcLOOTb0O9IvUb+h33rNzriUtsjXXJ18zzn5Op2wValvW1jr7kjyT+W/53835Q/T/5/9P/fhn5H5F9L/jXlX7tLj15J8u8l/57y7y3/GebMix0i/5nkP5v8Z5T/rPKfWf6zy38H+e8i/53kv5v8d+SzBgAAsB78EgAAgMV7m5f3FxmAyTAs7fQZ9737D/iv37Cp7eLEpb1iZs4eOW5CxGQZqHUM7ZrcvGVrUa+Rv6jlUVfUUOuErUor7NQOwk6t07PV/3cK7WfZSPaaivGFv2eBwn+uwn/WAg76/03+u8h/J/nvJv8d5b+r/HeW/+7ydyB/F/J3snffAX/5O5K/K/k7k787riEAAAACQAAAgCr38GH2f8+cPVd789ZtrRYtWdo7PDIqqnuvPkvbtAvZ6N+khajr00A413I3CPV0wq6mQ1G4Zxjo2di/D/DsNQ5CpXEUKq2jsNfo9P9ZIf9aH7P9SkBX2rDP9qthn/aTv7fhP5v8Z5X/zPKfXf7n93/dDwNDJSQs+F3oiv668nclf2fydyd/h1269UySKw5nz40duip5TacjR4/5ZmTcqpGb++JHrj8AAAACQAAAgHJ59fr193I12pWr17S79+xtnLBocdjoceOnyXFYN0/v02qd83UZdH2yQu6jQE4JwWTApdI6CbXOWf+zICTTfRDqlTW0M1Ufh4ZFIaE+3Cz4XdhrHPX/22cDyE9C0ve/R/kZyM9izPgJUxcuXtJHfkbys5KfmfzsuIYBAAAIAAEAAPSePXv+0/nzF5y3bd/RInZ+/EAZKMmVZw38G79ftfeZIOpzYZcScn1pdZ6lBHsVFRR+vMLw43D0y/8/ncHnpBUN/ZsI+RnKz1J+phs2pgSfTD1V535W1m9c8wAAAASAAADAQuXn51e7dv16zW07draQB2n06dt/Yas27Tb71PcTGkcXg/HcD4M+wzFcS1ylZwmrCw3Hjw3/t48/U09vX9EsMGhHt569l02Mnhyxdv2G9nKE++XLVz9QIwAAAASAAADATMjTZrMfPaqenn7eZfWatSFybDegSYs9cmxUGTX9eFS3aN+9otFchy+uOoPpB4NKKKiMGn8yqq18tkWfvaPw8m14fMCgIXFyL8dTaWkecn/H12/e/I2aAgAAIAAEAABVTK7q27l7d9MFCxf1HTFqzAx52qwMf96fnvvpCbklGS+FZQaDhp/9x5+74Tix/M9+jZsLeWrx3Ni4wbv27GkirzVqDgAAgAAQAABUoJevXv+QeirNc3Hi0l5h/QYkNG4euFueHKsPbQxGPd+P7rKSD2VYOah1/Gh/QQf9T3mtyWuuZ5++S2QoePDQ4QYvX75kfBgAAIAAEAAAlIU8yfXO3Xs2+/Yf8Js8dfo4uV+fHOc0XKn1yfiu1pHAD0YOBAtOHZbX2Mfj4wVBs5MIaNJ8jzxwJGXz1qCMjFs1GB0GAAAgAAQAAJ/x9m3eX+SBDEkrk7vIUV55kqsyjvnxwRvyj1ndh6pcJfjBdWdw6Ii8ZhsFNBUjR4+NWZ60oqvcTzA3N/dHahwAABAAAgAAq3Th4iWnhEWLw3r07pvo37iZfjWV/uTWwmBPGcck6IO5rBZUwkHD67i+X4Do0q1n0szZc4efSE2t+y4//1vqHwAAEAACAACLk5eX993Nmxn2K5NXh3bv1Wepg4vbJduPT2UtHKlUQj/CJZgjee0qJxB/bmTdwcVN9OgdlrgqeU2nGzduql6+fMU+ggAAgAAQAACYJ7mH38ZNKW3CI6OiGjcP/CTsY5wX1jQ2bBhqF9WCWid86jcSI8eMi9m4aXMbGZJz7wAAAASAAADApB06fKR+xMToicHtO25w8/T+ZKT3k/3TACsNBpV6kP9ZqROX2h5CHngTOSk68siRY77cUwAAAAEgAACoctnZj6pv37mr+cDBw2JdanukG448Foz0Ogq11omRXqDYkWFHg5HhgpDcydXtQli/AQmbt2xrlZmV9Tv3HAAAQAAIAAAqRXr6BZeFi5f06dm775IaBiv8DAMNVvoBZR8Z/nhc2E7/n7WiY6euybHz4wceP5nqxWEiAACAABAAABjVqdOnPcaGR0xpFhi0Q62Tp/U6fLDKjxV+QMWFgoanYcvak/+9f5PmYuTosTEHDh5qyD0KAAAQAAIAgFJ79erV9ydOptaNiIqe6Ontm/rxaKI84dRew8EdQGXvGyhrr+gE7cL6q+XhdXb4yNEzDx483ODPP//8P+5hAACAABAAAHzWs+fPf5L7+cnQz7e+32dHezmtFzDtUeFaHl5i1Njx03fs2tXseU7OP7m3AQAAAkAAAPCNXDU0aMjweT71GhnsN6b5YOyQ0AUwg8NECg8SUcJ7n/p+ot+AQfFbt20PzM//f9W43wEAAAJAAACsRH5+frX09PMuUZOnhNdyr3vWcLxXGTFkTz/AjPcM1DgWHcSj36tTpRWu7nXF2AnhU1JPpXm+zcv7C/dCAABAAAgAgAU6feaM27y4+EHNWgYJ2y+M9xKgAJa1KvBzY8IN/BuL6TNmjTqZeqoO90YAAEAACACAmXvw8OEvs+fOG9qqddvNMggoOL1Xy8m9gDWPCRucJhwYFLx1TmzckIcPH/6XeyYAACAABADATLx+8+Zv+/Yf8OvZp++S92OA70/vJfgDCALlvcBw/F/+d1179Fq+a/eeJi9evPw791IAAEAACACACTpz9lztGbPmjKjXyP+DE3w5vRfA104TVu4Nyoiwp7evmDItZuyx4ye8ubcCAAACQAAAqtjznJx/Lly0pE9w+44b5Ioe/Vhf4YgvgR+A0gaC9hpd4UnCBSPCQcHtUxYvWdor588//8E9FwAAEAACAFCJzl+46Dxy9NgYrZMrI74AjH+SsNap6N4iaRxdxJChI+akp19w4R4MAAAIAAEAqCC5ubk/rlu/oV3nrj1WGIZ+Bat2HFjxB6DCR4RtVTrRtkPH9StXJYdmP3pUnXszAAAgAAQAwAiuXL2mHTM+fKpPfT9hq38Y1+kDP1b6Aajsw0PkiLCyV6CHl48YPmrMzIuXrzhyrwYAAASAAACUwd59+/3bdwxda3hSp9zbT9mjCwCqgnwBYa9x1O83qqwO7NAxdM3e/Qf88/LyvuP+DQAA+CUAAPAVz549/2lZ0opuTVu02vm5k3wJHwCY0opA5b6krAps4NdYJCxaEvbg4cNfuKcDAEAACAAADNy+c9c2PDIqytPbVyjBHyf5AjCvg0Mci4LAWh5eYsTosTOuXb9ek3s8AAAEgAAAWLWTqafq9Arrt9jwtE1O8gVgzqsCDU8Qlv9d1x69lh8/cdKLez4AAASAAABYlZTNW4KC23fcYMuYLwArGA+Whxe1Cwldt2HDpuD8/PxqfA8AAEAACACARZIPvcuSVnZr3Dxwt3wYVkbmCP0AWPp4sOHpwX4BzcSChYv6vs3L+wvfDQAAEAACAGARnj1//tOixMTe7nW8i8bi5MOwPEmTcACANZ0erNI4Ft0HXWp7iHlx8YMePXr8H74rAAAgAAQAwCzdun3HLmbm7JGu7nX1q16UlTCs+ANg7ePBytYHchsEjaOLmDR56oS79zL/x3cHAAAEgAAAmIXsR4+qT4icOMnBxa0o+JOjvjz4A8DHqwIL7pHyXunk6iZGj5sw7c7dezZ8lwAAQAAIAIBJun8/67eIqOiJygmYBcHf+z8GAHx+j0A5Gmy4X+DYCeFTWBEIAAABIAAAJjXqOzF6ckTB3la6T0bcAAAlCwI/PDlYK8aOD59y7fr1mnzXAABAAAgAQJXIvJ/1u1ylonOuXTTqy8EeAGCcA0OUU4PlSurho8bMvJmRYc93DwAABIAAAFTOHn/Zj6pHToqOlGNqyio/+8KTLXlwB4CKGQ2WqwPlHoFZWVm/8l0EAAABIAAAFSI3N/fHWXPmDtM6uepPrmTUFwAqezRYJ9Q6ZzE1ZsaYJ0+e/sx3EwAABIAAABjF27y8v8xfkNC/jk89g1FfHQ/mAFAFo8HKqcG1PLzE3Lj5g+U9mu8qAAAIAAEAKJP8/Pxqq5LXdHKv4120Ib2KUV8AqPrRYK2TsCm8L8sgcFnSim7yns13FwAABIAAAJTYppQtrf0bNyta8SfHz5QRNABA1TO8L8t7dUCT5mLjppQ2fIcBAEAACADAV51KO+3RtkPH9YYr/njQBgDTptI6Fq7U1onWbTtsOnToSH2+0wAAIAAEAOADt27fsRs4eGisjX1B8Cf3mVL2mgIAmMf+gJLyAies74CE6zduqPmOAwCAABAAYOWePH32szxNsuChUffBaZMAAPMcDVZCQPlSJ2rylPBHjx//h+88AAAIAAEAVmjBwkV9Pbx8P9jnj4dnALCsIFA5MXjBosV9+e4DAIAAEABgJQ4dPlLfv3HzvUX7/GmdONkXACz0xGC1wYnBDf2bHNi7b78/34UAABAAAgAs1J2792wGDRk+Twn+ONkXAKzsxODCg0LC+g1IuHHjporvRgAACAABABYiPz+/WszM2SOdXN30o2DKJvE8FAOA9a0ItNfohK1aJzSOLmLajJmj37x5+1e+KwEAIAAEAJixnbt2N/Wp76df8SEf/lQaRx6CAcDKqbSOhYGgTtT1aSC2btseyHcmAAAEgAAAM3Pl6jVtr7B+i20NDvhg1R8AwHA1oLINhPyu6Ny1x4qr165p+A4FAIAAEABgBmbPnTe0IPDT6Vd5EPwBAL4WBBZ8V+iEfU0HETNr9ki+SwEAIAAEAJioo8eO+/gFNNunBH6M+wIAyjIWXK+R/+HDh4/U47sVAAACQACAiXj2/PlPo8aOn254ui+r/gAAZR4LLvw+GTZi1KyHD7P/y3ctAAAEgACAKrRm7foOHl6++v2bCP4AAMY7LdhB/93i6l5XLEta0Y3vXAAACAABAJXs+o0b6pDQrquVVX+M+wIAjD4WrHk/FtwptNuqmzcz7PkOBgCAABAAUAkSFi0OMxz3VU5xBADA2GoYrDCXP+MTFvbjuxgAAAJAAEAFuXrtmqZ12w6bbAsDP4I/AEBlBoHKasBWrdtuTk8/78J3MwAABIAAACOavyChv7ICQ57UyF5/AICq2BvQ8DtoTmzcEL6jAQAgAAQAlNPFS5cd23bouN5OrWXVHwDApFYD2ql1omVQ8BZWAwIAQAAIACijGbNmjyg65EPrxEMnAMC0DgkxWA04Y9acEXx3AwBAAAgAKKFr16/XbNWm3Wa5z5LygMWDJgDAFNlrdEXjwYGtgrdevnJVx3c5AIAAkF8CAOArEpct76Hs9WevcWCvPwCAWewNqHxnSQsXLenDdzoAgAAQAICPPHyY/d8u3XomKav+2OsPAGC2JwWrdaJT526rMrOyfuc7HgBAAAgAgBDfbErZ0trJ1a1wBYWOVX8AAIs4KVjr5CrWrd/Yju96AAABIADAauXk5Pxj8NARc5XAT45P8fAIALCMvQEdCgNBnRg4eFis/M7jux8AQAAIALAqx06c9K7r00A/JsVefwAASw4CZQgov/OOHDnmSw8AACAABABYhbmx8wcXBH5aodJwwi8AwLLpv+sKDwiZNWfuMHoBAAABIADAYhUd9FF4yi8HfQAArOmAEP0pwWqdaBcSuu5+1oPf6A0AAASAAACLsnXb9kDnWu5Fm6PzMAgAsMrVgIUHhDi4uAn53UiPAAAgAAQAWIRxEyInK3v8Ef4BAAgBHYtODB4fERlNrwAAIAAEAJitjIxbNZq0aLlLjjvVKMSDHwAAmqLvRfkd2axl0I4r165p6R0AAASAAACzsnnLtlYOLrUZ+QUAoAQjwWqds9i4aXMbeggAAAEgAMAsTIyeHMHILwAApR8JDo+MiqKXAAAQAAIATNbDhw//G9Kpy2o7Rn4BACgVGf4pI8Gt23bYlJl5/3d6CwAAASAAwKTsP3CwUS33uoz8AgBghJFg51ruYs/efQH0GAAAAkAAgEmYFxc/iJFfAACMw16jK1oVOHvuvKH0GgAAAkAAQJV5+er1D917hy2V40rK6BIPbgAAGOeUYPndKr9je/QOS3zx4uXf6T0AAASAAIBKdf3GDXV9vwBGfgEAqISRYJ/6jcSVq9e09CAAAAJAAECl2LFrVzO1zonwDwCASgwB7TUOYuu27YH0IgAAAkAAQIWaPS92qLLfn3wQ4cEMAIDK2BfQoWhfwFlz5g2jJwEAEAACAIwuPz+/Wv+Bg+fr9yMqxAMZAACV5/13sE706dt/YV5e3nf0KAAAAkAAgFHcuXvPxr9Jc/0DhzyZkPAPAICqCwELRoJ1onHTFuLWrdt29CoAAAJAAEC5HD123KeWe132+wMAwAT3BdQ51xZHjhzzpWcBABAAAgDKZFXymk76B43Cjcd54AIAwPT2BZRWrEzuTO8CACAABACUyrSYmaM57AMAANNWQ60rGg2eMi1mLD0MAIAAEABQIv0HDJ5vp9bpHyrY7w8AANPfF1D/na3WCXlg17t3776lnwEAEAACAD4r+9Hj6q3atNssHyDY7w8AADPcF1CtE4GtgkXWgwe/0tsAAAgAAQAfSE+/4OLh5VNw2IeG8A8AALMMATUFh4PI7/Tz5y840+MAAAgAAQB6Bw4cbKhf8cdhHwAAWMThILb673RHsW//AT96HQAAASAAWLn16ze2tbHXfrCROAAAsJzDQVavWRdCzwMAIAAEACsVF58wQDnkg/APAABLDQF1Ys68uCH0PgAAAkAAsDKRUdGR8oFABoCc9AsAgIWfEKzSibETwqfQAwEACAABwEr06dt/oTwlsOCBgPAPAABLDwHlvoB2ap3oGdZ3Cb0QAIAAEAAsWG5u7o9Bwe1TlAcBwj8AAKzpcJCCF39t2rbfKHsCeiMAAAEgAFiYx4+f/Nu/cbOiVQA8CAEAYL0nBDfwayyysx9Vp0cCABAAAoCFuHXrtl0d73qEfwAAoGgloKe3r7h1+44dvRIAgAAQAMzcxUuXHV1qexSGf5z0CwAA3oeAske4ePmKIz0TAIAAEADM1InU1LpqrZOwYeUfAAD4wjiwWucsUk+ledI7AQAIAAHAzOzdv9+/oMEn/AMAAF8OAeWLQhkE7tt/wI8eCgBAAAgAZmJTyubWHzT2POAAAICvhYDyj1VasWFjSjC9FACAABAATNzqNetC5Ft82cjXULPnHwAAKJ7SM8geYlXymk70VAAAAkAAMFErViZ3JvwDAADlDQETly3vQW8FACAABAATIxt1wj8AAGCsEHDR4sTe9FgAAAJAADARCxYu6kv4BwAAjBUC2hYeDBI7P34gvRYAgAAQAKrY/AUJ/ZXwT/kJAABQHkoAKM2JjRtCzwUAIAAEgCoya868YYYNOg8sAACgIkLA6TNmjaL3AgAQAAJAJYuZOXukrUpXNKbDgwoAAKjIEHDajJmj6cEAAASAAFBJ5CgOK/8AAEClhoBqnZg5e+5wejEAAAEgAFSwuPiEAYR/AACgskNAZepgzrxY9gQEABAAAkBFSVi0OIzwDwAAVPU4sHwhSW8GACAABAAjS1y2vAen/QIAgKoOAZWf8sUkPRoAgAAQAIxkWdKKboR/AADA1ELApBWrutCrAQAIAAGgnFYmrw5VGm259w4PHgAAoKopPYnsUZJXr+1IzwYAIAAEgDLalLKlNeEfAAAw9RBww4ZNwfRuAAACQAAopb379vt/3GADAACYYggo7dt/wI8eDgBAAAgAJZR6Ks2T8A8AAJhbCHgy9VQdejkAAL8EACjGpStXHDSOLsJGpRH2GgceLAAAgMnT9ywqrVBpncTFS5cd6ekAgAAQAPAFt27fsXN189TvpUP4BwAAzC0ElD2Mcy13kZFxqwa9HQAQAAIAPpKd/bi6p5cv4R8AADD7ENCjro/IevDgV3o8ACAABAAU+vPPP/+vgV9jwj8AAGABIaBO39M08G8scnNzf6TXAwACQACAEN+0adt+Y0H4x4EfAADAckLAVm3aifz8/1eNfg8ACAABwKr16dt/IeEfAACwzBBQJ3qF9VtMzwcABIAAYLUmRE6cZKvWEf4BAAAL3hNQJ8aHR0bT+wEAASAAWJ35CxL6F4R/BZtl85AAAAAsjbK/sex55sXFD6IHBAACQACwGuvXb2wrG2IFDwgAAMCSQ8Aa6oI9AdesXdeBXhAACAABwOIdOHiooa29tqgh5sEAAABYQwio/Ny3/4AfPSEAEAACgMVKP3/eRdnvT74J54EAAABYC6X3UemcxPnzF53pDQGAABAALM6Dhw9/8fT2LRqD4UEAAABYYwgoeyH3Ot4iOzu7Oj0iABAAAoBFadm67RZlI2weAAAAgHWfDKwVrVq3Ffn5+dXoEwGAABAALMLAwcNi5el3Ko0jjT8AALB6sieSvdGAgUPi6BUBgAAQAMze1OkxY+xk+Kcl/AMAACgKAbUFIaDslegZAYAAEADMVvLqtR3Z8w8AAODrewKuWLmqM70jABAAAoDZOXrsuI/S3MrGliYfAADgQ4Y90pGjx3zpIQGAABAAzMat23fsnFzdhQ2HfgAAABR7KIjsmZxd3cXtO3dt6SUBgAAQAEzeu3fvvm3ctIXgxF8AAIDSnQzs36SFyMvL+46eEgAIAAHApPXp23+hrYpDPwAAAEp9MrBKJ8L6DUigpwQAAkAAMFmz5swdJhtXew2HfgAAAJTpZGCVTsieit4SAAgAAcDk7Nqzp4kcXVHQxAMAAJT+UBDFzl27m9JjAgABIACYjBs3bqjUOidO/AUAADDSycBqnbO4ceOmil4TAAgAAaDKvXz1+of6fgEc+gEAAGDkQ0FkjyV7LXpOACAABIAq1b132FLZoHLoBwAAgLH3A9SKXmH9FtNzAgABIABUmTnzYofYqjnxFwAAoGJWAuqE7LXmxMYNofcEAAJAAKh0+/cfbMSBHwAAAJVzMMi+/Qf86EEBgAAQACpNZlbW7y5uHvqmtIZaR3MOAABQQZRey9nNQ9zLvP8HvSgAEAACQKUIbt9xA/v+AQAAVO5+gO1COq2jFwUAAkAAqHCRUZMi7dj3DwAAoNJDQNmDRURNmkhPCgAEgABQYVJStgTJt8+M/QIAAFTNOLDsxTZu2tyG3hQACAABwOiuXb9eU+PoUrQZNU04AABA5R8IIn9qnVzFjZsZKnpUACAABACjatKi5S72/QMAADCN/QCbBQbtoEcFAAJAADCa8RGR0bbs+2f2KwaU8W2F8t+xohMALP/+//F3wOe+D/h9mVkIqNaJcRMiJtOrAgABIACU29Zt2wPZ98/8Hvbk52WvcRAqjaOw1+iK3U9IpXUq+nPl/48HQgAwz3u/cv+X93MZEn3w/W0QBhbd4wvv8zUKX/TJ/5/yHcDv1Tz2A9y2Y2cLelYAIAAEgDK7n5X1m5OrW1GTSbNtJgof6uRJgZJt4QOCq3tdUce7nvD09hV1fOoJN09vodI6C1uVpvDPdfjgzzd8MDR82DAMCPl9A0DVvOD55D5sGOwV3v8l+d/LPXxredQV9RoFiCbNW4rAVm1EQLNA0SigqajXyF84uLh9+L1R+NflPm/6AaD8KT8/2bPRuwIAASAAlEmHjqFr2PfP/AQ0bSFiZs4euWXr9pbp6Rdc7mVm/vHwYfZ/nz1//lNubu6Pf/755//Jnzl//vmPR4+e/CcrK+vX23fu2p6/cNF51549TRKXLe8xMXpyRM+wvksa+jc5oHF0uWr4MGirev9wqKwcJBAEgIoLeeT3sLzffngf/vBe7BfQbN/AwcNip82YOXpl8urQ/QcONbpy9Zo268GDXx8/fvLv5zk5/3z56vUPeXl53+Xn51d78/btX1+9fv39y5cvf3j69Nm/5J936fIVh23bd7SYMWvOiIb+TQgBzWg/wJDQrqvpXQGAABAASm3OvNgh7PtnftQ6Z/HkydOfjX09yIfCzVu2tYqeMm18p87dV/k1biZq6pzfrxosXJWijJvxwAgA5Qv9lC0ZbOyVFX0O+ntrA7/GQt6Hx4dHRsugL/VUmuer12++N/Z9/+Kly47ypFlCQPPZD3D23HlD6WEBgAAQAErsyNHjvuz/Zp77AA0YNDSuMq4RuXIkPf28y9p1G9qHR0ZFNW/ZWj9mZvdR+KeMqnEtAUDxe/cZ/nf6cVyVTj+iO2jI8HlLlyd1P5V22uPFi5d/r6x+ILRL95Xyn6UgiOSzMofDXmQPRy8LAASAAFCsnJycf9T1baBfccC+f+b19l8+LJ44mVq3Kq4bOU4mR423bt8ROHrc+Gme3r6phqNq+n9GjWPRqBKfGQBrpz+o6YOx3oJ7o3Mtj/P9BgyO37hpc5uMjIwar169/r6qeoJ16ze244WgGe0HqNIK2cPJrT7oaQGAABAAvmrQ4GHz9KO/GkZ/zW31X+OmLYTc28lUriW5p+CsuXOHtQvptM6ltkfRASOGexbx+QGwtlVahgd4yLFe+Z+bt2y9PXJSdOSxEye9TaknkN8pzrXc+ezM5WWgxlH/0m3w0BFz6WkBgAAQAL5ow8aUYNk4yn2HaKTNafWfkz5cmxcXP8hUr62bNzPsV6xK7txvwKB4ZbWi4cEijAkDsOSXNO9X1L8/SEm+HIlPWNjv7NlztUy5NxgfERmtjCnzeZrHylJ5jaVs3hJEbwsABIAA8InMrKzfdc612ezbDFeTKId/XLh4yckcrrVHjx//R55QLE8sVFbBGJ5kyUMmAEu4N8uXHfKFmuE9rr5fwKHZ82KHXrt+vaa59Adyv1dbNS8Hza0vcHBxE5n37/9OjwsABIAAwEbfFvOmXyvatAvZaI7X3YOHD3+Ji18wILh9xw011AWb3jMiDMAS7su2hYd4eNdrJMZOCJ9y7tx5V3O8T8sx4ICmLQSrAM3vGuzctccKelwAIAAEgCJLli7rWRD+0dib66l/cfEJA8z9Ojx79myt6CnTxtfxrvfBiPDHp2MCgCme4lu0rUHh/WrgoKGxKVu2BuXm5v5o7vfnmbPnDpf7FSqHlsA8DgeTo8Cyx6PXBQACQAD45uq1axrDvdhoms3zTX/Wgwe/Wso1+eLFy7/v33+gUcfQbsmGIafc3JwVqgBM60APx/ffnyqtkCegz5kXO+Tuvcz/WVKvkHb6tDu9gnmOAsufV65e09LzAgABIAAr1zIoeAtjPea9+k9uJG+p16d8aBkXHjG5rk+DolWBcqUq1yuAqn7xIn/aFa5Q7ty1+4qt27YHWnK/ENiqzVb6BfM7gEZ+Zq3atNtMzwsABIAArNiMWbNHFJz6y6oq83wA1ekfPlevWRdi6dfq85ycf65MXh0aFNw+xfaj8WBWowCozDBFGfOV351jxk2Yaq57+5WW3KKBANB8TwWeMWvOCHpfACAABGCFzl+46PzxmAjMb88pOXJ2LzPzD2u6dk+cTK3bs0/fJYbXrtyXiusYQEUFKEUHe6i0wr2Od1rcgoQB8hAja7r3yqCT68F8R4EleaIzPTAAEAACsDJyHISDP8z/hL+OoV2TrXn/ymEjRs1ydfMsOj2Y6xmAcff4U4I/nWgW2GrH6tVrQ6y5d6jr0+AELw7Nc2JAfmZyFT09MAAQAAKwIvPi5g+SgYk8IY7G2FxP93MS8kTGBYsW97X261mugJw1Z+4wFzfPotM3OTkYQHlP9JXsVFrRoWPomi1bt7ekfxDfTJoydQJjwOZ7KrDs/WLnLxjItQwABIAArMClS1cceHNvGeM8cmXK2bPnanFdv98nMD5hYb9aHl7vTw7WOvKgCqDEAYly77Cx14rQLj1WnkpL8+D++p78ffAC0fz3suRUYAAgAARgBVq367CJt/eWsRF94+aBu7mmP/X2bd5f5i9I6F+vkX/BaHBhEMi1A+Drq/4K7q2du/ZYceToMV/up5/6888//8/N05v9g828fwgKbscoMAAQAAKwZAmLFofZ8ubeQhp4nZD733Fdf9nr12/+tjhxaS8v3wZFewQyGgzg4zBEEdZvQMLRY8d9uH9+3eChI+bSS5j5Sle1TiQsXhLG9QwABIAALNDNmxn2SvDBW3vLsG3HzhZc28V79fr198uTVnSVq1aU0T57jSN1AHCqr17rth02HT+R6sX9smRWJq8OlS9V5H2U68m8txHJyLhVg2saAAgAAViYkNAuqxn9taxDQHJzc3/k2i65vLy87+bGzh8sg8D3pwY7cD0BVrrPX5v2IRv37T/gx/2xdC5euuKodXLlhaIFrH4N7dJ9Jdc0ABAAArCwt/WEf5bz5l6/YqVdh01c22Xz6PHj/8TMmj1ShqhylNrwYYhrDLDcPf7kH8vwP7BVm61bt28P5H5Yds0Cg3bQV1hGCLhm7foOXNMAQAAIwELCDnkqqtLs0fSa/+iaDK3mzY8fxPVdPg8fZv83YmLUxA9HoqgRwKJW/BWOqcoad3HzFPKFGPe/8pN70MrvIlZRm3cAKA/Jcq/jI548ffYz1zUAEAACMHMjRo2Zod+sm716LGZ8Ta5gOZV22oPr2zhu3MxQ9Qzru8RGVRASKCOCXG+AeYcbkrxfOri4ianTY8a8evXqe+55xrFu/cZ2cj9V7pXmH5DLHnHU2PHTua4BgAAQgBk7cvS4LyM6lrdxt4Ozm3j2/PlPXOPGJU//lHuC2XJiMGARJ/vK1U1jx4dPuZeZ+Qf3OOPKzMr6nfujZdXMsRMnvbm2AYAAEICZauDf+GDRgxBNrgWM/+r04789eoclcn1XnJTNW4LqeNcrqhtWzwLm8YJEpXl/wEdIpy6r5WEV3NMqTr1G/odt6DEsZm9h/8bN93JdAwABIAAzNGP2nBGs/rO8k3/t1A5i5uw5w7nGK1Z+fn41eVCIHB20LVwJyENu1T6cKpSVmZLcf+w93QfkKPcnNF9g8Oco/98P/3rv/z6Gf3/D1Wa8bKnavVGVAz7qNfIX6zdsast9rOKNHDMuhj7DslYBzpkXO4RrGwAIAAGYkctXruqUhpwHUssJQfQHgKi1YtuOnS24zivH3XuZ/xs8dMTcj8MnrsnShXefC+1qlDhYLRjltP2sglWxtoV7vVUkW4VK94V/Fm3BP2sJTqP93O/hg9FVrp1Sj/vK0HZu3PzBeXl533Hvqhzr129sa6vWcXiSBW0xIu9J165fr8n1DQAEgADMRLdefZbJh1T5QERja1nNuaubp7h5M8Oe67xyHT+R6tUsMGgHY8FfDrWUVXgFK+qcPjhM5ZPQ7qMgzcbgz5N/DbXOWWidXK84ubpd8PJteLxpi5Y723botL5H7z6JQ4aNmCP3dZsyPWbsvLj4QUuWLuu5Zu36DimbtwZt3bY9UNqzb3/A/gMHG0nHT5z0Sj2V5imlp593uXjpsuOFi5ec5E9J/ncnTqbWlf+73ANr3/4DfgcOHmoo/xpbtm5vKf968q+dvHptx8Rly3vMnhc7dPLU6ePGTgifMmDQ0Dg5kt+2Q8f1AU1b7JH/rPKfWePoclX+OxSc2l2y34Hhnyd/h/L/r/welaCQcNBg3Ff7ftx34OBhsezzV/lkUEQAaGEHgqh0omefvku4vgGAABCAGdi+c1dz/am/hH8WudKlaYtWO7nOq87ixKW9nGu5W+VY8Mer15SR2Q8DrsIVczUd9D/lycoOLrVFXZ8Gcn8p0TIoeEuHjqFruvcKWypPKJ82Y+Zo+TvdlLK59ZEjx3wvXb7icD8r67dXr1+b/Wmt8sTZrKysX89fuOh88NDhBvLfcVFiYu8p06aPHT5y9MzuvfosbRfSaV1gq+CtfgHNhNx3UudcWx+GGv4ObYuuM23RXqAfh4LWdB0qK3Dl7yagSfM9Mqzl3lQ1cl+8+NHT2/eDzwXmvtVIQQi4e8/exlzjAEAACMCEvXv37lvveo0Y/bXQPa5kU96nb/+FXOtV6+HD7P+OHjdhmuF4q7nXm+G/izKa+sm/k+EKNoPRWPm/yRBAnqAc1m9AwviIidELFi7quyllS+sjR476Xrl6TZv96FH1N2/f/pXr5wth4es338vr6tKVKw6HDx+tt3HT5jaLliT2jp4ybfzQ4aNmd+zcLVnubad1ci363dt+JfxTtgywpJDQcExa/pTjvlw7Va9n77AlyspdvqstZ9pA3m/kXrhc4wBAAAjARE2fOWuUDIl4E2+5e6nx0GtCY8EnU70aNw/cLWvO3MaCi1bxFY7rfnidvR9NVf5cOY7qU7/R0Z5hfZfI+8y6dRvbHTt+wjsj41aNBw8f/vLnn3/+H9dExXr58tUPT548/TkjI6OGDFZXr1kbIlcTyrFoOXosP8ePV2Mafo4FY7NOekowaF6rkgrugXL1qLzuuCZMw9TpMWPk4VSG9xFYwsSBTsyaM3cY1zgAEAACMEFyXziNowur/yyc3J+M6920xCcs6idHN5W9sEyt/gxX9ymn2yr/fcEqvoITVGt5eAn/Js2FHEsdMmzknPkLEvrv3L276dVr1zQcrGD6Xr958zc5Qr11+47AubFxg+W+eHJvQjl67epet3Bs1kHPcMN/eU2Y6irB9ytsdfoxcrkfI5+1aVm7bkN7O/29hQDQ0lYByu+1W7du23GdAwABIAAT02/AoHj93n8cTmDBY8A68fDhw/9yvZueW7fv2MmN05XVgJ8doa3Ewzg+/nsr4Y4yOurh5SvkWOn48MjoVclrOsnVjLfv3LUl6LPMYFA+xB89dtxHftZTpsWM7daz9zIv34bvr4nPhH/KtVQVI+6Go/WypkaNHT9droDk8zQ9aadPu9dQa3n5aIEHgsh7g3yRwHUOAASAAEyIPOlSPiSxB49lv42v7eF1huvdtKVs2Rrk5un9wQqrirwuClZwORUd+vN+9PP939/N0/t0j959E+fOixssV5DKMIiRXbx48fLvMrjetXtPkxmz5ozo2qPX8loeXmeV0eCPryVlXLyiw+2ia1ke8tG0xR55QjOfl+l6/OTJv5Uwme1HLHHvYa04fORoPa51ACAABGAi/AKa7bOxspMgrXH/v46hXZO53k1fbu6LH0eOGRejfG7GPJH7fejnaDDGW3BarIOLm5B7EvYK67c4dn78QHnybHZ2dnU+E5SGPIV57/4D/rPnxQ2VJxX7N26mP3xEGRcvCgQ/OonYmHv9yb+uDCX5PMyDPN2bANBye4+AZoF7uM4BgAAQgAmQp23SeFvDhtxaERU9JZxr3nwcOXrMN6Bpi6IRy9LU6JfGeZVVWfrAz7m2CO3SY+XU6TPGyJWHcv83fu8wNjkWfuHiJacNG1OCJ02ZOiGkU+fVcr9ZO/WHh4wYBtSlDQXfrzrUiXYhoeu4ls2Lsv1BRa54RtX2H4sSE3tzrQMAASCAqhy9efzk326eXsKGANDyx3DUOrFm7foOXPfmJT8/v5o8NbfoFFaN4xeDkYLw5P1m+oYjmJKLm2d6l249k+ITFvY7feaM29Nnz//F7xhVQZ5GnJ5+3mXp8qTu/QcOni/HzJXr9IOx4cLx9OKueeX/Kw/U4fdrfuRJwLyItOwA0KOuj3j2/PlPXO8AQAAIoIpET5k2Xq7CUHP6nlVsxi03W+e6N09pp8+4y/Fc28IHZMN91pTTeZUVUMqpvA39m4iwfgMSklas6pKRcasGv0eYsitXr2kXJy7tJUfQ5diwMp6uHIyjjAwrYWBRDah1Irh9xw03btxU8Xs0T3J1KNuQWHAPonXS9yBTY2aM4XoHAAJAAFXgZkaGveEeLTSplv8GPjPz/u9c++Zt5uy5ww0PdjE8ndeltoc+8Fu4OLHPyVOn6rx6/fp7fmcwR2/f5v1FvrBYtCSxd7+Bg+Nre3h9MjKsXPvzFyT053dm3uSKZL6rLf8gMtmL8DIKAAgAAVQBOXYlH6YYubH88E/+dK/jI3Jycv7BtW/+0tMvuDQLDNohH6qat2y9PWbW7JEyLOHzhaWS1/b5Cxedlyxd1jO0S/eV8p4WFNw+5dr16zX5/Zi/7OxH1Y152BFM90VkvwGD4rnmAYAAEEAlOnb8hDfjNtbVdAe1aSfkfnJc/5YjNzf3R34PsEYvXrz8O78Hy6Jzrn2Z72wrWAmo0orjJ1O9uOYBgAAQQCVp26Hjejbctpa9dxz1e2T1HzB4Ptc+AMAUNW4WuJsXk9bxQlL2oFzzAEAACKASyM225eiv4WbqsPwDQCInRUdy/QMATFHPsL5LeDFp+Qp6T51I2bwliOseAAgAAVQgOQKqnK4omzCaUSs5fa+mg4idHz+QGgAAmKIJERMnEQBaSwCoFY2btmBbEgAgAARQkVYmrw6Vq8HYbNvKAkC1g0hevbYjNQAAMEXyNGdlOoHvbuuYTKAvAQACQAAV5G1e3l/cPL1pPq1sw+2CPXd0YtfuPU2oAwCAKdq4aXMbuV+tvYYVgFZxGIi9Rnh4+Yh37959y/UPAASAAIxsTmzcEMZrrLPJljh1DwBgqg4ePNyACQXrOxAkdv4CticBAAJAAMb05MnTn2t5eAkbAkCrDADVOmdx/vwFZ2oBAGCKzpw5W5sA0PoCQPc6PuLZ8+c/UQMAQAAIwEhiZs4aWdBYO9F4WmEA6OrmKTIybtWgFgAApujGjZsqfZ+iIQC0tr0AY2bNHkkNAAABIAAjePDw4S8aR5dPRkJhHW/Y5apPT29fkfXgwa/UAwDAFN27l/mH7FE4BMT6XlJqnVxFdvaj6tQBABAAAiin8RGR0ZysZ90jNvUa+YucnJx/UA8AAFMkAyBlixJeVloP2ZvKHjUiatJE6gAACAABlMPtO3dt2fOPADCgaQuRn59fjZoAAJgiuQ9cLY+6BIBWGwTqxL3MzD+oBQAgAARQRiPHjIvh5F8CwJZBwVuoBwCAqXr58uUPcrW6jT09i7X2KmPGT5hKLQAAASCAMpAbarP3H6M1crSmbYeO66kJAICpevfu3bfNAoMELy2tdy9AnXNtcevWbTvqAQAIAAGU0oTIqEmcqEcAKAPADh1D11ATAABTFtSmXQoHgVjpicBaJ/2JwBMnTY6gFgCAABBAKch9VNhMG0oA2DG0azJ1AQAw6QAwuD0BoJWvApSf/f37Wb9RDwBAAAigpKv/IiZO4uRfFAWAnbsRAAIATFpw+5ANBID0LOETo6KoBwAgAARQktV/9+//odY60UzCYAUgASAAwLTJ/WoJACG3rrmfxSpAAOCXAKBYYydETGETbRQFgGqd6NS52ypqAwBgytqFdFpHAMiJwPIaGB8eGU1NACAA5JcA4Ctu37lr6+Dixt5/+CAADO3SfSX1AQAwZSGdOq8mACQAlD+dXN3Enbv3bKgLAASAAPAFU2NmjNGf/MsIMAwCwM5de6ygPgAApkyuVicAhHIi8PQZs0ZRFwAIAAHgM548ffazk6s7q//ACkAAACsAYdYnAru61xVPnz3/F7UBgAAQAD6SsGhxWMHqP0caSHxwCEiHjqFrqBEAgKnKz8+v1rJ1W8EexihYBeioXwW4cEliH+oDAAEgAHzUONfy8KJpxGcCQK1o0z5kI3UCADBVb/Py/hLQLJAAEB9wr+OdRn0AIAAEAAOJy5b3kE0zo7/43Gl6LYOCt1AnAABT9fLlqx/qNfT/4CAIMAosLUta2Y0aAUAACACFApq22MNbc3wpAGzSouUu6gQAYKpycnL+4ebpTQCIT3qYxs0Dd1MjAAgAAUCIbzZu2txG7vNmr6FhxuebZ7+AZuLV69ffUy8AAFP05MnTn3XOtTnIDB9tZaLT72WcsmVrEHUCgAAQgNVr0y5kI6fm4WsBoG9DP/E8J+ef1AsAwBRlZz+qrgR/BID4MADUinYhndZRJwAIAAFYteMnTnrZcvIvvhIA2thr5SbaIvP+/d+pGQCAKbp7L/N/BdMMvMzE51cBpp5K86RWABAAArBa3Xv2Wcref/jaBtryp9bJVVy8dNmRmgEAmKLz5y8428kXmhpeaOLz0wy9wvotplYAEAACsEo3b2bY0xiiJCfoyT8+euyED3UDADBF+/Yf9LNjogHF9DS3bt22o14AEAACsDrjwiMms/oPxTXLyujM1u07AqkbAIApWrN2fQe5pQkjwPjaKsBx4ZGTqRcABIAArMqjx4//I/d1IwBEcVRaJ2FX00GsWLW6M7UDADBF8+LmD2IPQBQXAHp4+Qh5YjQ1A4AAEIDVWLJ0Wc+CURknGkMUHwCqHUTs/AUDqR0AgCkKj5wYxUtNFN/P6ITsgakZAASAAKxCfn5+Nf8mzVn9hxKenueob5gjoqInUj8AAFPUq0/fxfQ1KMkqwICmLYTshakbAASAACzenr37AtgoGyUPAAv2AOT0PACAqarvF3DIxuDgKuDzqwAdhdwrct/+A37UDQACQAAWr33H0LW2NMko5Rvzpi1aiby8vO+oIQCAqdE4ulzlOxslOdxMCunUeTV1A4AAEIBFu3r1moYGEKVtluVPB5fa4unTZ/+ijgAApuTW7Tt2HP6B0rp2/XpN6gcAASAAizVm/ISp7JGDsozMyLHxjIyMGtQRAMCUHD5ytB7f1SjtZMPYCeFTqB8ABIAALNKzZ89/8vJtyOEfKHMAeOTIUV9qCQBgSlauSg5laxOUNgD0rtdI5OTk/IMaAkAACMDirF6zLkR/+IeGwz9Q2oNAHPQHgSQuW96DWgIAmJLxEROjebmJshwGIntjaggAASAAi9OhY+ga2SCzTw7K+rZ82IhRs6glAIApCQntulq+pKK/QclfbBb0NfLaoYYAEAACsCjnz19wttM3x7wdRxkPAlFphV9As33UEwDAVLx+8+Zv/o2bs70JyhwCXrh4yYlaAkAACMBijBg9dgbNMco/MuMkXr1+8z01BQAwBVeuXtM6ubp9cGo9UJrpBnlAHrUEgAAQgEV4npPzT62TK80ejLIS8Oy59FrUFQDAFOzas6eJsr0JASDKQudcW+Tm5v5IPQEgAARg9hIWLQnjdDwYI/yTVqxK7kxdAQBMwfwFCf3t1A76Fep8V6Osvc3ixKW9qCcABIAAzF5QcPsUxn9hrJOABw8dMZe6AgCYggGDhsTJ7yZ5qivf1Shbb6MVwe1CNlBPAAgAAZi11FNpnh8c5ECzh3LuldO8Zevt1BYAoKq9fPnqB5/6fkXfUXxXo0yHnBVeP6fPnHGjrgAQAAIwW1Onx4xhNAbGbJJreXiJW7fv2FFfAICqdPNmhr2dSqdfxcX3NMpzwJmdWiemxcwYTV0BIAAEYLZvxut41+PNOIwWACpjwDt27WpGjQEAqtLGTZvbyODGXkOPg/JNOMifXr4NxctXr36gtgAQAAIwO3v37feXjTH74sC4b8kdxPSZs0ZRYwCAqjRsxOhZ7HEM4/Q3jvpVgPsPHGxEbQEgAARgdrr17L2M039REZtld+gYuoYaAwBUJfc6PmnscQxj7nPco3ffRGoLAAEgALPy4OHDX3gjjooYA1YetO5nZf1GrQEAqsL5Cxed+V5GRbzozM7Ork6NASAABGA2Zs+dN5SxGFTkmMz2nbuaU2sAgKoQF79gAFMOqIiXnHPj4gZTYwAIAAGYjZZBwVsIAFGRYzJDho2YQ60BAKpCp87dV9lyAjAqYJuTVm3ababGABAAAjALaadPuytvxHkzjop4Qy5/Oru6n6feAACV7V5m5h9unt7Cxp4XnTB+fyOvqbQzZ9ypNQAEgABM3oxZc0YUnP7rREOHCnXo0JH61BwAoDJt2JgSXNDnOPJdDCNvc+Ik7NQOQm6lQ60BIAAEYNLevXv3rX+T5oLxX1TGGPCY8ROmUncAgMo0YtSYGfoAUEMAiIrpb5q0aCny8/OrUW8ACAABmKwzZ87WtuWtOCqpQW7g11i8efP2r9QeAKAyPH32/F8OLm5sc4IK3AtQJ2QvffZcei1qDgABIACTNT48MprVf6iMfXKUzbJ37NrVjNoDAFSGzVu3tWL8F5XxkjMiatJEag4AASAAk+XqXvcczRsqZZ8cjaOQD2Ejx4yLofYAAJWhQ6fOa2Q4w+o/VLRaHl5nqTkABIAATNLOXbub0rChsk/L0znXFtnZj6tTgwCAinTn7j0bJhxQmfbuP+BP7QEgAARgcvoPHDzfVqXTj2bStKEyT8s7fPhoPWoQAFCRkpPXdFS2oOA7GBW7D6Dc5kQnBgweGkftASAABGBSnj1//pN3vUac/otKDP8c9c3xoCHD51GDAIDK0K1n72Xyu4c9AFEZ+wD6NvQTf/755/9RewAIAAGYjO07dzXnrTgq9824VrRpF7KR+gMAVJb8/PxqzVu21n8Hyb1o+U5GRfc6O3fvaUrtASAABGAyxoVHTJYHMtjTDKOSGuL6fgEiNzf3R+oPAFCZHj1+/B9PL1/Bi09U/DYnOjEhYuIk6g4AASAAk/Dixcu/1/GpVzSyQNOGig7/nGu5i7v3Mv9H/QEAqsKFi5ectE6uHxxKBRh7DFj+9PJtKF6+fPUDdQeAABBAlTt+MtVLvqFkPxxURiMsH7TOnD1Xm9oDAFSlffsP+H18Mj1g7P2OZY994mRqXWoOAAEggCo3dkL4FA7/QGVtiL1hY0owdQcAMAVLli7rKQ8FsdfQA6Hieh/GgAEQAAIwCW6e3qd5+42KHf3VCVu1TkROio6k5gAApmTE6LEzCAFREZTeWvba1BoAAkAAVerIkaO+NGio0PEXjaOQD1adunRfRc0BAExRUJt2KRwKgop07PhJb2oNAAEggCozetz4aYz/oqJHX3zqNRJ//vnn/1FzAABTlJWV9aurR11hY09PhIrphcaOD59CrQEgAARQZZq0aLmLABAVPf6bnn7ehXoDAJiyY8dPeNtyKAgqKABsGthqJ3UGgAAQQJVIO33a3fBkVpo0GH3fP5VOrExeHUq9AQDMwfwFCf0L9gNkFBjG3QdQXlNnzp6rTZ0BIAAEUOniExb2s1M7CJXWiQYNxt/3T60Tg4eOmEutAQDMSfdevZcW7AfIdASM1BdpnYTsuRcsWtyXGgNAAAig0nXt0Ws5DS4qatSlXiN/8fLlqx+oNQCAOXn67Pm/3Dy9BYeCwNhTET1690mkxgAQAAKoVA8ePvxFGUtg/BdGH3VRacWJk6l1qTUAgDnaf+BgI6VHok+CscaA5UvS7Ozs6tQYAAJAAJVm67btgXZqnVBpHWnMYNw33GqdiItPGECdAQDM2dSYGWNYBQjjjQE7Ctl779i1uxn1BYAAEECl6T9w8HxO/4WxG1t5TXXp1jOJGgMAWIKg4PYp9Esw5hYpA4cMi6W2ABAAAqgU+fn51Rxd3WjGYPTRFo2ji7hz954NdQYAsARXr13TKN9xjALDGL2Ss6v7eWoLAAEggEpx6NCR+jRiMO7or4O+sV2WtKIbNQYAsCTzFyT0t2XbFBjR0WPHfagtAASAACpcxMToiYyzwNgjLR1DuyRTXwAAS9S6bYdN9E4wVs8UNXlKOHUFgAAQQIVr1abdZja1hjHHWdQ6Z3H7zl1b6gsAYKmjwIR/MNbEhAyUqSsABIAAKtTNmxn2LrU92MsGRmxkdSJx2fIe1BcAwJItWLior34UWMMoMMr34rSWh5e4dfuOHXUFgAAQQIXZlLKltR372MCIYyzB7UM2UFsAAGsQ1KZdSsEUBasBUTayB5dBcsqWrUHUFAACQAAVZnx4ZHRBAOhEE4byv8VWacW59HRXagsAYA2OnzjpZWuv1X8HMkmBsgWATkL24uETJ0VRUwAIAAFUiLd5eX/xb9JcsIk1yj/6q9OP/k6ImDiJ2gIAWJMRo8fOoJdCeScomrZoJfLy8r6jpgAQAAKokP3/OPwDxmhc5co/FzdP8Twn55/UFgDAmjx99uxfDi5u9AQo92EgGRm3alBTAAgAARjdilXJneWeIwSAMMbBH8mr13akrgAAVtlTrVyl76nYUxllnaSQY8Br1q7rQD0BIAAEYHTde/VZyp414OAPAADKLyi4fQqTFSjrPspSr7B+i6klAASAAIzOwcXtEk0Xyk2lFamn0jypKQCANTt0+Eh9Jcjh5SrKwrmW+3lqCQABIACjOnPmbG0aLRhj9V+fvv0XUlMAAIhvuvcOW8qBICiP9PQLLtQSAAJAAEYTF58wgDfUKM+oij4AtNeI6zduqKkpAADEN5cuX3FQvifpF1CWMeAFCxf1pZYAEAACMPL+fxwAgrJuVu2o36x6XHjEZOoJAID3ho0cPYseC2U9VK1H77BE6ggAASAAo3j56tUPDf2bCEZUUNbRX/lT51xb3Ll7z4aaAgDgvbv37v1PnurKSkCUZWsVv4Bm4s3bt3+llgAQAAIot7TTp92VEIfGFGVtUCdPnT6OegIA4FNTpsWMlSvlVVonegeUeAS4YCWgTpw5e642dQSAABBAuS1PWtnVTu1AU4oyk6v/nufk/JN6AgDgU5n3s353qe0hbJi2QCnI3lz26CtWJXemjgAQAAIot+EjR8/Uv5XWONJsofT706h1YmrMjDHUEgAAXzY+PDKa7VZQqgCwcI/lkWPGxVBDAAgAAZTL6zdv/sb+fyjPaIpK6ywePHz4C/UEAMCX3c/K+o2DQFCWbVb8mzRnH0AABIAAyufWrdt2nEyHso+l6ERk1ORIagkAgOKNnRAxhb4LpT8NWCtu37lrSw0BIAAEUGZbtm1vKUMc5XQ6oDSr/zSOLuLa9es1qSUAAIqXcet2DeV7lIPXULIAUKd/4bp9567m1BAAAkAAZRYRNWki478o60jKkGEj51BHAACUnNzPjb2XUdqeKyp6Sjj1A4AAEECZNW3RaidvoVFWl65ccaCOAAAouVNpaR4fr6gHvjZ1ITVv2Xo79QOAABBAmbx69ep7uY8bzRXK0oiGhHZdTR0BAFB6IZ06r2YCA6Xde1ke3kf9ACAABFBqx46f8KahQukbUEf9XjT79h/wo44AACi9jZs2t2ECA6V14mRqXeoHAAEggFKLnR8/kLfPKMs+NH4BzcTbt3l/oY4AACgbT2/fVMaAUZrpi/iEhf2oHQAEgABKrVdYv8W2KnkCsAPNFUo8fiJX/81fkNCfGgIAoOzkd6n8TqUPQ/EnATsI2bP36dt/IbUDgAAQQKkFNG2xhxWAKM3qP/nT1c1T3L2X+T9qCACAsst68OBXe42jYBQYJZ3AaNw8cDe1A4AAEECpXLt+vaZzLXdOoEMpm0+dGDBoaBw1BABA+Y0YPXaGXAWo0jjSa+CrI8Dyp4ubh7h+44aa2gFAAAigxHbu3t1UGf8lAERpHD58tB41BABA+e3dt99fmcagH8PXAkClZ9+1e08TagcAASCAEouLTxhgp3bQ7+lGY4WSvnmu69PgBPUDAIBx5OXlfeffuLlgSxaUbB9mBw4CAUAACKB0hgwbOcdWjpxoGTlByTefnjl7znDqBwAA4wmPjIoiAETxAaCj/iC24SPHzKRuABAAAijx2+ZmgUG8bUYpA0CtkHtHUkMAABjPxUuXHek1UNKDQAJbBYv8/Pxq1A4AAkAAxXr4MPu/ylgn+82gpOFfSGjX1dQPAADGJ093taEvQwm2Y5FBYPajR9WpGwAEgACKlXbmjLsd478o6ciJpmDkZHnSyq7UDwAAxrcsaUU3+V1rr2EyA8X3ZKfPnHWjbgAQAAIo1tLlSd2VE4BpplCSt83OtT1ERsatGtQPAADGdy8z8w8bTgNGSaYy1DqRtHJVF+oGAAEggGINHT5yNvv/oTSHf3ToGLqG2gEAoOJ0DO2WLPszXtCiuH0AR44ZF0PNACAABFCsBn6ND7LPDEq6AlCKi18wgNoBAKDixCcs7GendhAqrRM9CL48maHSioAmLfZQMwAIAAF81es3b/5GY4nSysjIYPwXAIAKdObsudrK6j9e0uJr1DpnkZeX9x11A4AAEMAXnb9w0ZmmEqV6y9yUt8wAAFSG5i1bb2ebFpRkFPjS5SsO1AwAAkAAX7QpZUtrxn9Rmv3/5sbNH0ztAABQ8SInRUcSAKIktmzd3pKaAUAACOCLpk6PGUNjidKcNHfx8hVHagcAgIp34mRqXXoQlOQgkJiZs0dSMwAIAAF8Uc/eYUtkqMMJcyiuuZQrRes3ChBy30hqBwCAyuFcy/08vQiKe0HbK6zfYuoFAAEggC9qGRS8hRWAKI5K4yjs1Doxasy46dQNAACVp0fvsERbtmtBMSsAW7Vuu5l6AUAACOCzsh89rl7Hp4EgAETxb5cLAsBVyWs6UTsAAFSelcmrQ5nWQHEBoHe9RuLJk6c/UzMACAABfOLM2XO1VVrH9ye80kThS6f/2muE1slVXLx0mf3/AACoRNdv3FDbqQgA8fU+Ta1zFunpF1yoGQAEgAA+kbJla5Bc1aWEgMDX3iw3adFyF3UDAEDlknvvNvRvot+Ll4kNfH5SQ6ffB3Db9h0tqBkABIAAPhE7P36gXU0HodI60TyhmABQJ4YOHzmbugEAoPKNHjd+mv6lrYaXtvjMXs1aJyF7+vkLEvpTLwAIAAHQTKLsoyUqrdiwKSWYugEAoPKtXrMupGBqg5e2+PJhbeMmREymXgAQAAL4RJduPZNkuMOeMihJCHj7zl1b6gYAgMon922WY57s24zPjwA76K+L7r36LKVeABAAAvjAq9evv28U0JQTgFGijaVreXidpW4AAKgaOTk5/6jXyJ++DV/dr9mvcTMh94ykZgAQAAIokp39qLoS7vAmGcU1lD16902kbgAAqDodQ7sm23IaML7ywtZe4ygePX78H+oFAAEggCJXrl7Tsv8fSjZSohPxCQv7UTcAAFSdyEnRkawAxJcPAinYB/Da9es1qRcABIAAiuzavaeJbBKU/WSAr20qffxkqhd1AwBA1dmybXtLehMUFwDu23/Aj3oBQAAIoEjCosVhjJGguHESZaREjoxTNwAAVJ07d+/ZsPoPxU1tLFqS2Jt6AUAACKDI6HHjpzFGgpLs/9cyKFjk5+dXo24AAKhatT28zrB/M77Wt40Lj5hMrQAgAARQpG2HjusNV3gBnxslsVXrxLARo2ZRMwAAVL3Qzt1X0r/ha5MbIZ26rKZWABAAAiji5ul9mjfI+HoA6CTs1A5ibmzcYGoGAICqN2ny1AlMcOBrJwG71/FJo1YAEAAC0Hv7Nu8vap0zzRKK2UumYDPpDRtTgqkbAACq3pq16zrYqtnDGV8me3y2bgFAAAhA7/adu7Y0jijJW2S5wuBU2mkP6gYAgKp3+sxZN/lyTqVxpF/BFw8DuXcv8w/qBQABIIBvjp9M9aJBQnEbSduotMLT21dkPXjwK3UDAEDVe/DgwS+2qvf7vdGz4HNST6V5Ui8ACAABfLNxU0obGxXNEYo/Sa5ZYNAOagYAANPw8uWrH+o18te/pGMfQHyWSiNStmwNol4AEAAC+CY2fsFA3hyjuPERucdQl249k6gZAABMR7eevZfJHo7tXPClk4DjExb2o1YAEAAC+Gb0uAnTbFU63hyj2BWA48Mjo6kZAABMx7gJEZPZBxBf69/GhUdMplYAEAACKHhzzAlyKMkb5IWLeIMMAIAJmTMvdoid2kGotE70LPjsBEf3Xn2WUisACAABfNO6bYdNjI6gJDZv2daKmgEAwHSsTF4daleTABBfCABVWtGmXchGagUAASBg5d7m5f3Fv0kLfXPACDCKcyotzYO6AQDAdOzas6eJ8iKX/ZzxuRFg2evn5eV9R70AIAAErFh29qPqdX0aEACiBG+RdeJeZuYf1A0AAKbj9JmzbvI7Wtmyg54FHweAXr4NxaNHj/9DvQAgAASs2PUbN9TOtTxoGlEstc5Z5OfnV6NuAAAwHbfv3LWt5eFFL4fP7uEsfzrX9hA3bmaoqBcABICAFZMjncrKP5pGfK159PT2TaVmAAAwLbm5L35s4N+YaQ58sYeT4+FpZ864Uy8ACAABK7Zn3/4ApWEkAMTXTgBmA2kAAExTYKs2WwkA8bkeTunx9+0/4EetACAABKzY+g2b2tqpOTkOxe8f06dv/4XUDAAApqdth47rbVU6/UovehcYUmkchZ1aJzZsTAmmVgAQAAJWbHHi0l52NR30+7vRJOFrAeCoseOnUzMAAJiezl17rLBVEwDi83s4y14/cdnyHtQKAAJAwIrFzJo9khWAKEkAOGVazFhqBgAA09NvwKB4AkB8dgWg1knIXn/m7LnDqRUABICAFRs7IWKKHAuQ4wE0Sfgc+TAhx4oWLFzUl5oBAMD0jBk/YSp7AOJrI8DjIyZGUysACAABa39jrN8zhoYRXwkA1TqRvHptR2oGAADTM23GzNEEgPj8CkBH/Yvc/oOGzKdWABAAAlasY2jXZNkwMjKCLweAOv2b4207dragZgAAMD0JixaHyX5OonfBp5McWtGpc7dV1AoAAkDASr179+7b5i1bC94Yo7g3xzIAPHb8hDd1AwCA6Vmzbn0HGwJAfGUv55ZBwSI/P78a9QKAABCwQi9fvvrBt6G/sFFpCABRbAB4Lj3dlboBAMD0bN2+PZCeBV8KAGU4XL9RgHj16tX31AsAAkDACj17/vwnVzdPfXPAG2MUt3n0xUuXHakbAABMz85du5vSs+BzlB6/loeXeJ6T80/qBQABIGCFsrMfVVdW/hEAorgA8Nr16zWpGwAATM/e/fv96VnwtQBQ9nPZjx5Vp14AEAACVuheZuYfHACCkgWADiIj41YN6gYAANNz+PDRevQsKG4fwMzM+79TLwAIAAErdP3GDbVc2SUDHpojFLcH4O07d22pGwAATM+x4ye96VlQ3DTHzZs37akXAASAgBU6feaMmz4A1BIA4svkClH51liuGKVuAAAwPadOn/agZ0FxL3PPnD1Xm3oBQAAIWKH9+w80IgBEcfvGKGMj9+9n/UbdAABgetLTL7jQt6C4APDgocMNqBcABICAFdqUsrm1rVon7DU6miN8MQBUNo9+8PDhL9QNAACm59KlKw4c6IYvT3PohOz5U7ZsDaJeABAAAlYoacXKLrYqHYeAgAAQAAAzdvnyFR0BIL6+nYtOrFyVHEq9ACAABKzQgoWL+hIAoqQBYNaDB79SNwAAmJ4LFy85EQCiuABw4aIlfagXAASAgBWaPTd2qLLHG80RvrYHoI3cAzCLPQABADBF589fcKZvwZco+znPjY0bTL0AIAAErNDkqdPHEQCipE0jh4AAAGCazp5Lr0XPguJ6uanTZ4yhXgAQAAJWaHx4ZDQBIEraNGbev/87dQMAgOk5feasGz0LiuvlJkRGTaJeABAAAlZo2IhRswgAUZJ9Y+xUWnEvM/MP6gYAANNzKi3Ng54FxQWAI0ePjaFeABAAAlaob/+BCwgAUXwAqBO2ap24ey/zf9QNAACm5+SpU3XoWVBcANh/4OD51AsAAkDACnXp1jPJ8JRX4HNUGkdhp9aJW7du21E3AACYniNHjvnSs+Brh7pJ3Xr2Xka9ACAABKxQ2w6d1tsQAKJEAaCDuHb9ek3qBgAA07Nv/wE/ehZ8LQCUPX+HjqFrqBcABICAFWoWGLSjqCmgOUIxKwAvXLzkRN0AAGB6duza3YyeBV8NAO01IrBV8FbqBQABIGCF/Bo320cAiGIDQG1BAChPGKRuAAAwPSmbtwTZ0M+hmAAwoEmLPdQLAAJAwArVa+R/mAAQJQ0Aj59I9aJuAAAwPWvXrW/Pvs4oLgBs4Nf4IPUCgAAQsEJevg2PEwCipAHgoUNH6lM3AACYnhUrV3UmAERxAaBvQ78j1AsAAkDACtXxrneSpgjFsdfo9AHgzt27m1I3AACYnkWLE3sTAKK4ALCuT4MT1AsAAkDACrl5ep+mKULxAaCDsFXrxMZNm9tQNwAAmJ7Zc+cNlSFPDbWO3gVf5OHlc4p6AUAACFghFzfPdJohlDQATFqZ3IW6AQDA9ERNnhJOAIjiuLrXPUe9ACAABKyQk6vbBZohlCgAVOlEfMLCftQNAACmZ9TY8dPldzUBIL7GuZbHeeoFAAEgYIU0ji5XaYZQHPkwIVcVxMyaPZK6AQDA9PQfOHi+XK0vX9rRu+BLdM61L1MvAAgAASuk0jjeoBlCSQPAyKhJkdQNAACmp1vP3ssIAFEcldbpBvUCgAAQsEI11LoMmiGUNAAcPnL0TOoGAADT07Fzt2Q5AkwAiGJ6ugzqBQABIGCFbFXa2zRDKGkA2KN330TqBgAA09OmXchG+V1NAIivkb0/9QKAABCwxhFgLSPAKFGzqBcU3D6FugEAwPQ0CwzawSnAKHYEWOPICDAAAkDAGql1ztdphlCSANBGpRW+Df2OUDcAAJiWly9f/dDQv4kgAERx5AGA1AwAAkDACumca12mGUJJObm6XaBuAAAwLdmPHlev69OAABDFcnBxu0TNACAABKyQDHRohlBSap2zyM/Pr0btAABgOjIybtVwdfN8v2qfngVf4FLbM52aAUAACFghV7c652iGUFL2Gkfx+MnTf1M7AACYjvMXLjrX1DkTAKJYtTy8zlIzAAgAASvk5ul9mmYIpTkN+ObNDHtqBwAA03Hs+Alvw0O76FnwJe51vNOoGQAEgIAV8vDyOcXbYpTGiZOpdakdAABMx9btOwJtVTphr9HR0+Gr6njXO0nNACAABKyQb/1GRwgAURpbt20PpHYAADAdK1Yld7ar6SBUWid6FXyW0uvXa+h/mJoBQAAIWKGAJs33EACipI2jlLhseQ9qBwAA0zEvLn6QnZoAEMUHgI2bB+6mZgAQAAJWKLBVm60EgCjp/n/yOpk2Y+ZoagcAANMxMXpyhJ1aJ1QaR3oWfCUA1IpWbdptpmYAEAACVqhth47rbdgwGiU6AdhByP2Fho0YNYvaAQDAdAwZNnKOrQwAtQSA+EoAqNKKkE6dV1MzAAgAASvUuWuPFZwYhxIHgGqd6Nqj13JqBwAA0+vn5Hc1PQu+tpULfRwAAkDASvUO67eIABClGQEOCm6fQu0AAGAa3rx9+1f/Js3139Hyu5qeBV/r4/r2H7iAugFAAAhYoYGDh8XSMKI0jaNfQDPx+s2bv1E/AABUvadPn/3LydVdsKczStLHDR46Yi51A4AAELBCI0ePjSEAREkbRxuVRnh4+Yr7WVm/UT8AAFS9u/cy/yf36LXX0Muh+ABw1Nhx06kbAASAgBWKiIqeSACIkp8epxFqnbNIT7/gQv0AAFD1zp5Lr8UJwChpADhx0uQI6gYAASBghWbMmjOCABAlDQCV5nHf/gN+1A8AAFVv6/YdgTIAZAUgShIAzp47byh1A4AAELBCCYsWhxWMjXBqHIqn0joJO7WDWLN2fQfqBwCAqrdwcWIfejkUR14f8jpZtGRpb+oGAAEgYIVWJq8OpWlEaQNA3h4DAGAaxoyfMJVpDpQ0AFyzdh0vcQEQAALWKGXL1iBbxkZQ4gDQUcgxoxGjx86gfgAAqHrtQjqtkwEgJwDj6wGgTt/DyZFx6gYAASBghfbt3++n3zhay8bRKOnbY63oGNotmfoBAKDquXl6nzY8rAv42kvcg4cON6BuABAAAlboxMnUugSAKM0G0jYqrfBt6Cdevnz1AzUEAEDVyX3x4ke5PQc9CkoaAKadPu1O7QAgAASs0MVLlx31AaCGABAlOwlYWWHw8GH2f6khAACqzqXLVxxY+YcSBYCaggDw8pWrOmoHAAEgYIVu37lrywpAlOUN8oWLl5yoIQAAqs72HTub05ugNIeA3L2X+T9qBwABIGCFHjx8+MvHK7uA4jaRlgfHbErZ0poaAgCg6syZFzuEE4BRkgkOZSuX7OxH1akdAASAgBV6+uz5v1xqewg2j0Zp9gGU18q0GTNHU0MAAFSdfgMGxcuXcnJ1Fz0KigsAa3l4iec5Of+kdgAQAAJWSB7k4NvQ//0BDzRJKGEA2L132FJqCACAqtO6bYdN8juZABAl6d0a+DUWr16//p7aAUAACFih/Pz8aoGtggXjIyjtW2RPL99UaggAgKrx559//l+9Rv70cCjh/n9aEdSmXQq1A4AAELBinTp3X8XbY5TlMBD58EENAQBQ+S5dueKgc67NNi4ocQDYpVvPJGoHAAEgYO37x6g4CRildyotzYMaAgCg8u3cvbup8gKXABDFvbSVe0UOGDgkjtoBQAAIWLHR4yZMs1PrhEpDAIiSjwFLy5NWdKWGAACofPEJC/vZqR2ESutEb4KvB4AaRyF7/THjw6dSOwAIAAErNjVmxhh9AEgDiVJtJq0TI0aNmUENAQBQ+YaNGDXLVs0EB0qyAtBJyLA4ZtbskdQOAAJAwIolLF4SZlfTQah1zjRJKMVeMjrRtkPH9dQQAACVSx7i1jKoLQeAoERkjy97/cWJS3tRPwAIAAErtmbd+g6MkKD0KwC1Qp4+yEEgAABUrkePH/9HObyN/f9Q0hHgDRtTgqkfAASAgBXbvWdvY+UNMk0kSroHoDJSkp5+3oU6AgCg8pw5e662HeO/KGHPpvT4+/Yf9KN+ABAAAlYs9VSapxLoEACitG+T163f2I46AgCg8ixLWtFNbsWhrAIEintpK6+V02fOulE/AAgAASt29do1jZOrGwEgyrSh9OSp08dRRwAAVJ4Bg4bGsf8fShMAOtf2EDczbtlTPwAIAAEr9vBh9n/reNcTNjSSKPVBIFoR2qXHSuoIAIDK4+ntm8qLW5Rm32bveo3EkydPf6Z+ABAAAlbszdu3f/Vv3JyT5FC2N8q13MWz589/opYAAKh4Dx4+/IXRX5Q2AAxo2kLI06OpIQAEgICVCwpun0IAiNKPARfsA3jh4iUn6ggAgIq3Y9euZvQgKO3ERnD7jhuoHwAEgAC+6dKtZ5Ktms2kUYamUq0Ty5NWdKWOAACoeBMnTY7gpS1K26t17xW2lPoBQAAI4JsRo8fOkKfJ0UyiLGMlffr2X0gdAQBQ8dp26LieE4BR2l5tXHjEZOoHAAEggG/mzIsdwttklHUfQBc3z3TqCACAiqUc3EbPhtL0alJ8wsJ+1BAAAkAA36xdt6G9TWGDQLOEsrh85aqOWgIAoOIcOHiooRL+0bOh5LQiZfOWIGoIAAEggG+OHD3mS3OE8rxZXpq0oju1BABAxYmLXzDATu0gVFonehCUyomTqXWpIQAEgAC+uX7jhppREpT9dDmdCOs3IIFaAgCg4vQK67e4YP8/ejaUrle7feeuLTUEgAAQwDcvX736gbfJKM/m0g39m4g3b9/+lXoCAMD4njx99rPOufYHe/ACJaHWOYt37959Sx0BIAAEoOfm6X2aphJlPQhE/kw9leZJLQEAYHzHT6Z62al1QqV1pP9AqXq0uj4NTlBDAAgAARRpF9JpnS0HgaAM5OpRuSfRwsWJfaglAACMb2rMjDGc/ouy7NPcpVvPJGoIAAEggCKjxo6bTmOJsgWAjvp9APsNGBRPLQEAYHwBTVvs4UUtyrJNy4TIqEnUEAACQABF4hMW9ivYWNqBpgllGjFxcnUTz54//4l6AgDAeLIePPiV/gxlPahtceKyXtQRAAJAAEW2bd/RQu4tw8lyKOsqQHn9HD58tB71BACA8SStWNmF1X8ofQCo0/dme/buC6COABAAAihy4eIlJ/3m0ho2l0bZx0zGh0dGU08AABhP995hS5nSQKlfzmoKXs5euXpNSx0BIAAE8MF4iY3qfZBD44SyjAHX8a53knoCAMA4nj57/i/veo0E+zSjLAeAyD/Ozn5UnVoCQAAIoMiLFy//7l2vobChwUQ5nb9w0ZmaAgCg/OT4pgxyCvZz4wUtSjeZ0dC/iXj1+vX31BIAAkAAHwjt0mOl0mTSPKGszea0GTNHU08AAJRf1OQp4fotWrRO9Boo1f5/sifr3rPPUuoIAAEggE+MGT9hKvsAonynzWlFy9Ztt1BPAACUz5u3b/9a3y+A6QyUef+/8ImToqglAASAAD4xf0FCf7uaDrxlRrn2AZTXT3r6eRdqCgCAsjt95qybDHHkai76DJQqANQ6CdnTL1yc2IdaAkAACOATm7dua1UwZsIKQJSj4VQ7iAULF/WlpgAAKMf4b/SUcA7/QFleyBaMAOvE9p27mlNLAAgAAXwi7fRpd6XJZKNplGcMuEOnzmuoKQAAyq6uT4MT9GQoz0TGuXPprtQSAAJAAJ/IevDgV09vX/aaQbkPA5HX0I2bN1XUFQAApXf8ZKoXPQXKcyhbXZ8GIvvRo+rUEwACQACf1TSw1U7GTVDuVYBqnZgXFz+ImgIAoPRGjB47g34M5QkAA1u12UotASAABPBFXbr1TLLVbzjtQBOFco2e1Gvkf5iaAgCgdF68ePn3eo38BQEgyvMitkfvvonUEwACQABfFDWZDadhPHJfSeoKAICSkwc3FBzkwMtYlH0F4PSZs0ZRTwAIAAF80foNm9rK/dvYcBrGaD5Hj5swjboCAKAU47+jxsywU+uESuNIT4Ey27pteyD1BIAAEMAXpaefdyH8g7ECQN+G/iI3N/dHagsAgOLJQxvUOmfB6b8obx927fr1mtQUAAJAAF/0+s2bv6m0TjRPKDeV1lHYqnRi46bNbagtAACKtzJ5dah+9Z+W1X8oO42jy1XqCQABIIBiNfBvfJAxYBglANRvQh3GJtQAAJRAQJPme2zs6cFQ9oPYpKaBrXZSTwAIAAEUa8DgoXEcBAKjjQLba0VGxq0a1BYAAF8mD86id4AxtmAZOWZcDDUFgAAQQLESFi0Ok6ObnD6H8pLXkLyWYmbNHkltAQDwZcNHjp7JC1iUu+9S68TyFSu7UlMACAABFOvY8RPe7D8DY3Jx8xR5eXnfUV8AAHzqflbWb67udYUNASDKs/2KxlHIHv7M2XO1qSsABIAAStSEKg0oe9DAWPvRyI3NqS8AAD4zfbF4SVjBy1cOYkPZ+62CVYA6IU+Tpq4AEAACKNabt2//2rhpC8EYCoy5H01QcPsU6gsAgA+9e/fuW7+AZvRdMEq/1bJ1W5Gfn1+N2gJAAAigRAYOHhYr925jDBjGWgFoo9KII0eP+VJfAAC8t3f/AX+2XoGxxn9Hjh7LASAACAABlNzcuPmD7dQOjKLAaE2p3JR68NARc6kvAADeaxvSaX3RyzJ6BpS119I6CbuaDkIe5kddASAABFBi23bsbCEDG7mPCE0VjLEKsGCsSSuu37ihpsYAABDfpJ5K86RPgLH6LPlz7779/tQWAAJAACV2+epVnYOL2webCgPlYa9xEHKsfFx4xGRqDAAA8U3PPn2XsPcfjHUAiDxJOiPjVg1qCwABIIASkxtSBzRpzobUqJARlUePnvyHOgMAWLMLFy852Rfu+8fLVhjjAJCmLVrtpLYAEAACKLXuvfoslSu25MotmisYs0GdGD05ghoDAFizsRPCpxQc/sF+yzDOlEW/AYPiqS0ABIAASm323HlDWQEIYweANiqtcHXzFA8ePPiFOgMAWKOMjNs1lJV/rP6DMUaApYWLE/tQXwAIAAGU2qFDR+rTVKFCTqlT68SMWXNGUGcAAGs0csy4GF6ywthOpaV5UF8ACAABlFpOTs4/OAUYFbVRtZOrm3j8+Mm/qTUAgDW5dfuOHav+YGxqnbN4m5f3F2oMAAEggDJp6N/kgA3jKaiIvWrUOjEtZuZo6gwAYE2GDh81m9V/MPb4b8ug4C3UFwACQABlNnrchGk0qai4cWBHcT8r6zdqDQBgDc6fv+Cs9FS8XIUxD1iLnjptPDUGgAAQQJlt3LS5jdyvjVFgVFTDKvdBotYAANag/8Ah8/Un/2oc6QVgtJep8pravXdvY2oMAAEggDLLyLhVQ4Y0cmSTJgsVsRdgjZoO4vKVqzrqDQBgydJOn3anp4KxeynlhWrm/fu/U2cACAABlNmr16+/b+DfWNgwBoyKeGutcRS2Kp3oP3DwfOoNAGDJ2ncMXcu2KqiIaYrmLVuLd+/efUudASAABFAu+s2q5biKlnEVVNCBICqtOHL0uC/1BgCwRBs2pgQT/qEiXqTK8d9x4RGTqTMABIAAyi1x2fIedmoHodI60Wyhwk6va9y85W7qDQBgaV6/efO3eo38BQEgjL//n5OQPfqq5DWdqDUABIAAyu34yVSvj/dtAypihCVpxcou1BwAwJLMiY0bwsEfqKi9lOWEztlz52pRawAIAAGU27Pnz3/ybejHm2tUaAAo95ms5eElnjx99jN1BwCwBLfv3LVVJih4iYqKeHnqF9BMyD27qTcABIAAjKJTl+6r5GENnFyHCj0QRK0TY8ZPmErNAQAsQY/efRN5gYqK20NZJ7r3DltKrQEgAARgNLPmzhtGA4vKept9MvVUHeoOAGDOtmzd3pLeCRW9h/LCxYl9qDcABIAAjCb1VJonzRYqKwBsGthqJ3UHADBXr1+//puXb0O2T0GFu3T5sgM1B4AAEIBRObjUvkSjhcoJAXVizrzYIdQdAMAchU+cFCW/y+QBDXy3o6IOAKnl4XWWegNAAAjA6Lr17L1MGTeg+UJFN7Vyb5uLly47UnsAAHNy7MRJb2XlHz0TKnJiYuCQYbHUHAACQABGtyxpRTd5SAMHgaDCDwTROuob21Zt2m2m9gAA5iI/P79afb8AwQtTVOwBIDphp9aJ9Rs2taXuABAAAjC6y1eu6goCQPayQSWFgGqdiE9Y2I/6AwCYg8hJ0ZFy9Jd9/1AZKwBv3b5jR90BIAAEYHQvX776wae+X1HjQQOGypKeft6FGgQAmLKDBw81YPQXlRX+NWnRUuTl5X1H7QEgAARQIUaMGjNDjhyoNGxqjcprcv0bN99L/QEATFVubu6Pdbzr6b+z2CoFFTsh4aQf/5UHzVB7AAgAAVSY1WvXhxAAovL3A9SJiKhJE6lBAIApGjBwSJz8rmKbFFTK/n8qndiydXtLag8AASCACnPl6jWtg0vtD05rBSr6VGBlJeDO3XuaUocAAFOyMnl1KCv/UFmTEfKnm6eXuHsv83/UHwACQAAVqmVQ8BYaXVR2CCh/Ori4icz793+nDgEApuDS5SsOyncUL0ZR8av/HPRTEW07dFxP/QEgAARQ4cIjo6KUVVk0Y6js/QDbtAvZSB0CAKra27d5f2no34R9/1DpvdD0GbNGUYMACAABVLj9Bw42oglDle0HqNaJyEnRkdQiAKAqDR46Yq4MY+R3E9/RqExpp8+4U4MACAABVLi8vLzvtI4uNGCo0vGXNWvXd6AeAQBVYeHixX3kdxHTEKjs7VBc3DzTqUEABIAAKk33Xn2WykaE/W5QVQ2wDALPnTvvSj0CACrTgYOHGrLvH6pq/HfIsBFzqEMABIAAKs36DZva2ql1jL2gSptgL9+GIicn5x/UJACgMty6fcfOydXtgxNZgcraBkX23rv27GlCLQIgAARQae7dy/zDMIihMUOlN8IaR/21F9wuZAM1CQCoaC9fvvohoGkLwUFoqKrpB9n7PHr8+D/UIwACQACVKqRT59WcfIeq3Q9Qp98PcMCgoXHUJACgInXt0Wu5/M6h70FV9Tu9wvotphYBEAACqHTzYucPslM7CJXWieYMVXwoiFZMmzFzNHUJAKgIY8aHT5Wn0Ntr2PoEVTH+6yRkz71k6bKe1CMAAkAAle74yVQvZSyBMWBU5ViMMoq+YuWqztQmAMCYZs+dN5SVf6jq8V+1zlmcP3/RmZoEQAAIoNK9y8//1r9Jc/bCgck0x/Ln1u07AqlPAIAxLE9a2ZU+B6Zw8FlgqzZbqUkABIAAqsywEaNnybfiNMYwhQZZ+eMTqal1qU8AQHls3rqtlU3hlAOTDqjqADAiKnoidQmAABBAldm7/4A/zRlMLQRUax1Fevp5F2oUAFAW+w8cbPS5F0xAVTl95owbtQmAABBAlXKp7Z5uOIYJmMKhIFpHF3Hx8hVHahQAUBrHTpz0VhUe9kH4B1PY4qSOd72T1CYAAkAAJjAGPGoW++PA1EJAObblXMtdXL9xU02dAgBKIvVUmqfG0eX9dwnfqTCB8d+JkyZHUJ8ACAABVLlDh4/Ut1PrhErrSLMGk1sJ6OLmKa7fuEEICAD4qlNpaR4y/JPfHYR/MAWyt5Y9dtrpM+7UKAACQABVLicn5x+u7nUFY8Aw1RDQwcVNXLx4mXFgAMBnHT123EcJ/5hogCnta+zb0F+8fv36b9QpAAJAACZh+KgxM/WrADWsAoTphoAXLl5yol4BAIbkgR9K/8LKP5jO6j8n/eq/8ImToqhTAASAAExGyuYtQbaMAcPE9wRUa53E8RMnvahZAIC0bcfOFh98V/CdCRM5/EPZ/2/P3n0B1CoAAkAAJuPxkyf/ruvTgNEZmHYIaF8wor5j165m1C0AWLeVq5JDPx63BEzp8I8Gfo3Fq9dvvqdeARAAAjApffsPXGCr0vEGHSYeAmr0QWDy6rUdqVsAsE7z5scPkgELLy5hygHgiFFjZlCvAAgAAZjeGM32HS2UFVaAqW+qLRvrqTEzxlC7AGBdJkRMnCRfWCoBIN+NMFVHjh73pWYBEAACMDn5+fnVnFzdaNhgFnvrFNCJocNHzaZ+AcDy5eXlfdezT98lcs9iphVgyj2K/Onh5XOKugVAAAjAZMlRBcZpYC4Ntr1Gpw8BQ0K7rs7Nzf2RGgYAy5SVlfVr85athf7AMg0HlsH0x38nTZ46gdoFQAAIwGTJE1btOA0YZkReq7LR9qnfSJw/f9GZOgYAy+tNant4Fb344bsPpr1fsU4fVKenn3ehfgEQAAIwWa9evfrep14jTtSD2R0Oon8w1DqKzVu3taKWAcAyJK1Y1cX2k4OgANNe/dekRUsht9ahhgEQAAIwaZOnTh9XsArQiWYOZvXGXRkNltcwtQwA5m3chIjJtoUvI3kpCfOYSnASdmoHMTdu/mBqGAABIACTd+Jkal3DgxZo6GBO+wLKh0QZYHfo1HnNo8eP/0NNA4B5yci4XaNpi1Y75R6vyooqvuNgLod/yBDw/AW2JAFAAAjATAS2arOVw0Bg7vsCutfxFgcOHmpITQOAedi4aXMbtc5Zfw9nP2KY43Yk7UI6raOWARAAAjAbM2fPGU4ACHMPAZU38pFR0ZHUNQCYrtdv3vxt6PCRs5VVVBz2AXNcASgtWbqsJzUNgAAQgNm4l5n5ByM3sJTNuOUYWZNmgbsuXrrsSH0DgGk5duKkd71G/vqTU2sU4jsM5kitdRLPc3L+SV0DIAAEYFZCOnVezT6AsKSRYCkufsEA6hsATEPMzNkjldVTjPzC3F849u0/cAF1DYAAEIDZ2bx1W6uC04BpyGFZpwR379Vn6cOH2f+lzgGgaly7fr1mq9ZtN9sWBidy/zS+q2DOLxplz3zw0OEG1DcAAkAAZkeOMLi6eX5wshlg7vvzKJt0O9dyFytWJXem1gGgcsUtWDCghkHwR48Bc1/9Z6PSCt+G/kLuZUmNAyAABGCWIidFRxasAnSiyYNFndRXEAjqRJv2IRsvXLzkRL0DQMU6mXqqTmCr4K22hXv8sdcfLGP1n5OwUzuIGbPmjKDOARAAAjBbx46f8DY82YxGD5b0xv79yhOtmBYzY3R+fn416h4AjOvFi5d/D4+MipL32oJVfzp6CljMZIESAp6/cNGZegdAAAjArOn36FFpeVMPyx3dKVwN6BfQTBw+fLQedQ8ARtpPeMu2VnV9Gghlrz96CVjaRIG8rkNCu66m3gEQAAIwe/EJC/uxAhDWclKw/OPBQ0fMvXP3ng31DwBlc/nqVV2Xbj2T9PfVwlV/fNfAElcASqvXrg+h7gEQAAIwe0+ePP2ZPQBhTW/ylRG1qTEzxsjRNe4DAFAy2dnZ1cMjJ0Yp4Yhc8ceqP1gyJ1c38ebt279S/wAIAAFYhP4Dh8xndAfW8jZfuc7lAThevg1F8uo1HbkPAMCXydNPY+cvGKhxdNFvqaBsscD0ACx5CxF5fcv9LbkHACAABGAxTqWledjqTwN2pOmDVY0Fy9E1W7VWtAxqu+XAwUMNuR8AwIfWrlvf3qe+n/6lieFJ64A1TA1cvnJVx30AAAEgAIvSsnXbLQWjkTT2sNLTglVaEdql+8q006fduScAsHZ79+33bxYYtEPZOkGlcWTFH6xo32Cd6Ny1xwruBQAIAAFYnGVJK7rJt/uywaf5g7WO+ii69ey97MiRY77cGwBYm+07dzVvF9Jpna3BfZEtQmB1AaBaJ9Zv2NSWewIAAkAAFic7+1F19zreNPpgRaB+RWDBg69cEXjkKEEgAMu3c/fupkHB7VNY8QdeCGpFfb8A8fLV6x+4NwAgAARgkYaNGDWLALDiDp8wXEnx8YozHrJMcfxH+VwKgkC5Vyb3CQCWZseu3c0aNw/cbfgdJU9K57sA1hwARk6KjuT+AIAAEIDFOn/+gjPNX9lPlpUrx74Ynn4U9hUX/n381yQgrNoTgws+J50Ibh+yYd36De3evXv3LfcMAObqyZOnPycuW96jWcugHXYfjfryfQNoxK3bd+y4VwAgAARg0QzHf2gAiw+IVFongyDv/YOTfIhS65yF1sn1Si0Pr7N+Ac32tWrTbnOnLt1X9R84eL7UrUfvZXKD6cCg4K11vOudlH+usuri/V9PV/RQJv9eHNJSdZ+1/Gz0n4taJxr4Nxbz4uIH/fnnn//HfQOAubhz957N+IiJ0Z5evkIJ/pQVz9zrweq/gpro3qvPUu4XAAgAAVjF5t/6w0C0HAZSXJMof9oV/vRr3Fz07NN3yZzYuCG79uxtcu369Zq5uS9+LO3v/35W1m+pp9I8V6xK7jxq7PjpbTt0Wl/Xp4G+IbVTO3ywMpAHtsonf++G48E659oiKnpy+K1bt1kpAMBknT5z1q3vgEELDLekkHv88VIJMPyO1+lf8h07fsKb+wYAAkAAFu/Nm7d/rdfIXz+yyl6AX9vLTyccXNxE9JRp44+dOOn95u3bv1bUZ5KdnV394KHDDebMix0iA0FlFZqNwWpDPquqWSVQcE3ohK29RvTp23/h5i3bWr1+8+Zv3EsAVLUHDx/+krRiVRf994b6wxXqfGcAn77gkzXSqnXbzdw/ABAAArAa8QkL+9kVjpzSFH4Y/ik/x4dHRj95+vTnqvh8bt+5a7tk6bKejZu22P3Bag6tEw91VRQG6gNBdcHIdgO/xiJi4qSJNzMy7LmfAKhs8qXUwMHDYt08vYvGfL+6Ry2AglOv1TqxclVyKPcRAASAAKzG/ftZv7m6ebIK8DPhn/ydJK9e29FUPqv09AsuI0aPneFex7toHJnx7ao7OVhZQaBcLyGdOq/euWtP09zc3B+5twCoKFkPHvy6dHlS9wZ+jQ8WfWcx5guUalW/3HIlJyfnH9xTABAAArAqw0aMmmVLAPhJcxgRNWmiKX5e2Y8eVU9YtDisjne9oiCQMa+qXRGoPITLz6OWh5eYEDFx0s7du5u+ePHy79xjAJTX02fP/7VhY0pwvwGD4muotUX3fu7/QNl6vInRkyO4twAgAARgdS5cvOREU/jp5tDZ2Y+qm/LnJsMlueeTPOFRWYUmV4Dw+VXlSdGORQfGyP8s99gcNWbcdDYZB1AW+/Yf9JMnyXv5NtSPLL4f89VxOBRQjhAw8/7937nHACAABGCVOoZ2TTYcZ7Tu8V+t8PT2STWXzy4///9VmxcXP8i5lrv+AdHw0ApUURCo+XhEWB8GHpYnR1+6fMUhLy/vO+47AD72559//p98YSBPhnep7ZFedPhQ4QsG5WRy7rVA2Vf/DRw0NJb7DQACQABW68jRY762+sNAHAkA7TXCw8vnlLl9hpn3s34fPnL0TCV0Igg0rRHh9w/yOhHQtIWYPHX6uL37D/gzJgxYt7v3Mv+3fsOmtsNHjZlpeJgHI75AxZz+m55+3oV7DwACQABWrXW7DpuUEwQ55MFRPHn67Gdz/BxTT6V5NgsM2qE8QMpRMRp/0wiXZW0pDyDKQ359vwDRf+CQ+Slbtgbl5r7gABHACty6fcduwcJFfTt27pashH6GhzsR+AHG7+vkC7juvfos5R4EgAAQgNWTG4zL5ohVgAUr6JJWrupizp+nHAv+eG86mM7KQJXWqWiVpqw75QGlVZt2m2UwIPfmfPX69ffcmwDz9+TJ059Ppp6qM3V6zJj6fgGHlO8Zw9qXWwewahuouBdw8qc8oIt7EgACQABWLz8/v1pD/ybC2k8EVkKZxs0Dd5v7Z5p25oy7f+Pme+VDJiPBpvlQ8umYsFa/l6Pk29BPyL3A1q5b3/7a9es1uU8B5kGG9ydSU+vGL1zUr2efvku0Tq7vR3sL78OGoQT3Q6Di+7oWrdps4/4EgAAQAArNX5DQ39oDwKJREbVOJCxeEmYJn2vkpOjI9yPBjHibx6iwruhEYcnJ1U00b9l6+7ARo2atW7+h3Z0792y4ZwGm48yZs7Xj4hMG9OgdlihfphXUr8MHq/x4EQNU3WTHquQ1nbhXASAABABl1cKrV987urjRLBY+oGkcXcTVa9c0lvDZbt22PVA5QZKRYDMaFdYUjAa+f4jR6VcQyf/NzdP79OChI+bKFYI3b2bYMzIMVI6nz57/6/yFi86LE5f26tKtZ5KTq9sFwxpVvkPkqL8M8wn9AA53AwACQAAmZ8asOSPk6jdrPzxCWakR0CxQ5OXlfWcJn+2ly1cc/AKa6R9QWQlovuPChmHCxweKDBg4JG7e/PhBe/buC7h167Yd9zSgfOThPGfPnau1dt3G9pMmT50Q2rnbSrkit6DuPq1HeW9lpR9gOhMdslaXLk/qzv0MAAEgAHwkO/tRdblfkeGbU2ul7M8k93CylM/35avXP4T1G5Bgq2b/KUsJBWVYrw90C/cPLBg71ApX97pCngjdb8Cg+IRFS8KOnTjp/ez585+4zwFfJlfTbtu+o0VU9JTwkNCuqxv4N9av5FPG8d+v7nPkHgqY+IvcwtV/Ijc390fubwAIAAHgMyZPnT5OPuiotU68PS7cD3DQkOHzLOkzlitZlNUrPMBa0unCjkUnDH9uJNFe4yhqeXidlWOLc+bFDtl/4GCju/cy//fy5asfuPfBmsiTeeUWD3J7hOip08bLsM/Z1f28rcEhHR+M82ocC0d6Cf0A83iJW7D6T66K554HgAAQAL5Ajg7qnGuzCrCoiSw4lXXIsJFzLOlzXrBwUV/l87X2g18sddPzghWCnwYWyv+urGiSJw5369l7WURU9MTEZct77Ni1q9m5c+ddZUjCPRHm7MGDB7+cPnPGLWXL1qDZc+cNHTp81Oyg4PYpco9Xw1V9H9eIUjuM8wLmu42Lm6eXePzkyb+5FwIgAASArxg5ZlwMJwJ/uo9M1x69llvKnoDSug0b2308LgPrCQeVk0lt7N8HgnY1C04ulaudvOs1Ei1bt93Sf8Dg+bPmzB22cdPmNqfPnHV7/JgHKpgOeU++ceOmat/+g35Lli7rOT48MlqucpUnZ3t6++qDPDtlPP6TMV4dIR9goQGgnGjhHgmAAJBfAoASrALkgejjENBJH4y0DAoW9+9n/WYpn/XuPXsbK+EfIaD1PizJkMRwzNEwLHwfmrwPTpxruZ9v1brt5mEjR8+KjY8fuHnLtlZypZUcKX727PlPb9/m/YV7KYx1EMfDh9n/vXL1mlaGfMtXrOo6MXpKRNfuvZZ7+TY8/unYu8E1axD2yT9PCb35fgMsm1zly8sqACAABFBCQ4ePnM0qwM8fDOJS20McOnSkvqV81gcOHmpoX1MeJKHhhGB8cvKwMgr5pdWEMhh/P06pE86u7qJJ85aiR+++if0GDI4/ey69FvdUlMa0mBmj+/Ttv7BdSKd1Xr4N9deb4TVWNLb7mfF2w2uWsA+wxj5NJyZNmTqBeykAEAACKCF5GqLhKAWN5fvmUv/HKq2QY5GW8nkfOXrcV6VzYiUgynASsUPBCsLCk1GLVhbWdBDyFGJLGptH5di5e3dTZSVf0SpsjWPRqdc11BxiBODT7yT5U61zFg8ePvyFeykAEAACKIVRY8dPlysu5IMXzeWHI5MFzaZOhHTqvFqOPVpKCKgEOISAKPO4vMZR/yA2NWbGGO6jKCs58uvq5qlfmSzDZWoLQHFbtcielb3/AIAAEEAZXL5yVaeEf6y0+PRNszISrHVyFcuTVna1hM98z959ARwMgvKemh0VPSWceyjK6+q1axoHFzf9imu2JwBQ3ItZ51ruIjPz/u/cPwGAABBAGQwbMWoWewEWPxIsQ48OHUPXyFUr5v6Zb9iYEvx+fzeCX5R85Z9cfTEhMmoS904Yy/nzF53lSB8vJQAUd/LvxOjJEdw3AYAAEEAZZWTcqsFDV0lOUX2/V6I8ofJ5Ts4/zflzT1y2vAfBL0q78m/AoKFx3DdhbMdPpnqxMhlAcSf/Pnr8+D/cMwGAABBAOfcCtGUEq+R7A6p1opaHl1ixMrmzOX/ucg83/R6Q7L+FEpyOLVfAcr9ERVm/YVNbViYD+NILKPadBQACQABGIA+5UB64ePAqWTOqBIHB7UM23LhxU2Wun/2gIcPn2XIQDL42Aq/Sijre9cTTp8/+xf0SFWn6jFmjeBkF4OOTf51c3cTjJ0/+zX0SAAgAARhB1OQp4Xb6UVeCoNKOBcs/XrN2fQdz/ezbtAvZyDgwvvTgJZ0+c9aN+yQqQ1i/AQnyBHblRQsA9p6dMy92CPdHACAABGAkDx4+/MXZ1Z09mMp6SIhKK8Ijo6LM8bN/9Ojxfzy8fPQrvfjs8eGm6zqxfMWqrtwjUVlevnz1g299P8FKQIDvINvCFei5ubk/cn8EAAJAAMYcv5pZMH5FCFT6lVL6RlWtEyGdOq9+8eLl383tsz+VlubxuZVfsOI9l1RaMWAwh36A+xGAqgsAFy5e0of7IgAQAAIw+sqLlz+4uHnSeJZjVEU2q/5NmonHj81vr5qkFSu6FIWZPHRb/aEfXr4NhTmG2bAMcQsWDJAvVXghBVjvFhRevg2Pcz8EAAJAABUkcXlSD06GLX8I6FPfT9y5e8/G3D7/ocNHzmb0zrofuhR79+/3556IqtS6bYdNrEoHrLCX0hbs/bdhY0ow90IAIAAEUEHe5uX9pb5fgOChq/zjk+51vEVGxq0a5vT5v3v37tuG/k34/K185GrkmLEx3A9R1a5eu6ZhFBiwzlXoga2Ct3IfBAACQAAVbM3adR1s1ZzCaIyVgJ7evuJ+VtZv5vT5X7h4yYmHbusduXLz9Gb0FyZjbmzcYFtWpQPWtaeySit27t7TlHsgABAAAqgErdq028wqMOOEgHJF5bNnz38yp89/0eLE3vIEWB66GbkCqlrjpi12830EWM8q9I6h3ZK59wEAASCASnLw0OEGyl5gNKXlC1Xk77BJi5bi9Zs3fzOna6BdSKd1PHRb19h6SGjX1dz/YGp27t7dlHsRYD0r0c+cOVubex8AEAACqETde4ct5aHLWCsBdaJDp85rzOnzv3kzw16tdeIztJIHLunU6dMe3Ptgirr06JXE9xFg6Xv/6cTQ4aNmc88DAAJAAFW0ATsrAY3R2BaMVw4fOWamOV0DS5cndWf/LesYuRowcEgc9z3wfQSgql5EqTRO4s7dezbc8wCAABBAFZgQGTXJTh8AsRLMWG+35y9I6G9O10Cnzt1XyeacENCyH75uZtyy554HUzZmfPhUvo8AS9wuxUn/knTajJmjudcBAAEggCry4OHDX1xqewgbRq+MErIotu/c1dxcroEbN26qlAduVt5YZig9ZvyEqdzvYOouX7mqk6upuRcBlrcKvY53PZGTk/MP7nUAQAAIoArFxi8YyN5Lxmt0lZHg6zduqM3lGpgTGzdEXgMyMOJztKxAWv4xq/9gLuT+YHwfAZYXACatXNWFexwAEAACMAEN/ZscsGHvJaOeuBrQpLnIz8+vZi7XQJMWLXfx4G1Zh9PIkatRY8dP5x4Hc5GRkVGD+gUsK/xr2brtFu5vAEAACMBE7N23358VYMbc76bgZOBhI0bNMpdrIPVUmicBoGVtuC4/y7Pn0mtxj4M56dO3/0LuRYClbEOhFSdTT9Xh3gYABIAATEivsH6L9SfCajgMwnhvvnViWdKKbuZyDURMjJooV43Zcw1YxKqL0C7dV3Jvg7k5lZbmYccLKcDsV6HLnnLo8JGzua8BAAEgAJPbgP2KTjkJllFg463Cki5evORoDtfAq1evvveu11Cw+sYy9v8zp8NoAENtO3Rcz6p0wLz7HwcXN3H7zl1b7mkAQAAIwARFToqOlKvWCH+MO/7StEWrneZyDRw5eszXlv0gzf7By6e+31HuaTBX69ZvaKdfka5lNTJgrhMQM2fPHc79DAAIAAGYqJevXv/g6e3LKkAj7wcox2rHh0dGm8t1MH3GrFF2PHybb+is1omFSxL7cE+DucrJyfmHd71GrEYGzPEllEor6vsFHOJeBgAEgABM3OYt21qx8qJi9mQzp5HM1m07bJL/zFwH5vXgpYQl9zIz/+B+BnM2fOTomQSAgHlOPuw/cLAR9zEAIAAEYAa69ey9TI5vEP4YLwC0UWmEex0f8fTZ83+ZwzVw48ZNlX3h588DuBmdPq3Wib79By7gPgZzd+Jkal3qGjC/gz8GDhoayz0MAAgAAZiJy1eu6pTQh1FgIzfGg4eZTWO8bv3GdqzAMb8AcFPKltbcx2AJ5Bgh30OA+ew/q3VyFXfu3rPh/gUABIAAzMiUaTFjCX8qZjQmZfPWIHO5DqImTwlnNaj5jJnX8aknHj1+/B/uYbAEcfELBsj7D6cBA+bxHRQ7f8FA7l0AQAAIwMy8e/fuWy/fhvrNnFl9Ydw35C61PcSTJ09/NpdrISS062r2AzSHcFknevQOS+T+BUtx9do1DQEgYPq9jeTfuPle7lsAQAAIwEzt3bffXzZ1PHwZfxWgOe2R8zwn5591fRsIrgXTP3lx7boN7bl3wVLk5+dXa96yNacBA2aw+u/Y8RPe3LcAgAAQgBmTe9bpTwXWsPrLmG/KpZ27dzc1l+vg/IWLzkr4x4O4qe4B6CRyc3N/5L4FSzJ95qxRdmoH/fVNnQOmub/x6HHjp3G/AgACQABm7sGDB7/IkVWCH+OvAvSp7ydevXr9vblcC/sPHGxkUzjGzLVgeqFyh46d13DPgqU5cuSor+F1Ts0DprXyz9PLV8hJAe5XAEAACMACLF+xsisjWBVzYmvExEkTzelaWL1mXYjhKkY+SxMJlNU6sWTpsp7cr2BpXr1+/X1D/yaMAQMmGgBy8jwAEAACsDAdO3dL5gGsYg4FOXPmbG1zuhZi4+YPVK4FQkBTCQC14srVa1ruVbBEvcP6LeIwEMD0Jhl69OHgKQAgAARgca5dv17z4+AKxnl73rpdh03mdj1ETpocKR/ICQFN4xrya9xMvHn79q/cq2CJ5OpWVh0DpvXyUu7Lefde5v+4RwEAASAACzQnNm6I/kAQLQeCGHt8M2nlqi7mdj1ERE2ayErAqt+A3U6tEyNHj43hHgVLdfXaNQ33GMC0tjBZnLi0F/cnACAABGDBmrdsvZ1RYOOu4JI/nV3dxZMnT382t+thUvSUCYSAVXvyrzwhNWmF+QXIQGl4ePmcYgU6YBqrztt26Lie+xIAEAACsHDnzqW78hBm7FWAsqHWiXETIiab4zUxeer0cfKfnxG9qhnDkj9PpZ324P4ESzZk2Mg5vHwCTGNyQW4Lw30JAAgAAViBmbPnDrdjFLhCXL58RWeO18S8uPhBSiDFA3rlrsSo7xcgcnNzf+TeBEu2YlVyZzl2yEEgQNWN/sreb8HCRX25JwEAASAAKxwF5mHMuGFO5649VpjrNZGyeUuQ4apGPtfKOIVRJ0JCu67mngRLd/78BWdePAFVuO+fSiuC24ds4H4EAASAAKzMmbPnanMqsHHHOZUQcM/efQHmel2kpqV5ap1c9f8ePKhXTmgcHjkxinsSLN3Tp8/+Je8tfOcAVbfdxKXLVxy4HwEAASAAKzQ1ZsYYuQKJVYDGXNGlFc0Cg3aY83VxM+OWfUP/JoLDQSrhoUylFes3bGrL/QjWoEPH0DWsPAeqZrX53Lj5g7kPAQABIABGgdn3zZhjNmqdWJW8upM5Xxd5eXnfDR46Yq58aGAkuGJDwCtXr2m5F8EahE+cFKUfA9awuhiozBeTbdqFbOQeBAAEgACs3MXLVxwZBTY+V/e64tWrV9+b+/WxdHlSd+XaYCTY+DSOLle5D8FayPuJndpBqLRO1D9QSaO/MgS8eTPDnnsQABAAAsA38QsX9ZMrvQh4jLu326TJUydYxH6RZ87WDmjaYo9d4b8Xq0WN82AmNQpotp97EKzF3n37/dlaAKis1X86/ejvsqQV3bj/AAABIAAUCenUZTV7MxkvALSx1wrnWu4iMyvrd0u5RqbNmDnacDUgD/DlD4kHDh4Wy/0H1uLy5Ss6nXNtVpwDlTT627lrjxXcewCAABAAPnD7zl1bjaMLjbPR9gJ0EnLF3OSp08dZ0nVy7tw518bNA3fbqXVFDxl83qWn1jnrV2bMnD13OPcfWIvnOTn/9G3ox0pioBJGfx1caousBw9+5d4DAASAAPCJ5NVrO8oDLDjwwXgNuAwC79/P+s3ixsYTFvaTgbEyyspIX/HXg+HvSIZ/8o+PHjvuw70H1iQouH0Kq82Bij/1d+OmzW245wAAASAAfNGAgUPi9PsBckqjcZpwtU5ERE2aaInXyoOHD38ZNnLMLDnuXBR4ct18EvzJEFgJSiUXN08xY9bsEXfvZf6Pew6sTa+wfosLXjQRAAJGnz7QOOr7jmEjRs/ifgMABIAA8FU5OTn/8PJtKGwY0TLqRtyZ9y1nL8CPnTl7rnb33mFLZbhlV/hgb+3XjuGpycq4tFz5lLQyucu7/PxvudfAWkVOio5kBBiouL1l5Zj9y5evfuB+AwAEgABQrKPHTvgoq5Voqo3TkI8aO366pV83MggcNGT4PMNrR/77W8N4cI2PVjQpYaiHl4+YMi1m7InU1LrcWwDxzcLFiX34fgEq7nT54ydTvbjXAAABIACUWMzM2SPlGImyignlORFYI7ROruJmxi17a7h2Ll667Dhi1JgZap3LB6OvchTWklb91NDXh1PRaYvKvn7ysw7rNyDhwMFDDXNzc3/kfgK8t3X7jkC+GwBjHzzmqP8Omj0vdij3GQAgAASAUmvTLmSj4SgjyncicMys2SOtbZx8zrzYIfLUYBvV+1FYJQg0txVAytiiHOlW/vnt1AXhn099P9G3/8AFKZu3BOXmviD0A74g7fRpd74XAGOHf1rRLqTTOu4xAEAACABlcvv2HVt50qvhSjaU/URgN09vYa0rwg4fPlpvYvTkCLm/pJ0S/qne/36UfQNNIRRUgr7PjS8ro73yZ2CrNmLipMkRO3fvbirDTu4ZQPEyM+//zknzgPGnDDhYCgAIAAGgXDalbGnNhu3GeUMvg6Pk1Ws7WvP19OLFy78fO37CWx4E4FPf7+j7fYveB23ydyVXCcqfynhtRYZ98u+h/D3tC08xfj+6rDMMcE8PHjpirlzld+fuPZv8/Pxq3COA0nn37t23ap0z3wuAEfcZ3rJ1e0vuLwBAAAgA5TZuQsRkGYQwClz+VYAN/Bof5Jp67+q1a5qERUvC+vTtv1COCju4uAk7lU7Y1XQQtgar7/QhncZRP36rrBY0XKH3JYZ/nvz/FdDp/1pKqK3/c9U6/TivXeGfW9engWjVuu3mocNHzk5auarL5StXdHxegHE4uLhd4nsBMMLor1onwiOjorivAAABIAAYTfOWrbezH6BxTujbs3dfANfU512+clUnVzLMi4sfNHzk6JlBwe1TXN08i0Zv9eO3+tDv68Hf5+kKgz5d0Rivex0fIfe6lCv7ps+YNWrdug3tTqWleWRnP6rO5wFUDC/fhscNX4wAKNu+f/JFFfcUACAABACjunnzpr3cY4aHtvKP6vTo3TeRa6rknj1//lPm/fu/nzt33nXbjp0tli5P6j577ryhEROjJw4aMnxe1x69lnfr2XtZh46d1wS3C9nQpn3Ixs5de6zo3qvPUnkwx8gx42KmTIsZGxe/YMDqNetC9u0/6Hfp8hWHzPtZv7N3H1B1L5T4LgHKvu+fzrm2uHXrjh33FAAgAASACtgPcDP7ARphDNjZ1V3cuk3TDsA6de7afQUBIFC+l4kbNqYEcz8BAAJAAKgw48Mjo+X4JKPAZR3bcdKPny5cvLgP1xMAazRg8NA4XiYBZT9QbELExEncSwCAABAAKpzcl63g9FQe3kpLOdW2RavgbVxLAKzRuIjIyQSAQNn2/ZP71nIfAQACQACoFPfvZ/3mXNvjg71oUPqT+w4dPlKf6wmAtYmeOm08ASBQ+n3/nGu5i3uZmX9wHwEAAkAAqDT79h/wYw+n8p0GHNy+4wauJQDWZlrMzNEEgEDp+wbZe3EPAQACQACodHHxCQNs2Q+wHLTixMnUulxLAKyJPMXbVqUjAARKtHWITj81MC9u/iDuHwBAAAgAVaZXn76L5YMcIWDZTvHr0btvItcRAGsSO3/BQPm9IfdE5fsAKH7fv15h/Rdz7wAAAkAAqFIvX776ob5fgCg4FISHudKM8yg/z55Lr8W1BMBaJCxaHEYACJTs0DDfhn7ixYuXf+feAQAEgABQ5a7fuKFWa50+CLZQ8sNA+g8cPJ/rCIC1SFy2vAcBIFD8S0I5/nv5ylUd9w0AIAAEAJOxfcfO5som1YSApX/DfyotzYPrCIA1SFqxqot8+UEACHz5wA9J9lbcMwCAABAATM6sOXOHFazqYGP30jb6rdq028w1BIAAEGA6QNbHzDlzh3O/AAACQAAwWWH9BiRwKEjZDgRZsSq5M9cQAAJAwLoP/ejZO2wJ9woAIAAEAJP27t27bxs3bcGhIKUMAOVP9zo+4snTZz9zHQEgAASsc0sQ/yYtRF5e3nfcKwCAABAATN7tO3dtnV3dhQ0hYMnf+msKRn5Gjh4bwzUEwJItT1rZlQAQ+DD8kz2Tcy13cev2HTvuEwBAAAgAZuPI0WO+H59mh5KNAu/ff7AR1xAAS7UsaUU3TgEGPtwLWP7x4cNH63GPAAACQAAwO8mr13aUTa0y4oriHwLkTzdPb/Hs+fOfuIYAWKKly5O6EwACH778kytjuT8AAAEgAJitqdNnjLFTcyhIafcA6tt/4AKuHwAEgIBlH/ohe6So6Cnh3BsAgAAQAMxe/4GD58v9nuQ+dzT8JV0NoBOLE5f24voBQAAIWO7evz379OPEXwAgAAQAy9GydbstnAxculFgG5VGnDiZWpfrB4AlSVy2vAcBIFjtrxVNmrcUb96+/Sv3BQAgAAQAi/HwYfZ/63jXE+wJWPJVgPKnh5ePyH70uDrXEABLsWTpsp4EgLDq73eVVrjX8RGZmfd/554AAASAAGBxLl2+4qBxdPkg4ELxG4O3bN1W5OfnV+MaAmAJ5PYGBICw5pd78tpPT7/gwv0AAAgAAcBiHT58tJ5N4Yhr0agrit0jiENBABAAAua9vYdi1+49TbgXAAABIABYvPXrN7ZVRoEJAUt+SuD48Mhorh8ABICA+R7wlbRyVRfuAwBAAAgAVmP+goT+cmWbshE2Dwcl2DBcrRMRUZMmcv0AMGeLEhN7EwDCur7Ddfrv8OkzZo3iHgAABIAAYHXGTYiYrISAPCAUPzokVwLKh+apMTPGcP0AIAAEzCf8Gz5yzEzqHwAIAAHAasm97XgQLHkI+H4lYDQrAQGYpYVLlvThvg+rWb2v0opuPXsvo/YBgAAQAKxeh46ha5RwiweGko8Djx43YRrXDwACQMBEV/6ptKJVm3YiPz+/GrUPAASAAGD1Xr9+/bcmzQMFIWDpTwfu2TtsyZu3b//KdQTAXCQsXhJGAAhrWPnn29BPPM/J+Sd1DwAEgACAQk+fPvtXXZ8GhIClXl2gE00DW4nM+/d/5zoCQAAIVH34Z6PSClf3uuL+/azfqHkAIAAEAHzk1q3bds613AkBS7MSUH8wSMGDxtFjx324jgCYugWLFvclAITFhn/2GqF1dBGXr1zVUe8AQAAIAPiCS1euOGgcXfRvz3k4LN0DhwwC58XOH8R1BMCUxS9c1I8AEJamhlpX9F18Ki3Ng1oHAAJAAEAx0s6ccVcaaR4QS/7gIR865L6AXXv0Wp6d/ag61xIAk1wBuHARKwBhkeGfdPDQ4QbUOQCAXwIAlNCRI8d8P9dYo2T7AspR6k0pm1tzLQEgAAQqZ+Xftu07WlDjAAACQAAopR27djeTo8CEgKXfF1B5GBk0ZPi87OxsVgMCMJ0R4ISFjADDItgW9ijy57r1G9pR3wAAAkAAKKP1Gza1tSUELNOKhIKxYJ2QeyomLlveg+sJgCmYvyChPwEgLCH8U/AdCwAgAAQAI1ixMrmz4Vt2HjzKckCITrRs3XbLidTUulxTAAgAAeOEf3HxCQOoawAAASAAGMmypBXdCAHL/qAiH7SVhxV5SMj5Cxedua4AVIW4+AUDCABhCeHfrDnzhlHTAAACQAAwssWJS3sZNt48iJTxpOBCw0eOnnnp8mUHri0AlRoALkggAITZhn/Kd2nMrNkjqWcAAAEgAFRUCLgkkRDQSPsD2ql1QqV1Er3C+i0+fuKkF9cXgMoQO3/BQAJAmHP4N3nq9HHUMgCAABAAKuXhkRCw3KcFaxw/GGdqF9Jp3b79B/zevH37V64zAASAwMfhn05ETZocTh0DAAgAAaDSHiDji0JATgcu/0ON8sdyVWC9RgFi1py5w86cPVebaw2Asc2Lix9EAAjz20dXJ8Ijo6KoYQAAASAAVLL4hIX9WAlo7IccGQbKINBB/8AT0qnz6oRFi8My72f9zjUHwBjmxs0fLMMUXt7AnMZ+I6KiJ1K/AAACQACoIgsXLenD6cDG3yNQ7g1oOB4sw8Dg9h03rExeHZr14MGvXHsAyhsAsgIQ5nLa78ToKRHULgCAABAAqtiSpct6KuEfK0oqZuWD4Yiw/ONOnbutkg/xR44c883Nzf2R67BkHjx8+Mvxk6lemffvs6ISrADkfg0z+P6bGjNjDHULACAABAATsSp5TSdCwMraB0lbGAYWrN6p7xcgunTrmTRj1pwRBw4eapiTk/MPa78e8/P/X7Vr16/X3Lpte+DUmJljevQOS2zesvX2Ot719L+7RUuW9qZuYa3mzIsbwgpAmMPKP8I/AAABIAAQAlp9ECjHhN8/KL1fKWivcRQy7IqcFB25bv3GdufPX3B+9Ojxf969e/etpVxreXl53z15+uznjIxbNeQqyBWrkjtPmjJ1QvdeYUt96vsdVeucPzhcxfD3I38uX7GqKzULaw8AuU/DFL/flJ9z5sUOoV4BAASAAGCiUjZvCXofRLG6pLLGpOTv2vBhvigYVOv0Y8N2Kq0MBcXAwcNip82YOXr5ipVdd+3e0+TsuXO1srKyfpWBmums3suvJgNLuYJPjutu27GzhQzs5MnI4yZETO4V1m9x08BWQudcu+jfz7ZwVEx/7X20F6Xh70dZQbksaUU36hXWGwDGEgDCJPe/Vb6/EhYtCaNWAQAEgABg4vbs3RegNPSEgFUfDKq0jh+shJOjw3Y1C4IwtdZJeHj5CP8mzUVQcPuUjp27JYf1G5AwPjwyeu68uMFyZV3Klq1Be/btDzhy9Jjv2bPnal28dMXx9p27tg8fZv/38eMn/5Zh3ceysx9Vv3sv8383btxUXbx42THt9Gn3o8eO++zbf9Bv6/btgXK1aFz8ggGTJk+dMGzEqFnde/VZGhLadbX8Z2jcPFB4+TYUTq7uhf/cOv0/r/6fWx/0Ga521On//ZSAr7gTqZX/fenypO7UKqzVrDnzhikriblfwtTCP3nYFXUKACAABAAzcfzESS9ltRUPmaYTCMqwTI4OS0Wfi8F+S/pwzSBk+9yKuvcjyI76cWOV5v1Pwz82DOW+tsdTQSj54d/T8P+jjDvr6f+6ui/+dUu6txQBIKyZ3C9UuSdwf4SphH/yu2bjps1tqFEAAAEgAJiZ9PQLLvoxTUJAkw8GFfJzKulqOmNs8v65v6+iIv7+yl8zcdnyHtQoCAAJAFG1DHsDuS0F9QkAIAAEADN19do1jat73cIQkIdNmMbpkkuWLutJfcJaTZ8xaxQBIEwi/FNp9avJ5RYT1CYAgAAQAMxc5v2s3+v7BRACwmQCwMWJS3tRm7DeAHAmASCqOPwrWOXt4OImzp1Ld6UuAQAEgABgIXJzc39s2bot48AwiQBw0ZKlvalLWKupMTPGEACiqsM/9zre4ubNDHtqEgBAAAgAFubdu3ffdunWM0ke9qAcEMLDEKoiAFy4eEkfahLWasq06WMJAFEV5LivvPbkyfPZjx5Xpx4BAASAAGDBho8cPVOGgGU9yRUodwC4JJEAEFZr8tRp4wgAUTUr/3SidbsO4v+3d+f/OtaLwsf33mfv3dnzPg3IMmbKkDlCZAplnmeSeZ6SecqcDBEyJBKRIZQ5U0XKUCqUoiSlPP/Del5fUYq1rMUa7uH9w/t5zrDP2afvcN33/VnX9b2+++7C/9qLAAiAAHFgxKgxg3Kk85tmIckAOMsdgMT59VcAJIPfNh/iX4cnnpx56dKlP9qHAAiAAHEkvIn1avxzLiAZGQBnzJrd0R4kXg0fNXqwAEhGCGvscvzLWyBx0FNPj7D/ABAAAeLUa6vXPPrr40EiIBkTAJ+bOfMJ+494NXTEyCECIBkR/36+7hZInPrs9C72HgACIECce3v37pJFHijpDcFkYACcJQASt54ePuJpAZAMiX+58yUuW76inn0HgAAIwGUffXw8Z+VHaly+UyBP/vv9gCJdA+D0GTM72XfEqyHDRgwVAEnvN/3mv79o4pat28rbcwAIgAD8xtfffPOvRk2aLcmZt8DltwX6IUV6BcBnn5vxpD1HvHpq6PBhAiDpGf/Klq+U+P6hDwrYbwAIgAAkqe+AQWOvviHYD1TSIwBOm/5cZ3uNeDV4yNDhrq+k9bU1/OEu/AGvXsMmy7786qv/s9cAEAABuKlp02d09oZg0i8AzhAAiVvhbawCIGl53l/4nA5/uOvZu+8EewwAARCAVHl15Wt17itQ+Jc7C/zQIq0CoDdSEs8GDBoySgAkbd/0mz/xmYmTetlfAAiAANySd987ULhk2XKXf1yEs4X84OJ2f6xeDoDTBEDiV/+Bg0cLgNyu8Ie5n9dR/sRly17xpl8ABEAAbk84S+jx+o1eCW8IvvyY0ZVHg+FWA+CUZ6d3tbeIV/0GDh4jAHJbL/vI9/PLPoqXKpu4e8+eEvYVAAIgAGmmT78B40IEvPaxI7iVR4AnT3u2mz1FvLr8oiUBkFu8hv78h5QrL/v40ss+ABAAAUgHL8xf0OryD5HL5wJ6OQi3dgfgpClTu9tPxPcfUwRAbu36GeJfrz79nrGXABAAAUhXO3btKlO0eCnnAnLLP2AnTJrc014iXvXu23+8AEhqz/u7+se352bNfsI+AkAABCBDfHbiRLbqteq87lxAbiUAjp84qbd9RLzq2bvvBAGQFJ/3l//n8/7uL1o8ccuWreXtIQAEQAAy3M+H2TsXkNQFwLHjJ/S1f4hXPXr1mSgAkprz/mrVqbfqxImTWe0fAARAADLNgoWLml/9sRLeTOiHGzcLgGPGP9PP3iFede/ZZ5IASPKP/Ba8EgELJPbtP3CsfQOAAAhARNi7b/8DDz70cGKOvAWcC8hNA+DoseP62zfEq249ek8WAEn2vL8rx2q8uGhxM3sGAAEQgIjy9Tff/KtN+yfm5LgSefy4JakAOHL02IH2DPGqS7eeU10judEjvz+fqVsgsfSDDyXu2bu3uP0CgAAIQMQaP2FS78svBfGWYJIIgMNGjnrKXiFede7WY5oAyO8f+Q1rIkfe/IltOzzxfPiDmr0CgAAIQMR7a8vWh0qWLZf481uC/cjltwFw6IiRQ+wT4tWTXbo9KwBy7SO/Oa488jt56rPd7BEABEAAosqZM2f/07RFq4UhAvqxy7UB8Kmhw4fZI8SrJzp3fc41kZ8f+S3wyyO/27bveND+AEAABCBqTZo6rXuCR4K5NgA+PUwAJH4D4JNdBECP/P7ylt+WbdrNO/v11/+2NwAQAAGIelu3bS9XvNSDvzwSfPVxJ+IzAA566ukR9gXxqmOnzjMEQI/8Xn7kd5pHfgEQAAGIMV+dOfvfy3e+XPnR68dv/AbA/oMGj7YniFftOj45WwCMz0d+r14Dyz30cOLOt98ubT8AIAACELMWLlrc9OodEB4JjscAWCCx74BBY+0F4lWb9h3nXH7jqzuh4+quv6uP/Ia3QF+48P0d9gIAAiAAMe/DDz+8r2btx1eHuwHDWUh+CMdXAOzTb8A4+4B41bpdh7nuAIwf4Q9dl//gla9Q4sJFS5raAwAIgADEnSHDhg/9Of7lFwLj5OD7EAB79uk3wfonXrVq0/4FATB+jjzImbdA4uP1G73y4eHD91n/AAiAAMStt97a+lCZchUvh6Hwg8mP4tgPgD169Zlo7ROvWrRqO98jwLF+rfv5rr+EPPkTR48d19+6B0AABIDExD+cO3fuH9169J589QdTCEV+RMZuAOzes88k65541bxlmwUCYOy+6CNc58JdfxUqP5K4feeustY8AAIgAPzOq6teq1OwyAO//IjyAzk2A2CXbj2nWu/Eq6bNWy0UAGMz/F39j/sNHDTm4sUf/2y9AyAAAkASvjh9+q6OnTrPCKHo8gHq+bwpOKYCYN4CiV269hAAiVtNmrVaJADG1ll/V8/7K17qwcS169ZXs84BEAANAgAp9ML8Ba3y31/08h1jufM5FzCWAmCnzl2nW+PEbwBsKQDG0DXt6l1/Xbv3mvLNN9/80xoHAAEQgFT6+PgnOdp2eOL5HFdeDOJswNgIgOEOT+ubeNWoSbMlAmCs3PVXILFE6XKJq1avqWVtA4AACMBtWrZ8Rb37ixa/cs6SNwVHewBs17HTbOuaeFW/UdOXBcDo9fOxFD/PX3h51dmvv/63dQ0AAiAAaeTU55/f06Z9xzmXzwa8EgL9GI3OANim/RNzrGniVb2GTZYJgNH7oo9wDStZNtz1t9pdfwAgAAKQXl5etrx+sZJlE6/+gHY3YPQFwNbtOsy1lolXdes3Wi4ARuEbfq/MWc8+/SZ8/c03/7KWAUAABCCdhR9f/QYMGnP1R3R4JMuP6egJgK3atn/BOiZe1anb4FUBMFquWQV+iYDlK1VJ3Lhp88PWMAAIgABksE2b36xUpWrNxJyXD2N3N2C0BMCWbdrNs36JV7Ufr79SAIyCs/7y//qHpaeGDh928eKPf7Z+AUAABCCTXLp06Y9jx0/oe/UujatvZ/QDNnIDYItWbedbu8SrWnXqrhIAI/dx36ufH+EPS7Ufq7dy9549JaxbABAAAYgQ7x04eP9j9RquuPaxYD9oIzMANm/ZZoE1S7yqWfvx1QJgZF6fcl25mzxvgcKJs+fMbWe9AoAACECEWvry8gbFS5W9HJrcDRiZAbBZi9YvWqvEq+qP1nldAIzMx32DDk88OfOTTz/Lbq0CgAAIQIT75ptv/jlg0FOjrn1TsBAYOQGwafPWC61T4lW1R2uvFQAj63HfcF2qVKVa4pq1a2tYowAgAAIQZfbu3fdArcfqrcqRp0BiQp583hYcCQEwT4HEJs1bLbI+iVePVH90vQAYOY/75spXMHHCpMk9f/rppz9ZnwAgAAIQxZ6f+0LbkmXLeVtwpATAZi0FQOI3AFaruT5BAIyIx33btH9izkcffZzTugQAARCAGHH266//PXzU6MEJHgvO9ADYuGnzxdYk8aryIzXeEAAz8XHfPAUSK1aumrh23fpq1iMACIAAxKgPPvwwX+v2Hede+7ZgITBjA2CjJs2WWIvEq0pVqm0SADP2jr+rETD//UUTZ85+vsOlS5f+aC0CgAAIQBxYtXpNrcqP1Lj8WPDPcUoEzKgA2KBx06XWIPGqQuVH3hQAM+auv3BdvzrOXbv3mvL551/cbQ0CgAAIQJz58ccf/2fW83PbFytR5vJbIMOPxKsHw/sBnX4BsH6jJi9bf8Sr8pUqbxEA08+vxzvk/+XM0d1795aw9gBAAAQgzp05c/Y/o8eO639t/HNHYPoFwHoNGy+z7ohX5SpU3ioAps8df3ny3594dWwferjyW2vXO+cPAARAAPidI0eP5enUuev0hDxXf0wW8iM9zQNg/sS6DRovt96IV2XLV9p+NVi5LqTdtSX8/+FIh+KlHkycPmNmJ2sNAARAAEjWjl27yjRp2nJRjit3BF77Bklu79G8MJaP12/0inVGvCpTruIOATDt3+ybp8D9ieFO7nBHt3UGAAIgAKTYlq3by9eqU2/VL28Mzu+NwWkRAB+r13CF9UW8KvVg+V0C4O2/2TfHNY9R9x0waOyJEyezWl8AIAACwC1b8eqqx6pWf3Td1TsCw49PP8Jv/RHgOnUbvGpdEbcBsKwAeHvn/BW6fMdf+I87duo849AHH+a3rgBAAASANDNv/ostSz/40OVzpn77tkk/zFNzB2Cdx+sLgMSt4qXK7hEAb+3a8bMCiS3btp+3Zeu28tYTAAiAAJAuzp//7m/Pz32hbbGSZX/5QZo3//1CYCp+xNd+rN5Ka4l4VaxkmX0CYMrvGr565/DVa8eWLVuFPwAQAAEgY3z/ww9/ffa5GU9ee0egR4NTFgBr1am7yhoiXhUtXmq/60EKHvXN9+s5f+HYgHUbNlS1fgBAAASATHHu3Ll/hBBYsmy5X0KgtwYnHwBr1n58tbVDvCryQMl33AGY9Ft9f3nUN2+By28MX/Xa6lrWDQAIgAAQEb755pt/Tps+o3OR4qV++QEb7mARAq8PgDVqPbbGmiFe3V+0+HuuB79/1PfaM/7yJ9Z6rN6qNzZurmy9AIAACACR+Wjw99//dfqMmZ3KV6p8+Y7Aax9lEwB/Ho/qj9Z53VohXhUo/MD7ot+v14Rr3+pbv1GTl9euX1/NOgEAARAAosKF77+/Y8HCRc2r1qx13aPB8RoDPQIM4RHgEnH9CPC1RyRcfatvs5atX9y4afPD1gcACIAAEJUuXbr0x1dWrHy8UpVqm64+3nb5hSH5CsVtAHysXsMV1gbx6sGHKm1LyJ0/7gLg5buh89+feG38bN2uw9y9e/c9YF0AgAAIADHj9bXrqjdt3nrh5R/AeQtcDmK58xWMo3O+Cl6+26dp81YLrQfiVd2GjZdf+8eAeHD1Denhbuh8hYokduvea/K77x0obD0AgAAIADFr19u7S3Xr0Xvyz3fCxM+bg3++A7BAYu9+A8ZbB8SrPv0GjIv1/f774w5C+Cv8QMnE0ePG9//w8OH7rAMAEAABIG4cPXos96AhQ0eEO2Ku3hEU3oZ59W6ZWIwCQTgb0fwTr+YveLFFjhi9+/falx5dVbJsubdnzZnT/qszZ/9r/gFAAASAuPXtt9/+feqz07tUfqTG5UeDw11yIQ7E6h1CR44czWPeiVcH3j9UKGfe2Av9V69Z4RqWkCd/Yr2GTZYtWbqskTkHAAEQALhGeGHIq6teqxMOxr/2jLBYeFzw53+W/InhZSjmmnj2/Q8//LVSlWqXI1k07+vfP+ab48o/S5duPadu2bq9vLkGAAEQALiJd999r3CPXn0n5i1Q+JdH6cKP7Wh9e3B4tDkEgukzZnYyv8S7UWPGDvj5LsD7o/5tvkGRB0omjh3/TN+Pj3+Sw/wCAAYBAG7h8eDnZs56omrNWuvCD+2cUfj24Kt3COW+r0DiyVOnsphX4t17Bw7ef/UR4Gh5G/DPZ5QW/OWlHuH/r9ug8fIX5i9o9dNPP/3JvAIAAiAApIG169ZX69yl+7RrH7f79e26kRsRwt1CIRiMHD1moHmEn3Xq3HX6tVEtUt/c/ctjynl+Dn/57y+aOOjpoSN27NxVxjwCAAIgAKST8JjdxMlTeoS3ayZcc1ZgCG2RdqZYrisvBCj1YPnEr7/55l/mD37dx1f3a6QF/BAlLx83cM31pUrVmhvmLVjY8vTpL+80fwCAAAgAGej1deuqt+vYaXaR4qUu353z8x1FBSImBF69O/G1Na8/ar7gt2bMer7jz2/9jpz9GuLf1eMGSpQul9ite8/JO3e9Xdp8AQACIABEwN1EM2Y/37FWnXqrclz7Zs4rjxhm9B1GV0NkiAhjn5nQ1xxBEo8CP9l1ema9EOT3bxgPMTL81xo3bb54wcJFzZ3ZCQAIgAAQoXbv3Vui38DBY+4vWvzKWzp//oEfHunLiPPGwr9HiAohajw9fMTT5gSSF4JbjssRsFCGxPoQ5399k2+By+f7FS/14J6Ro8cOfP/QoQLmBAAQAAEgSvz444//s2z5inqt23WYW6xk2V8eEb72Mb+0f+FHoSvRMX9iOKfQPEDKtGn/xJycV2J9ejzCf/Vu4KuP5YfrQdHipRI7PPHkzLXr11czBwCAAAgAUe6TTz/LPnfe/NaNmjZfcjnQXQ4M+X/zps/UBsEbxcQQFR56uErips1vVjLukDpTpj7b9doXb9zq3rx2f/76Ft8r+z5P/sSWbdrNm79gYYvjn3yaYNwBAAEQAGLQ0aPHck+b/lznyo/UeONqKLj2TcKX5St0+W6+EPd+9fMjilf/NVfDxNVzw8KLSKZNn9E53HlonOHWfPDhh/latGo7/9q9GVzdl1fv4vu9y2/uvWZ//n5vP1L90fWz58xtF84LNc4AgAAIAHHkvQMH7x86fOSQao/WXvvzY4EFE3PeV/DK48IFfhMgrt45GP574V8T/vMy5SomNmvR+sWFixY3vXTp//3RmELaePe9A4W79+wzqWKVqj/fXfvLvvx1P4az+67fnz//60IUrFH7sTWjxowbcOiDD/MbUwBAAAQA/rBz19ull768vEG4O3DgU0NGPtm527Nt2nWc06R5q0UNmzR7qXW7jnO7du81ZeiIkUPC48SbNm2u9MUXX9xl7CD9fHfhwv++tWXbQzNmze4Y9mXzlm0W1KpTN7HyIzUSy5avlFih8iOJdR6vn9i0eeuFIRg+M3FSr5eWvtzw7d27Sxo/AEAABACAKHTp0qU/fv/DD3/99tvzfw+BMPznxgUAEAABAAAAAAEQAAAAABAAAQAAAAABEAAAAAAEQAAAAABAAAQAAAAABEAAAAAAQAAEAAAAAARAAAAAAEAABAAAAAAEQAAAAAAQAAEAAAAAARAAAAAAEAABAAAAAAEQAAAAABAAAQAAAAABEAAAAAAEQAAAAABAAAQAAAAABEAAAAAAQAAEAAAAAARAAAAAAEAABAAAAAAEQAAAAAAQAAEAAAAAARAAAAAAEAABAAAAAAEQAAAAABAAAQAAAAABEAAAAAAEQIMAAAAAAAIgAAAAACAAAgAAAAACIAAAAAAgAAIAAAAAAiAAAAAAIAACAAAAgAAIAAAAAAiAAAAAAIAACAAAAAAIgAAAAACAAAgAAAAACIAAAAAAgAAIAAAAAAIgAAAAACAAAgAAAAACIAAAAAAgAAIAAAAAAiAAAAAAIAACAAAAgAAIAAAAAAiAAAAAAIAACAAAAAAIgAAAAACAAAgAAAAACIAAAAAAgAAIAAAAAAIgAAAAACAAAgAAAAACIAAAAAAgAJJBLl68+OfPPz91z8EDBwpteevNCiteeeXxOc/Pbjd+7Ni+/fv2GderR/dJ7du1fb5Zk8aL69d9/JUqlSpuLv9g2e1FChU8mBoPlSu3tVKFCm9eq2rlym+E/53NmzZZFP49wr9Xvz69x48eNWrAM+PG9ZkxfXqneXPntl68eFGT1a+tqrVj+/ayhz/88L4vT5++86effvqT+QMAAAAQAOM77v3ww18OHTqUf83q1x59fvas9sOefvrpJzs98VztR2uuLvlAsX1Z7rrzdJa77kyMYqfz581zpEL58lsa1K+3rNMTHWeEf8YQMMM/8/59+4qdOnUyi7UAAAAAIABGtbNnzvxn+9at5UL46t+v79i6deq8mi9P7qNRHvfSNBTmTMj+SQiF4W7Dp596ali4s3Dzpk2VPjp2LNelS5f+aB0BAAAAAiAR4ciRw3nDY7ojhg8f3KBe3eV5cub8SOC7fWEca9ao/nqPbl2nzHzuuSfe3Ly54smT7h4EAAAABEDS2Z49e4pPmzKla+NGDV/KcW+2z8S6jJUtyz2nKlesuLlbly5Tw5mE4RzCCxcu3GFtAgAAAAIgt2Tvnj3Fx40Z2696tarrst591xciXGQqVrTIO+E8xfDY9b69ex+wdgEAAAABkBt6//33C4Q7y8LbcMPdZuJa9J4zWLpkid3hLcZrX19T44fvv/+r9Q0AAAAIgHHqww8+yPfMuHF9ypQq+bZwFrOPDic+VqvWqmenTu1y8ODBgtY9AAAAIADGuIMHDhQaPWrUgOJFi+4XyOLzJSNPdOwwc9nLL9c/d+7cP+wJAAAAQACMAeEtsuPHju1b5P5CB0QwrvV47dorX1ywoPnXX3/9L3sFAAAAEACjzMpXX60TAo/QRUqER4VfXrq0waVLl/5o/wAAAAACYIQ6evRInoH9+4/OnSPhuKjFrcieNUtieLPwju3by9pTAAAAgAAYIbZv3VquQf16ywQs0lJ4Qcy8uXNbuysQIG3s2bOneLhDf/HiRU3iyWurVtZ+//33C1gDkWf/vn3F4nFNrlq5svZ7775b2BoAbseB9967P3zGxds1dMXy5XVDg7AGEAAz0Atz57Qp+UCxfWIV6SnHvdkShwwePPzs2bP/tu8AUm/f3r0PlC1dale8f55Ur1Z13WeffnqvNREZP1rLP1h2e7yvySqVKm4+dvRobmsCSI2Pjh3LVbVy5Tfi/RpauGCB99eufb26NYEAmI5mz5rZoVCB/IfEKTI6BI4YNuypb7/99u/2IUDK77DKluUenyNX5MuTO/H0F1/cZW1knoMHDxZMyJbVerwiV0JC4qfCNJBC4Q9ZuXMkuH5eI9xJbm0gAKaxJUsWN/Y2XzJb+NEwdsyYfvYkwM25y+p6bdu0nmttZJ5HHq60yTr8rUYNGyy1NoCUCNcL183fyp83zxFrAwEwjaxZ/dqj4Tw2FxciSfGiRfe/9eabFexRgBsLjxb6vLhe1rvv+sL6yBwnTpzIag3e2A/ff/9XawRIzvcXLtzhenljmzZufNgaQQC8Dbt27ixduWLFzS4oRLJwCKz9CnC98EcSnxM3FkKUNZIJ3y137Spl/d3YkSOH81ojQHKOHj2Sx/Xyxua98EIrawQB8BZ8/fXX/+rYof0sFxKiQTgD48cff/wfexfgt954443KPidu7PjHH+ewRjJeeGuj9Xdj3lQN3MwHH3yQz/Xyxp6fPau9NYIAmEozn3vuiZwJ2V1EiCqvr1ld0wXs9lz84Ye/nD1z5j/hrpjgm2+++aewCgKgAIgAKAACAqAAiAAYQ3bu2FGmXNkyO1w8cMGPbe++806RF+bOadO/X9+xj9euvTJv7lzHstx15+lkxvd0eOt3g/r1lg0ZPHj4whdfbHb4sMeUQAAUABEABUBAAPR7EAEwaoQ7fDzuS7Tbvm3bgy5gN3b+/Ld/D9GudYuW83MmZP8krcY8X57cRzt36jR9xSuvPG6cQQAUABEABUBAABQAEQAj1JubN1csXLCACwZR76effvqTC9hvrV+3rmrLZs1ezHr3Xek+/gnZsp7o8uSTz+7Yvr2ssQcBUABEABQAAQFQAEQAjBD9+vQe70JBLKhUocKbLl4/CyF00oQJPcPdeZk1H8WKFnknPGJsPkAAFAARAAVAQAAUABEAM0l4dXiF8uW3uEgQK8K5dC5eiX+YNXNGxwL35Y2YeSlVvPie5cuW1TM3IAAKgAiAAiAgAAqACIAZaMb06Z0y4nFAyEhr175ePZ4vWiuWL69b5P5CByJ1fipXrLh5/759xXzAgAAoACIACoCAACgAIgCms3A+lwsDsejs2bP/jseL1YULF+5o3arlvGiZpwH9+o3xIQMCoAAoAFp/AiAgAAqACIDp4MvTp++sUqniZhcFYlGJYkX3x+OFauuWtx6KpMd9UzNffuCAACgACoAIgIAAKAAiAKbxF//cORJcEIhZPbt3mxxvF6mpUyZ3i+ZH+XMmZE8Mjy37wAEBUAAUABEAAQFQAEQAvE2LFi1s6rw/Yt1LLy1pFE8XqM6dOk2PlbkbO2ZMPx86IAAKgAIgAiAgAAqACIC3aOiQIUNdBIgHn3zySfZ4uTi1at58QazN38D+/Uf74AEBUAAUABEAAQFQAEQATKUO7dvNdgEgHuTNnetYvFyYWjRrujBW59HLQUAAFAAFQARAQAAUABEAU6FB/XrLbH7iRZvWrV6Ih4tS2zat58b6XI4aOXKgDyAQAAVAAVAAtEYAAVAARABMxsWLF/9co3q1tTY+LvKxJdwdFy/z+cLcOW18CIEAKAAKgAIggADotyEC4A2cP3/+b+XKlrHpiTsHDxwoFMsXo8WLFzWJp/kMLy3atWtXKR9EIAAKgAKgAAggAAqACIC/i3/lHyxrwxN3ErJlPRHLF6KDBw8WzJblnrib1/x58ySePXv23z6MQAAUAAVAARBAABQAEQATE//w3Xff/a/4R7yqX/fxV2L1InTp0qU/lnygWNzObe1Ha672YQQCoAAoAAqAAAKgAEjcB0Dxj3g3aeLEHrF6EerXp/f4eJ/fWTNndPSBBAKgACgACoAAAqAASNwGwHB3ULUqVWxy4tr2bdsejMUL0P79+4qZ38uPeCd+efr0nT6UQAAUAAVAARBAABQAicsA6G2/cOfpWL0AVa5YcbP5/VnbNq3n+lACAVAAFAAFQAABUAAk7gJg61Yt59ncxLsqlSpujsWLz7KXX65vfn9r/759xXwwgQAoAAqAAiCAACgAEjcBcPjQoUNsbLgzcdjTTz8dixefEsWK7je/v/V47dorfTCBACgACoACIIAAKAASFwFwwfz5LWxq+Nn6deuqxtqFZ9XKlbXN7Y0deO+9+304gQAoAAqAAiAgAAqAAiAxHQA3bdz4cNa777Kp4Yqvv/76X7F24alUocKb5vbG2rVtM8eHEwiAAqAAKAACAqAAKAASswHwxIkTWXPnSLCh4YpiRYu8E2sXnX179z5gbpP31Vdf/dcHFAiAAqAAKAACAqDrpQBITAbAcmXL7LCZ4Ve9e/aYGGsXnX59eo83t8mbNXNGRx9QIAAKgAKgAAgIgK6XAiAxFwA7d+o03UaG3wpvyo21i07uHAnHzW3yyj9YdrsPKBAABcAYCIDbtj1o/QmAgAAoACIAXvHSS0sa2cRwvc8+/fTeWLrgbNy48WHz6sc6CICuKQIgAiAgAAqAxFkAPHb0aO6EbFltYvid/HnzHIm1C86gAQNGmduUeWHunDY+pEAAFAAFQAEQEAARAImJAFiuTOmdNjDEx9tgS5cssdvcpkyr5s0X+JACAVAAFAAFQEAARAAk6gNgn149J9i8cGNznp/dLpYuNl9//fW/zGvK5UzI/okPKRAABUABUAAEBEAEQKI6AG5yFhjE1Rdj5/+l3kfHjuXyQQUCoAAoAPqeAwiACIBEZQC8ePHinwsVyG/jQhISsmU9EWsXm5nPPfeEuU2ddWvXVvNBBQKgACgACoCAAIgASFQGwC5PPvmsTQtJa1Cv7vJYu9j06tF9krlNnenTpnWO9Q+hMaNH979yNuTpeFWiWNH9XTt3nvbdd9/9ry8mAqAAKAAKgAACoABITARAj/7CzU2ZPLlbrF1salSvttbcpk73rl2mxvIHUIf27Wab519Vq1Jlgy8mAqAAKAAKgAACoABI1AdAj/5CyuzaubN0rF1sCtyX97C5TZ26deq8GssfQNmzZjlpnn/rzJkz//HlRAAUAAVAARBAABQAieoA6BFASJlLly79MdYuNlnvvusLc5s6lSpUeDNWP3zC467m+HrvvvNOEV9OBEABUAAUAAEEQAGQqA2Ae/bsKW6jws1VrVz5jVi82Fw578wcp0I4Gy5WP3y+/fbbv5vj6+3ft6+YLycCoAAoAAqAAAKgAEjUBsBwJ4uNCjc3Ytiwp2LtQvPTTz/9ydymXp6cOT8SAAVABEABUAAUAAEBEAGQqAiAixcvamKTQsps2LChSqxdaC5cuHCHuU29cEaeACgAIgAKgAKgAAgIgAiARHwADHf+5M+bxyaFFDp37tw/PAJMUKhA/kMCYHzZt3fvA76cCIACoAAoAAIIgAIgURcAhz399NM2KKRM6ZIldsfqxUYATL1yZUrvFAAFQARAAVAAFAABARABkIgOgJ9++um9We++ywaFFOrTq+eEWL3Y5EzI/ok5Tp3q1aquEwAFQARAAVAAFAABARABkIgOgC2bNXvR5oSUW/byy/Vj9WJTqnjxPeY4dVo0a7pQABQAEQAFQAFQAAQEQARAIjYA7tmzp7iNCanz2WefZYvVi03rFi3nm+NUvhF6+PDBAmB82btnT3FfTgRAAVAAFAABBEABkKgJgI/Xrr3SxoSUK3Bf3sOxfLEZNXLkQPOcOkuWLG4sAAqACIACoAAoAAICIAIgERkAwyNMNiXXOJ0KcTtO7dq2mRPLF5uXly5tYC+kzp4YjkECoAAoAAqAAqAAaI0AAqAASJQHwHqPP7bCpoxN2bNmOVmxwkNvhVg1sH//0c+MG9cnXHzC2XUbNmyosnv37hJHjhzO++Xp03eeP3/+b0Fq1s7V/5nPPz91z4kTJ7IeP348IXxBDN5+++2SG9avfySEpNmzZnYYP3Zs3wH9+o15omOHmQ0b1H/5kYcrbSpWtMg74f/GaIyJL8yd0yaWLzYHDxwoZA+lTmr3jwAo+gqAAqAAKAAKgIAAKABChgRAZ/9Fv2xZ7jlVtXLlN3p06zpl6pTJ3VatXFn7vXffLXzu3Ll/RNPiPnnyZJYQJFcsX1538qRJ3Xv16D4pxOkQCSMxEMbDF+FcCQnH7bGUqVC+/JZYXgsCoAAoAAqAAqAAaI0AAqAASBQHQGf/RZ9yZUrvHDxw4MiVr75a56Njx3LFy+IPdylu37q13KyZMzp269JlarizMbPCYEK2rCfiYczDW23tuZQZPnToEAFQAEQAFAAFQAEQEAARAIm4ALhr165SNmPkK1q48Lvh0dnwyG4sP2J4qz7+6KOcr69ZXXPcmLH9HqtVa9WVR4rTdU4a1Ku7PB7GNnxQ2YMps3nTpkoCYPwJdy27DguAAqAAKAACCIACIBEdAOvWqfOqzRiZqlWpsiFcJMKZehb+rZ1fF87o69C+3ezwtt60np+JzzzTKx7G8ZNPPsluP95cjnuzfRbra0EAFAAFQAFQABQArRFAABQAicIAePjw4bw2YoQ92lu2zI7nnn32yVOnTmax2NPWZ59+eu+8F15o1bhRw5fS4g7Bta+vqREvY1erZo019mfywvmbAqAAiAAoAAqAAiAgALpeCoBEXAAML1iwESPiBR6JXZ588tl9e/c+YIFnnG1bt5QfMnjw8PB4dWrnLFdCQuKlS5f+GC9jtWjhwqb2avJ27dxZWgAUABEABUABUAAEBEDXSwGQiAqA33333f9mz5rFRsxE+fLkPhredPv9hQt3WNiZ69ChQ/mfGTeuT9nSpXalZO4Wvvhis3gan7BGXS+SVqRQwYPxsA4EwBt7++23S7qOCoACoAAoAAIIgAIgERkAp06Z3M0mzKRYcH+hA+FsOos5cs+8C49hV6lUcfON5i9E23gcl/DWafv3xuJlPwuAAqAAKAAKgAKgNQIIgAIgURYACxcs8L5NmLHCY6PPTp3axSKOHl+ePn3nokULm44dM6bfzOeee+LTTz+9N17H4uyZM/8Jj6vby78VXjATL2tAABQABUABMB7s2L69rPUnAAICoABITATAla++WscGzFj9+/YZFx67toCJZt26dJlqP//WtClTugqAcX7+465dpVwfBEABUAAUAAEEQAGQiAuAFSs89JYNmDGqV6u67tjRo7ktXGLByZMnszgL8FcF8+X7IJ7mXwAUAAVAAVAAFACtEUAAFACJkgB48MCBQjZf+kvIltXjvsSkSRMm9LTHf7Zq5craAiACoAAoAAqAAiCAACgAEnEBsH+/vmNtvvQVXh4R7pSyWIlVpUuW2B3v+7xunTqvxtu8C4BJBMCdO0u7LgiAAqAAKAACCIACIBEVAHPnSDhu86Wf8KZUi5RYt3nTpkrxfofvxx99lFMARAAUAAVAAVAABBAABUAiLgBu2LChio2XPsK5aMuXLatngRIvRgwfPjhe9/vixYuaxOOcC4ACoAAoAAqAAqA1AgiAAiBREABbNmv2oo2X9goXLJB46NCh/BYn8Sa85Cbe9nvXzp2nxet8C4ACoAAoAAqAAqA1AgiAAiARHgDPn//271nvvsvGS2NVK1dOPHfu3D8sTOLRqVMns+TPmydu9nvZ0qUSf/rppz8JgFxr544dZVwPBEABUAAUAAEEQAGQiAiAC+bPb2HTpXn8e+PixYt/tiiJZ4c//PC+3DkSYn6/lyhWNDEEsHieawFQABQABUABUAC0RgABUAAkwgNghfLlt9h0aeexWrVWWYzwsz179hQP52DG6n7Plyd34qeffnpvvM+zACgACoACoAAoAFojgAAoABLBATB8gbThxD9IT2tWv/Zotiz3xNx+z5s7V+L+/fuKmWMBMCkhFlgfAqAAKAAKgAACoABIpgfASRMm9LTh0kZ46YFFCDe2b+/eB/LkzBlTj/1+9tln2cytACgACoACoACIAAgIgAIgER8Ayz9YdrsNd/vKP1g28ccff/wfixCSFn4cFMyXL+r3e7kypXd++eWX/2dOBUABUAAUAAVABEBAABQAifgAePLkySw22+0rcn+hxK+++uq/FiDc3MUffvhLsyaNF0frfu/Xp/d48ygAptT2bdsetD4EQAFQABQAAQRAAZBMDYAvzJ3Txma7PeFcs3ffeaeIxQepM2P69E5Z774ravZ6zoTsiSuWL69r7gRAAVAAFAAFQARAQAAUAImqAFirZo01NtvtWbRwYVMLD25NeIFGNLyFvG6dOq9+5k2/AqAAKAAKgAKgACgAAgKgAEi0BcBvvvnmnzba7enTq+cEiw5u3+LFi5rkzpEQcXu8aOHC727auPFhcyQACoACoACIACgAAgKgAEhUBsDly5bVs9Fu3UPlym214CBtA9KIYcOeynFvtkzf3/nz5jkyfdq0zuZFALztALh1aznrQwAUAAVAARBAABQAybQA2Lxpk0U22q3JnjWLL96QTi5cuHDHuDFj+xW4L+/hjN7bJYoV3T971swO5kEAFAAFQAEQAVAABARAAZCYCIDZs2Y5aaPdmmfGjetjsUH627d37wPhrbs57s32WXre7Td61KgBx44ezW3MBUABUAAUABEABUBAABQAiZkAGM60ssluTY3q1dZaaJDxtrz1ZoXhQ4cOKVe2zI4sd915+jb28elqVapsCCF/z549xY2tAJietm3dUt76EAAFQAFQAAQQAAVAMiUAhnO2bLLUy3r3XYmHP/zwPgsNMt9Hx47l2rhx48Nznp/dbtTIkQP79u71TLu2bebUr/v4Kw3q1V3eoX272f379hk3ZvTo/gvmz2+xdctbD33qTb4CoAAoAAqACIACICAACoDESwC8cgeNjZZKTz/11DCLDEAAFAAFQAFQAEQABARAAZCIDoB+pN2agvnyfWCBAfhsSY1w56n1IQAKgAKgAAggAAqAZHgAfH3N6po2WOotWrSwqQUGIAAKgAKgACgAIgACAqAASMQHwIH9+4+2wVKnQvnyWywuAAFQABQABUAB0PoTAAEBUAAkKgJgiWJF99tgqRPemmxxAQiAAqAAKAAKgNafAAgIgAIgER8Avzx9+k6bK3WqVamywcICEABvxZa33qxgfQiAAqAAKAACCIACIBkaAFcsX17X5nL3H4AAKAAKgAIgqbdzx44y1p8ACAiAAiARHwB79eg+yeZKuUoVKrxpUQEIgAKgACgAIgAKgIAAKAASNQGwVPHie2yulFv7+poaFhWAAHir3npTABQABUABUAAEEAAFQDIwAH5/4cIdNlbKhZelWFAAAqAAKAAKgAiAAiAgAAqARE0AdGhx6syaOaOjBQUgAAqAAqAAiAAoAAICoAB4686fP/+3a9kP6RwAp0+b1tnGSpkc92ZL/Omnn/5kQQEIgLfjzc2bK1ofAqAAKAAKgAACYCwEwEuXLv3xo2PHcoU/ci+YP7/FpAkTeg4eOHDkEx07zKz3+GMryj9Ydnve3LmOZbnrztO/8/t/5t/89/PkzPlR+J9t1LDB0q6dO08bPnTokFkzZnR8Zfnyutu3bi136tTJLPZQKgJg6xYt59tYKdO/X9+xFhOAACgACoACIAKgAAgIgPEWAMNdert27So1d87zbXt06zqletVH1ufOkXA8k8fpdLmyZXa0a9tmzrgxY/utWL687sEDBwoJgDdQ4L68h20sX2AABEABUAAUABEAfX8GBEAB8Krdu3eXCE+NtmzW7MWC+fJ9EGXjd7pShQpv9u/bZ9yrK1Y89tVXX/03rgPgl6dP32lTpUzFCg+95eIMIAAKgAKgAIgAKAACAmAsBsBNGzc+/NSgQSNC/0jiEd2oVqp48T3hny+8CyPuAuD6deuq2lQpM3vWzA4uzgACYFrYvGlTJetDABQABUABEEAAzMwAGM7tCy86rV/38Vey3n3XF/E0tuHR5W5dukyNxT/M3/C/OGb06P421c1lvfuuxHPnzv3DxRlAABQABUABEAFQAAQEwGgNgOGx3vAyjeJFi+43xj8LjzePGD588LGjR3PHbAAMb2Mx2TfXoF7d5S7McPvWvr6mRribdsb06Z3ixZznZ7fbsGFDle8vXLhDAOSqrp07J0bbWg5/HV669KWGn39+6h4BUABEABQAAQEwegLggffeu3/QgAGjwlt1jWvyatWssWb1a6tqxVwAzJWQ6W9riQrLly2r58IMt27+vHktI+DtUJkqe9YsiZMmTOgpABILevfsMVEAFAARAKMhAIa5CYfXX/kecjrehH/u5k2bLIr1865uxQ/ff//XEcOGPVW6ZInd8bg2ypYutWv0qFEDfvzxx/8RAGMzAJ4//+3fn3v22SfLlCr5trFMvfDC3MmTJnW/dOnSH6M+AJ49c+Y/JjVl4vXOHUgLU6dM7uY68qvwRSte5j7cQv/cs8+a9xjVtHGjJQKgAIgAGMkBMNyFbw5+Fe7ktl9/Ft4GWqJYUevirjsTS5cskXj27Nl/C4CxEwDDizzCmX7GL23kuDdb4pDBg4dH07Fw1/0Xdu3cWdpk3lydWo++5kMSbs3hDz+8z3Xk+jNFI+ERyvSa73lz57Zu07rVCx4viA8b1q9/RAAUABEAIzEA7t+/r5jxv96+vXsfsGcT/1CtSpUN1sNvH3kUAKM/AC5evKjJlbf3Grv0eWlIhr+VOc0C4LwXXmhlEiPvtdsQS8JblVxHYvcv8AcPHiwYrpHh0SpHSsTtWYbTBEABEAEwEgNg+GOU8b9e6xYt58f7fn377bdLWgvXC9FcAIy+HvH111//K7zQI96PW8pI5cqU3rnlrTcrRFUAHNCv3xiTd3Offvrpvb7Ywq0pcn+hA64j1xvYv//oaJzPd97ZXzS8DCI8+pmQLesJc0lm3SUvAAqAAqAAeDP58uQ+avyvF+7Qj/f9OvO5556wFq4XHpkXAKMnAH7xxed39+/Xd2y2LPcYp0wS/tAUzlmMigBY+9Gaq01a8sLBqL7Uwq3LevddX7iWXK9fn97jo+Fg7HB+SDizsFKFCm9eOTDa/PEbNapXWysACoAIgJEYAH1uJel0vO/XZ8aN62MdXC8zX1YnAKY8AH722WfZwlNW4Vgh45P58ubOlbjs5ZfrR3wAdIvozYWDHn2pBQEwHgLgd999979rX19TI1z3rgQ/c4UAKAAiAAqAAqAAKAAKgBEQAMMf5wcPHDhS+Ivcl+NdiKCXx173nLhJurmNGzc+7EstCICxGADD2+9C8Av/t5QuWWK3eUEAFAARAAVAAVAAFAAFwMgybcqUyxEwT86cxiPCFSlUMHH37t0lIi4A7tq1q5QJurmLP/zwF19qQQCMhQB44sSJrCuWL68r+CEACoAIgAKgACgAWgsCYHRwxl90CXdoTpo4sUdEBcAF8+e3MDnJC4/A+UILAmA0B8BdO3eWHjpkyNCKFR56y7gjAAqACIACIAKgACgAQvpr1qTx4ogJgIMGDBhlUpIXXqXtCy0IgNEYAMN5ftWqVNlgrBEABUAEQAEQAVAAFAAh41WpVHHzuXPn/pHpAbBhg/ovm5Dkvbl5c0VfaEEAjMYA+FC5cluNMwKgAIgAKAAafwFQABQAIfOULV0q8csvv/y/TA2AJR8ots9kJO/8+W//7gstCIDRFgAd8YAAKAD6/BEABUABUAAUAAVAiAyFCuTP8O9nPhBToWjhwu/6MgsCYDQGwOZNmywyxgiAAiACoADo944AKAAKgBAZ8uXJnXjo0KH8GR4Az5w58x8TkLwnOnaY6cssCIDRGADLli61yxgjAAqACIACoAAoAAqAAiBEjgL35U386NixXBkaAN99550iBj95z8+e1d6XWRAAozEAOuIBAVAA9PkjAAqAAqAAKAAKgBB5CubLl3jq1MksGRYAV7+2qpaBT97u3btL+DILAqAACAKgAIgAKAAKgAKgACgAQlopXrRoYnq/HfiX/2DG9OmdDHryfvzxx//xZRYEQAEQBMBo88YbbySeOHEiKxlryZLF1p8AKAAKgAKgAAgR8R36l/+gf7++Yw14sjV2v3ADAqAACAIgIAAKgAKgACgAQnpo07rVC+keABs1bLDUYCetdauW84QbEAAFQBAAAQFQABQABUABENLL9GnTOqdrAPTjMHnjxoztJ9yAACgAggAICIACoAAoAAqAkF6y3n1X4vZt2x5MtwDoB3nyXl2x4jHhBgRAARAEQEAAFAAFQAFQAIT0VKhA/sTz58//Lc0DYHjTiAFO3sEDBwoJNyAACoAgAAICoAAoAAqAAiCkt8aNGr6U5gHw2NGjuQ1u8i5evPhn4QYEQAEQBEBAABQABUABUACEjPDiggXN0zQA7tq1q5SBTVrBfPk+EG1AABQAQQAEBEABUAAUAAVAyCgJ2bImfvbZZ9nSLAC+vmZ1TQObtLp16rwq2oAAKACCAAgIgAKgACgACoAQjU3q8v8zf968lgY1ab16dJ8k2oAAKACCAAgIgAKgACgACoCQ0ZYsWdw4TQLgxGee6WVAk7noTZzYQ7QBAVAABAEQEAAFQAFQABQAIaPlzZ0r8cKFC3fcdgDs36/vWAOatOXLltUTbUAAFABBAAQEQAFQABQABUDIDL179ph42wGwTetWLxjMpO3aubO0aAMCoAAIAiAgAAqAAqAAKABCZjl06FD+2wqANWtUf91AJi2t3rgCCIACIAKgAAgIgAKgACgACoBwK2rVrLHmtgJgiWJF9xtIH4ZJ2b17d4kZ06d3GjN6dP/Ro0YNIPJNGD++9wtz57Q5efJkFgFQABQAEQABAVAA9JtHABQAITZs37btwVsOgNmzZjlpEG8sV0LC8Xj9EPzy9Ok7K1Z46C3rILr17N5tsgAoAAqACICAACgACoACoAAI0a9q5cpv3HIA9EGYtHJlSu+Mxw/AS5cu/bFU8eLWgAgoAAqAIAACAqAAKAAKgAIgRJBNGzc+nOoAePbMmf8YvKTVrVPn1Xj8AAwXevMfWz784IN8AqAACAIgIAAafwFQABQAIbpVq1JlQ6oD4CeffJLd4CWtQ/t2s+PxA7BC+fJbzH+MfXhPnNhDABQAQQAEBEDjLwAKgAIgRL8d27eXTVUADK8QNnBJGzRgwKh4/ADMcW+2z8x/bOnTq+cEAVAABAEQEACNvwAoAAqAEP0a1K+3LFUBMLzh1cBFx11TGcmLYWJPrx7dJwmAAiAIgIAAaPwFQAFQAITYcPTokTwpDoCbN22qZNCS9uKCBc0FQARAAVAABAEQEAAFQAFQABQAIZL06NZ1SooD4OrXVtUyaEl7fc3qmgIgAqAAKACCAAgIgAKgACgACoAQSbJnzZL43Xff/W+KAuBLLy1pZNDS7lBFARABUAAUABEABUBAABQABUABUACEjDBrxoyOKQqAc56f3c6AJe3dd94pIgAiAAqAAiAIgIAAKAAKgAKgAAiRplTx4ntSFAAnT5rU3YClzYGKAiACoAAoAIIACAiAAqAAKAAKgJCR9u/bV+ymAXDkiBGDDFbSTp06mUUARAAUAAVAEAABAVAAFAAFQAEQovX3/h/69+s71mAl7dy5c/8QABEABUABEARAQAAUAAVAAVAAhEiUMyH7JzcNgF2efPJZg5W0S5cu/VEARAAUAAVAEAABAVAAFAAFQAEQItVrq1bWTjYAtmrefIGB8kEoAAqAAqAACAIgIAD63SMAIgBCdGrXts2cZANgg3p1lxuoGwuRQgBEABQABUAQAAEBUAAUAOPRxGee6SUAQnQIHSfZAPh47dorDdSN5cmZ8yMBEAFQABQAQQAEBEABUAAUAAVAiHQbNmyokmQArFWzxhqDdGMF8+X7QABEABQABUAQAAEBUAAUAAVAARAiXdfOnaclGQCrV31kvUG6sSKFCh4UABEABUABEARAQAAUAAVAAVAAjHcF7subWK5smcQ6tR5NbN2iZWLP7t3Cb5hfPNnpicR6jz+WWK5M6cRcCQnGLBPkzpFwPMkAWKVSxc0G6caKFy26XwBEABQABUAQAAEBUAAUAAVAATBOnoTc27pFy+dGjRzZfenSlx7dvXt3gc8/P/WP25jHe1e88krV8L+vRvVq4R0UHxvn9LV//75iNwyAFcqX32KAbqx0yRK7BUAEQAFQAAQBEBAABUABUAAUAGNRyQeKbe3Tq+fwFcuXVzt16uQ/M2JuX1u1svKTnZ54JnvWLEfMQdqbPGlS9xsGwHJlSu80QDcWxkYARAAUAGMhAJYtXWqXMSaj1Kn16GsCICAACoACoAAoAEaeHPdm+7Bd2zZTQ/A7e/bsnzN7702bMqVtoQL595ibtFP70ZqrbxgASxUvbqCTEO6OFAARAAXAWAiATRs3WmKMySjdu3aZKgACAqAAKAAKgAJg5DzWO7B//8Hbtm55IFL34IsLFtTNkzPnAfN1+8Lv7RsGwGJFi7xjgG4snI8oACIACoCxEACXLFnc2BiTUTZs2FBFAAQEQAFQABQABcDMkz1rlvBG2LE7tm8vEk17sV+f3kPN3+3btHHjw9cFwMIFC7xvcG6sWpUqGwRABEABMBYCYBDOZTPOpLdwt2lmXVsEQBAABUABUAAUAONd4YIFdk+dMrnd2TNn/hKt+3Hzpk2l8ubOZT5vw7Cnn376ugCYP28ehy4moXrVR9YLgAiAAmCsBMBLly79sV3bNnOMNemld88eEzPz2iIAggAoAAqAAqAAGK+qVq68MrxcI1b25BdffP738g+W3WBub03litc/0fqH3DkSjhscjwALgAKgABj7AfCqjz/6KGd4JHjx4kVNMsv0adPM+Q3079snMTPn5VYtXfpSw88/P3VPZl9bBEAQAAVAAVAAFADjTeNGDefu27s3X6zuzerVqr5intPmuv6HhGxZTxiYG/MSEGtAABQAYzEARoJvv/327+Y8ZWd1IACCACgACoACoADI7zVr0vj5gwcP5oiH/Vm96iMrzHnq7du79zcvffFDPBnlypbZIQAiAAqAAqAAKAAKgIAAKAAKgAKgABgJHipXLnH71q3F4m2Plitb5g3znzqzZs7o+JsAKPQkrXTJErsFQARAAVAAFAAFQAEQEAAFQAFQABQAI8EXX3yeGI979LNPP/1P7hwJ1kAqhPPfnQGYQsWLFt0vACIACoACoAAoAAqAgAAoAAqAAqAAGAm+PH06MV736drX11SwBlKuYL58H3gLcAoVub/QAQEQAVAAFAAFQAFQAAQEQAFQABQABUABMPP16NZ1tHWQcl999dV/fwmARQoVPGhQUlZLBUAEQAFQABQABUABEBAABUABUAAUAAXAzFO4YIHd1kLKbN3y1kO/BMASxYruNyg3ljd3rmMCIAKgACgACoACoAAICIACoAAoAAqAAqBHgaPNrBm/vgjkD2VKlXzboNxYiBQCIAKgACgACoACoAAICIACoAAoAAqAAmDkqFmj+jLr4ea6d+0y9ZcA+FC5clsNig9CAVAAFAAFQAFQABQAAQHQ7x4BEAFQAIwGu3fvLmA93FzFCg+99UsArFyx4maD4oNQABQABUABUAAUAAVAQAD0u0cARAAUAKNFnVqPvmRNJC9blntO/RIAq1d9ZL1BSdr58+f/JgAiAAqAAqAAKAAKgIAAKAAKgAKgACgARo4tb71Zwpq4uU8++ST75QBY+9Gaqw1IspvrTgEQAVAAFAAFQAFQAAQEQAFQABQABUABMLKULV1qk3WRvA0bNlS5HADr1qnzqgFJ2vGPP84hACIACoACoAAoAAqAgAAoAAqAAqAAKABGlhfmzmlkXSRv9qyZHS4HwIYN6r9sQCLvy4kAiAAoAAqAAiACIPiOLQAKgAKgAIgAmLxsWe45am0kbdCAAaMuB8DmTZssMiBJ27NnT3EBEAFQABQABUABUAAEBEABUAAUAAVAATDyNG/aZLa1kbTQ/S4HwHZt28wxIDd/VloARAAUAAVAAVAAFAABAVAAFAAFQAFQAIwsK5Yvr2ZtJK10yRK7LwfA3j17TDQgSVuyZHFjARABUAAUAAVAAVAABARAAVAAFAAFQAEwMmW9+66PrI8bC7+/LwfAYU8//bQBSdpzzz77pACIACgACoACoAAoAAICoAAoAAqAAqAAGJkeq1VrifWRtK+//vpff5g0cWIPg5G0EcOGPSUAIgAKgAKgACgACoCAACgACoACoAAoAEamGdOnt7Q+kvbeu+8W/sOc52e3MxhJ6961y1QBEAFQABQABUABUAAEBEABUAAUAAVAATAyHTxwIKf1kbS1a1+v/oelS19qaDCS1qxJ48UCIAKgACgACoACoAAICIACoAAoAAqAAmDkypmQ/ZA1cmMvLljQ/A+hAhqMpFWtXPkNARABUAAUAAVAAVAABARAAVAAFAAFQAEwcjVu1HCuNXJjE8aP7/2H7Vu3ljMYSStyf6EDAiACoAAoAAqAAqAACAiAAqAAKAAKgAJg5JoyebIj7pLQv2+fcX8IBwEaDB+GAqAAKAAKgAKgACgAxq4Vr7xyObiQsebOed76EwD95hEABUABUADMIFu3vFXcGrmx1q1azvvDxx995KDEmzh79uy/BUAEQAFQABQABUABMFod//jjHNZIxtu5Y0cZ608AFAAFQAFQABQAM8aXX355hzVyY9WrPrI+DND/GYzkHTx4sKAAiAAoAAqAAqAAKAAKgAiAAqAAKAAKgAKgABjRLeOIdXLj4+3+cPGHH/5iMJK3Yf36RwRABEABUAAUAAVAAVAARAAUAAVAAVAAFAAFwMhVqUKFNdbJ9cJvcB+EKTB/3ryWAiACoAAoAAqAAqAAKACSGju2by9r/QmAAqAAKAAKgAJgxuncqdN46+TG1/nLA5Q7R8Jxg5G0kSNGDBIAEQAFQAFQABQABUABEAFQABQABUABUAAUACPXtClT2lonyQTAh8qV22owkvZExw4zBUAEQAFQABQABUABUABEABQABUABUAAUAAXAyLV27esPWSfJBMDGjRq+ZDCSVrlixc3xtmkK3Jf3sLkXAAVAAVAAFAAFQAGQW7d927YHrT8BUAAUAAVAAVAAzDhHjhzOap0kEwBDGDAYSQt3w8XbpmnetMkicy8ACoACoAAoAAqAAiACoAAoAAqA8WvC+PG9BUABMNpkuevOj62VJALg+LFj+xqM5J05c+Y/8bRh3ty8uaJ5FwAFQAFQABQABUABEAFQABQABUABUAAUAAXAGAmAC+bPb2Ewkrd79+4S8bZpBg0YMMrcC4ACoAAoAAqAAqAAyC0GwK1by1l/AqAAKAAKgAKgAJjhR5rtt1aSCIDr162rajCSt3jxoibxuHGWL1tWr/yDZbf7siQACoACoAAoAAqAAiACoAAoAAqAAqAAKABGusoVK662VpIIgO+8s7+owUjeiGHDnor3TXT+/Pm/RYMc92azZgVAAVAAFAAFQARAAVAAFAAFQAFQABQA41DjRg3nWitJBMBTp05mMRjJa9ak8WIbKTrkTMj+iTUrAAqAAqAAKAAiAGa2bVu3lLf+BEABUAAUAAVAATBj9ejWdbS1kkQA9GF4c/ny5D5qIwmAAqAAKAAKgAKgACgAIgAKgAKgACgACoACYOQaNXJkd2slmQCYkC3rCQOSvLNnz/7bZhIABUABUAAUAAVAAVAARAAUAAVAAVAAFAAFwMg0e9bMZtZKMgGwdMkSuw1I8sKXOJtJABQABUABUAAUAAVAARABUAAUAAVAAVAAFAAj00svLallrSQTAJs3bbLIgCRv+rRpnW0mAVAAFAAFQAFQABQABUBSYuuWtx6y/gRAAVAAFAAFQAEwY6145ZWq1koyAXDY008/bUCS165tmzk2kwAoAAqAAqAAKAAKgAIgAqAAKAAKgAKgACgARqY1q1+rZK0kEwAXzJ/fwoAkr1jRIu/YTAKgACgACoACoAAoAAqACIACoAAoAAqAAqAAGJk2bNhQ1lpJJgBu37btQQNyc998880/bSgBUAAUAAVAAVAAFAAFQG5my1tvVrD+BEABUAAUAAVAATDDP39LWCvJBMCTJ09mMSA3t37duqo2lAAoAAqAAqAAKAAKgAIgAqAAKAAKgAKgACgARp6dO3YUtlaSCYA+EFNm6JAhQ20oAVAAFAAFQAFQABQABUAEQAFQABQABUABUACMPPv27rV2bhYASz5QbJ9BSV6lChXetKEEQAFQABQABUABUAAUALmZt94UAAVAAVAAFAAFQAEwox08cCCntXKTANiiWdOFBuXmLv7ww19sKgFQABQABUABUAAUAAVABEABUAAUAAVAAVAAjCyHDx/Oaq3cJACGx1sNys2FF6bYVAKgACgACoACoAAoAAqACIACoAAoAAqAAqAAGFk+OnbsbmvlJgFw4YsvNjMoNzdi2LCnbCoBUAAUAAVAAVAAFAAFQJLz5ubNFa0/AVAAFAAFQAFQAMxYR464A/CmAXDH9u1lDcrNlSpefI9NJQAKgAKgACgACoACoACIACgACoACoAAoAAqAkeXDDz6411q5SQA8/cUXdxmUlAljZWMJgAKgACgACoACoAAoACIACoACoAAoAAqAAmDkeP/99xOslZsEwCB3joTjBubmXlywoLmNJQAKgAKgACgACoACoABIUjZv2lTJ+hMABUABUAAUAAXAjHXgvfdyWSspCIAN6tVdbmBurnnTJotsLAFQABQABUABUAAUAAVABEABUAAUAAVAAVAAjBzvvLM/r7WSggA4YvjwwQbm5hKyZT1hYwmAAqAAKAAKgAKgACgAIgAKgAKgACgACoACYOTYt3evtZOSAPjaqpW1DUzKrH19TQ2bSwAUAAVAAVAAFAAFQAGQGwl72voTAAVAAVAAFAAFwIy1e/fuAtZKCgJg+IJoYFKmbZvWc20uAVAAFAAFQAFQABQABUAEQAFQABQABUABUACMDLt27rzfWklBAAyyZbnnlMG5uWxZ7kn86aef/mSDCYACoAAoAAqAAqAAKAAiAAqAAqAAKAAKgAJg5tu+bVtRayWFAbBalSobDE7KrFq5srYNJgAKgAKgACgACoACoADI720UAAVAAVAAFAAFQAEwM87gLWWtpDAA9u/bZ5zBSZnWLVrOt8EEQAFQABQABUABUAAUABEABUABUAAUAAVAATDzrVn9mpdwpTQALl68qInBSbmvvvrqvzaZACgACoACoAAoAAqAAiACoAAoAAqAAqAAKABmrmUvv1zDWklhAHzv3XcLG5yUmzZlSlebTAAUAAVAAVAAFAAFQAEQAVAAFAAFQAFQABQAM9eC+fPrWSspDIBB9qxZThqglClcsMD7NpkAKAAKgAKgACgACoACINakACgACoACoAAoAGauWTNnNLdWUhEA6z3+2AoDlHKbN22qZKMJgAKgACgACoACoNgiAGJNCoACoAAoAAqAAmDmmTRxYgdrJRUBcNKECT0NUMq1aNZ0oY0mAAqAAqAAKAAKgGKLAIg1KQAKgAKgACgACoCZZ9TIkd2tlVQEwN27d5cwQKlz5MjhvDabACgACoACoAAoAIotAiDBhg0bqlh/AqAAKAAKgAKgAJixBg8cONBaSUUADLJlueeUQUq5zp06TbfZBEABUAAUAAVAAVAAFAARAAVAAVAAFAAFQAEwc/Tq0X2ktZLKAFirZo01Bil1Tp06mcWGEwAFQAFQABQABUABUABEABQABUABUAAUAAXAjNe6Vcvp1spv5UpIOJ7soI0bM7afgUqdoUOGDLXhBEABUAAUAAVAAVAAFADZsH79I9afACgACoACoAAoAGasmjWqL7NWfqtEsaL7kx207du2PWigUid71iyJX3311X9tOgFQABQABUABUAAUAAVAAdD6EwAFQAFQABQABcCMVfKBYlutld+qUqniZj/U00H3rl2m2nQCoADouiIACoACoAAoAAqA1p8AKAAKgAKgACgAZqwc92b70Fr5rQb16i6/6cA98nClTQYrdbLefVfiJ598kt3GEwAFQAFQABQABUABUACMX+vXratq/QmAAqAAKAAKgAJghl/rP7ZWrn9p7U0HbtLEiT0MVuo1athgqY0nAAqAAqAAKAAKgAKgACgAIgAKgAKgACgACoACYGa/r+KmA3fgvffuN1i3ZueOHWVsPgFQABQABUABUAAUAAVAARABUAAUAKNRGBcBUACMJsePH/8/6+R6z06d2iVFA1ioQP5DBiz1Sj5QbJ8NKAAKgAKgACgACoACoAAYn9atXVvN+hMABUABUAAUAAXAjLN/3777rJPrLV68qEmKBrBv717PGLBbM27M2H42oQAoAAqAAqAAKAAKgAKgAIgAKAAKgAKgACgApq9VK1f6PngDGzZsqJKyN5ht2FDFgN2a7FmzJJ44cSKrjSgACoACoAAoAAqAAqAAKAAiAAqAAqAAKAAKgOln+rRpra2T6+3ft69Yigcxe9YsJw3aralSqeJmG1EAFAAFQAFQABQABUABML6sXft6detPABQABUABUAAUADNO/759nrZOrvfJJ59kT/EgNmvSeLFBu3UjR4wYZDMKgAKgACgACoACoAAoAAqACIACoAAoAAqAAmD6aNig/jzr5HoXf/jhLykexEULFzY1aLdn+9at5WxIAVAAFAAFQAFQABQABUABUAAUAAVAAVAAFAAFwLRXoljRbdbJdUfTnQxjk+JB/OKLz+82cLenWNEiiT98//1fbUoBUAAUAAVAAVAAFAAFQAFQABQABUABUAAUAAXANL/Of2yd/FbZ0qV2pSoABhUrPPSWwbs99R5/bIVNKQAKgAKgACgACoACoAAYBwHw9TU1rD8BUAAUAAVAAVAAzBhnzpz5izVyvYYN6r+c6gA4b+5cb1NJAz27d5tscwqAAqA5EQDNuQAoAAqAAqAAKAAKgAKgACgACoBpY8tbb5awRq7Xp1fPCakOgN98880/DV7aCGcq2qACoACIAIgAKAAKgAKgACgACoACoAAoAAqAt+/ZqVPbWCPXmzxpUvdUB8CgedMmiwxg2nh56dIGNqkAKAAiACIACoACYGx6fc3qmtafACgACoACoAAoAGaM9u3aTrFGrrd06UsNbykA+iKTdrLefVfi+nXrqtqoAqAAiACIACgACoACoAAoAAqAAqAAKAAKgLeueFFvAL6R7Vu3lrulACiwpK0c92ZL3LVrVymbVQAUABEAEQAFQAFQABQABcDMEo57EgCtAwFQAPQG4Nhz8uTJLLccAMMBggYxbe8EXLF8eV0bVgAUAAVAAVAAdB0XAAXA2LFm9WuPWn8CYLT49NNP7xUArQMBUACMVnv37MlvfSR/h/ctDWy4Y80gpkMEfOWVx21cAVAAFAAFQAEQAVAAFAAFQAEwox08eLCgAGgdCIACYLSa+MwzT1gf1ytRrOj+2wqAQbGiRd4xmGlv9KhRA2xeAVAAFAAFwPi0bu3aaq7jAqAAKAAKgAJgZti2dUt5AdA6EAAFwGhVveojK6yP64UX+d52AJw0YUJPg5k+OrRvN9sGFgAFQAFQAIw/r65Y8ZjruAAoAMaO1a+tqmX9CYDRYsmSxY0FQOtAABQAnf8XW4YOGTL0tgPguXPn/pEtyz0GNJ1Urlhx84kTJ7LayAKgACgACoDxY8H8+S1cxwVAAVAAFAAFwMwwYfz43gKgdSAACoDRaMP69Q9aGzf/fXFbg9y9a5epBjT9JGTLmvjC3DltbGgBUAAUAAXA+DBq5MiBruMCoAAoAAqAAmBmCL/tBEDrQAAUAKPRoAEDBlkbN7Z969ZyaRIA33v33cIGNP11eqLjjB++//6vNrYAKAAKgLHi/HkB8EY6dmg/y3VcABQAY8drq1bWtv4iKwBmz5rlpPG/sQrly28RAK0DAVAAjEb58uR+19q4sbNnzvwnTQJgUPvRmqsNavrLkzOnuwEFQAFQAIwZ4Y8a5vx6xYv++pYuBEABUAAUANNeroSE48b/xsL3MwHQOhAABcBos37dunLWxY3lzpFw/Nqxuu3BXvnqq3UMbMZ5vHbtlQcPHChkowuAAqAAGM0uXbr0R3N+YxcvXvyza7kAKAAKgAJgut0lctT4J+3o0SN5BEAEQAEwmjRt3GiOdZF0P0rTABgUKpD/kMHNWK1btZzny7wAKAAKgFH+pi7nMN3AhvXrH3EtFwAFwNiwaqUAGGkBsHDBAu8b/6TF8xNHAqAAKABGnzNnzvzFmkjakMGDh6d5AHx26tQuBjdz1Hv8sRWbNm582OYXAAVAAVAAdAi7ACgACoACoACYvGJFi7xj/JPWslmzFwVABEABMFpMnTK5nTWRtMWLFzVJ8wAYDnMPb6w1wJmnRvVqa8NjJi4CAqAAKAAKgFF/5utHruUCoAAoAAqA6eOhcuW2Gv+k5bg322cCIAKgABgtcudIcFd3MsKLe9M8AAbDhw4dYoAzX/68eY6MHjVqwOHDh/MKgAiAAqAAGJ0WLVzY1Jc6AVAAFAAFwLTnBYY3t2L58roCIAKgABjppkx299/NhHPX0yUAnj9//m857s1mkCPsbZKjRo4cuHfPnuLxchE4dvRobnejCoACYHRwEHvSSpcssdsXOwFQAIx+XpYXeQGwedMmi4x/8urWqfOqAIgAKABGsi+//PIOv/uTF+54//24pekkhNhkoCP3dv7WLVrOnz9vXssPP/ggX0xs+tOn79y+dWu5aVOmdG3RrOnC8NicuRYABcDoUf7BstvNe9JmTJ/eSUARAAVAAVAATFtPdnriOeN/cx/EyO+F1BjYv/9ocy8ACoDRoUP7dpOtheT17d3rmXQNgN9fuHBHzoTsBjsKJGTLeiK8QGTwwIEjF774YrNdu3aVOnv27L8jaVNfvHjxz5999lm2XTt3ln556dIGE595ple3Ll2mVq/6yPrwf795FAAFwOj2WK1aq8x7smcBhi94d4ooAqAAKAAKgGlnQL9+Y4z/zTWoV3d5vOzT8Bu2Y4f2s8y7ABgt3nlnf1wHwBWvvFLVOri5l15a0ihdA2AwdsyYfgY7uu8UDIEt3C3Yv1/fsSG6hbsG176+psaePXuKhy9rwdGjR/KcOHEia1IOHTqU/+q/Nti/b1+xrVveeij871myZHHj52fPaj9p4sQeI4YPHxyiR/t2bZ9/vHbtleXKltmRN3euY84GEwAFwNjXpnWrF8x76m/dRwAUAKPHqytWPGb9RVYAHDN6dH/jnzI7d+woE+t7dM3q1x4tXLCA+RYAo0rWu+8KvxuGxuPn6ocffHCvo+dS5siR698LkeYTEg4ZzJs7lwEHAVAAFACT1btnj4nm/eY6tG83W0gRAAVAAVAATBsvzJ3TxvinTKEC+RMvXLhwRyzuzXBTQrjxwDwLgFG+R/fMmzu3YTx9rpYqXvwtc39z2bNmOXmj8Uuvt7F0M+ggAAqAAmByRo4YMci8p0w4s0pMEQAFQAFQAEybO76Mf8qFl6bE0p4MRwuFY5DMrQAYS4oUKvj2/Hnz6sf6Z2q5smXeMN8pE45ayrAAGBTMl+8DAw8CoAAoALoLI23UfrTm6vPnz/9NVBEABcCoOqfocesvsgJgONLG+KdO2zat50b9Xly+vG6F8uW3mE8BMJblTMh+KDwafPz48f+Lpc/So0ePZClyf6Fd5jjlwk15GRoA/cUTBEABUABMzob16x8x76lToljRxHD3grAiAAqAAqAAeGuOHz+eYPzj4ziK8ELBBfPntyj/YNnt5lAAjLczAp/o2GHi9m3bisbAOZ2VHDGXeuGPXRkaAL3hEQRAAVAATE748Wfeb004P/H8+W//LrAIgAKgACgApv6Nr8b/1oQXU3380Uc5I33f7di+vWynJzrOyJ41i3kTAONewXz59g4dMqTvwQMHckbbZ2iH9u0mm8O0O/8v3QPgsaNHc4f6bBJAABQABcDfO3fu3D/M+219uCeGt7V/+umn9wotAqAAGLmPHVp/kRUAg5wJ2T8xB7d+Z9HwoUOHRNpeO3jwYMHxY8f2LVq48LvmSQDkxsILNEYMG9Zr29YtD0TyZ+eE8eM75c6R8L45uzX16z7+SqYEwKB/3z7jTAIIgAKgAGgtpJ/q1aquW7RwYdMQVQVA60EAFAAFwORVq1Jlgzm4PXlz5zo2auTIgZ9/fuqezJjDcCZueJNv+O7k7HkBkFuK+R89Xrv24unTprWOhLsD9+zZk79bly5jsmfNcsT83J5np07tkmkBMJy9kC9PbhMBAqDoIwBep3TJErvNfdoKZx2FuzM2bNhQ5cSJE1nTY96+/vrrfx0+fDhveMwq/PuEH2GbN22qFD7zBUABEAEw0gNglyeffNYcpJ2aNaq/Pm3KlK7hLrx0O7vx449zhP00aMCAURUrPPSWcRcASfMnS46EIDh+7NjO69etK3fs6NF0jfsfHTt294L58+u1at58Ro57s31oDtLOe+++WzjTAmAQDl81ESAACoAC4A3O9pht7tP/HJCqlSu/0bpFy/kD+/cfPWnChJ4vLljQfPHiRU1eW7Wydoh3wetrVtcM/7X58+a1nDF9eqeJzzzTa/DAgSPDOUoNG9R/uUqlipuv3GVxOql/rxz3ZkucNWNGRwFQAORnrwiAERkAJ02c2MMcpNtdRV+Ez4u+vXs9M2vmjI7hHMzt27Y9ePTokTzhj1JfffXVf8Pde1eF/zz818PRUbt27SoVPpfmzZ3bevSoUQPatG71QrkypXcm97mDAEi6+ji8fTeEwa6dO48dN2Zsl/nz5tVfvmxZ9XVr15bfsX17kQPvvZfr/fffT/i9cEffG2+8UWbZyy/XmD1rZrORI0b0aNGs6aziRYtuC/97jW36yJ83z5Hk9lSGbd7w48OEgAAoAAqA15o6ZXI3cx97wp0gAqAAiAAYqQEwRCZzAAIgxJrwx5eICICnTp3MEu4MMCkgAAqAAuBV4fFRcx97smW5J/GLLz6/WwAUAAVAATASA+BHx47lMgcgAEKs2bRx48MREQCDF+bOaWNSQAAUAAXAqz777LNs5j42zXzuuScEQAEw3i1ftqye9Rd5ATDIluWeU+YBBECIpWN/branMnwTN6hfb5nJAQHQnAiAV4UPK/Mfe/r37TNOABQABUABMFIDYOWKFTebB7i58WPH9hUAIfI1b9pkUcQFwLNnzvwnT86cJggEQPMiAF5Wv+7jr5j/2NO7Z4+JAqAAKAAKgJEaAPv06jnBPIAACLFi6dKXGkZcAAxeXrq0gQkCARAB0NsYBUABUACMZctefrm+9ReZATC8Dd08gAAIMfL4b+KlS5f+GJEBMGjauNESEwUCIALgzh07yph/AVAAFAAFQAEwIx07ejS3eQABEGJBu7Zt5qRkT2Xql6IypUq+bbJAACS+A2CQ5a47T1sDsSU8XicACoACoAAYqQEwyJ0j4bi5AAEQot36deuqRnwA/Pijj3LmTMhuwkAAJM4DoMPYBUABUAAUAAXAjNaqefMF5gIEQIhmuRISjqd0T2X6F6NXli+va9JAACS+A+CkCRN6WgMCoAAoAMYa515HdgCcNXNGR3MBAiDEy+/8iPhyNHTIkKEmDgRAATB+A2D4IWgNCIACoAAoAAqAGemjY8dymQsQACGaHTp0KH9UBcCg3uOPrTB5IAAKgPH7Q7lQgfyHrIPY0bd3r2cEQAFQABQAIzkABsWKFnnHfIAACNGoWpUqG1KzpyLmC9LZs2f/XTBfPpMIAqAAGKdCMLIOBEABUACMJUuXvtTQ+ovsAPj0U08NMx8gAEI0CkfqRWUADI4cOZw3d44EEwkCoAAYhzZt3PiwdSAACoACoAAoAGakbVu3lDcfIABCtMmbO9ex1O6piPuitH3btgezZbnHhIIAKADGoQL35T1sLVjPAqAAKAAKgBkpf948R8wJCIAQTUYMG/ZU1AfA4LVVK2ubUBAABZP446VQ1rMAKADGkpdeWtLI+ov8ADh44MCR5gQEQIgWCdmyJp4/f/5vMREAg2lTpnQ1sSAACibxJbzFylqwngVAAVAAFAAz0rvvvFPEnIAACNGif7++Y29lT0X0l6YhgwcPN7kgAAom8aVs6VK7rIcY+GLSt884AVAAFAAFwGgIgEHxokX3mxcQACHSZb37rsQvvvj87pgLgEHrFi3nm2QQAAXA+LFo0cKm1oMAKAAKgLFgyZLFja2/6AiAM5977gnzAgIgRLqOHdrPutU9FRVfnrp37TLVRIMAKADGDweyC4ACoAAoAAqAGemH77//a/asWcwNCIAQscILcz///NQ9MR0Ag949e0w04SAACoDxYeIzz/SyJgRAAVAAFAAFwIzUo1vXKeYGBECIVIMGDBh1O3sqqr5EPTVo0AiTDgKgABj7vvnmm3+Gv3BZF/F3OLEAKADGksWLFzWx/qInAB547737zQ0IgBCJciUkJF64cOGOuAmAwdAhQ4aafBAABcDY53ovAAqAAqAAKABmtEYNGyw1PyAAQqSZMnlyt9vdU1H5ZcrbgUEAFABj3/cXLtwR/tJlbQiAAqAAKAAKgBnlvXffLWx+QACESFLk/kIH0mJPRe0XqhXLl9f1eBgIgAKgswCJTAP69RsjAAqA3mrurebRFgCDFs2aLjRHIABCpNi4cePDcR0Ag127dpXKmzuXBQECoAAYo3766ac/5cuT2/oQAAVAAVAAFAAzzMEDBwqZIxAAIRK0a9tmTlrtqaj/YvXFF5/fXa5sGQsDBEABMEa9umLFY9aHACgACoACoACYkcKbzM0TCICQmXLnSEg8d+7cPwTA390h0qBe3eUWCAiAAmBsatq40RJrJLoM7N9/tAAoAAqAAmC0BsCLFy/+OX/ePOYKAVAAhEwzd87zbdNyT8XUl6ye3btNtkhAABQAY8+Xp0/fmePebNaJACgACoDRFQAXCoDRGgCD+fPmtTRXCIACIGSG1i1azk/rPRVzX7TCy0FyJmS3YOB3hg4ZMlQAFACj2ayZMzpaJwKgACgACoACYEZq2KD+y+YLAVAAhIxUpFDBxIs//PAXATAFPvv003srVajwpoUDv1q+bFk9AVAAjHatW7WcZ60IgAKgACgACoAZ5ezZs//OkzOnOUMAFAAhw7y5eXPF9NhTMf2lq0+vnhMsHrgzscB9eQ9H0t4UAAXA2zmTqcj9hayXKDBowIBRAqAAGO8WvvhiM+svugOgeUQAFAAhIz391FPD0mtPxfwXr1UrV9bOmzuXhUTceqhcua2R9sNPABQAb8f2bdsezHr3XdaMACgACoDCkQDoxgIQACFmtGvbZk567qm4+PL17bff/j0coGhBEU8SsmVNnDRxYo9I3JMCoAB4u156aUkja0YAFAAFQAFQAMxI1atVXWfuEAAFwLT4nWZt8XvhGLv03lNx9SVsx/btZYsWLvyuxUWs69yp0/Rz5879I1L3ogAoAKaF8IXUuolcgwcOHCkACoDx7sUFC5pbf7ETAL/44vO78+fNY/4QAAXA29KoYYPE8J3Fy0u5KhxxdObMmf8IgOmgb+9ez1hkxOpfDfbt3ftApO9BAVAATCtPdOww09oRAAVAAVAAFAAzysGDBwv60c7NhCOoYuXlMQJg+n1H+vzzU/dUrlhxsz0T5/GvUMHE8AemjNhTcfuFbNPGjQ+XKl58jwVHLMiXJ/fR2bNmdoiW/ScACoBpqcuTTz5r/QiAAqAAKAAKgBll65a3HsqW5R7zyA11aN9u9vnz3/69edMmAqAAeENznp/dzhmjBOGu8uPHjydk1J6K+y9mixcvalLgvrwWH1EprN0X5s5pE237TgAUANNa2zat51pDkeWpQYNGCIACYLxbMH9+C+sv9gJgsGb1a496IRXXKlOq5Nvbt24td3WNDB0yZKgAKADeyIb16x/5/T9r+E3nbMD4Eu4mz+in93w5S0z8w4ULF+4IP7wtQqLpYjFm9Oj+P3z//V+jcc8JgAJgemjfru3z1pEAaOwFQAFQAMwo27ZuKe8HO7kSEm74B/lYuQNYAEx7hw8fznujf94vT5++s06tR1+zr2JfoQL5k1wHAmAGOXr0SJ4G9eoutyCJ5C8Y4UP44g8//CWa95oAKACml5EjRgyylgRABEABUADMKOvWrq2WPWsWcxqnenTrOuXLL7/8v6QCsQAoAN7IzW7imDB+fG/HDMTwmX/3F8rQx34FwJt4++23S9atU+dVi5MIetT38ORJk7r/+OOP/xMLe0wAFADT05TJk7tZT5lvyODBwwVAATDezZ83r6X1F9sB8OpNBMWLFjWvcfad7auvvvpvcuvixIkTWQVAAfD3cudIOJ6Sf/YQiGrVrLHGfost5cqU3pnUHw0EwEx27OjR3O3atpljoZJZqld9ZP3a19fUiLW9JQAKgOktnKdRuGAB60oARAAUAAXADBFiUMUKD71lbmNbg/r1loU3Qad0XWS5687TAqAAeK3HatValZoxWLJkceNCBfIfsv+iX8tmzV7M7M8qX85S4N133inStHGjJRYtGaV+3cdfeevNNyvE6p4SAAXAjBDOUalaufIb1pYAiAAoAAqAGaVr587TzG/sqf1ozdW7du0qldr1ULpkid0CoACYFkekhHMmc+dIsB+jUHhh1Izp0ztFwmeUL2epvCMw/EBPyJb1hIVMOpzvdzx8IGTWeQAZKU/OnB+Z8+sNHjhwpGtt2gsfuM5nEgAFQAEwM8x74YVW1l98BcAgPL0Rzm02z9EvPA0WfgPe6lro0L7dbAFQALzWooULm97qeHz99df/6t2zx0RvII+ql30c2rxpU6VI+Xzy5ewWLV68qEm5smV2WNTcrpo1qr8ei4/5JsfeubHRo0YNcH1NHwfee+/+cOaGdZZxnn7qqWECoAAoAAqA8RgAg08//fRe53dF96N64Smw210HkyZM6CkACoDXCsfUpMWRA+HGJHs1snXv2mVqpH02+XJ2mzasX/9IeFzTAic18ubOdWzQgAGj0uKLRTRq07rVC9bB9cLbIl1X05fHJwRAARABUADMSCuWL6+bL09ucx4F8uTMmRiC3TfffPPPtHxLtAAoAF7ru++++9+0Gp+DBw4UclRZ5AnX/HDtj8TPJF/O0kh4lXe4K7ByxYqbLXpuJGdC9stnvKXFX32i3UsvLWlkTaTPXwRJwdmAX375fyJ0+hs+dOiQjJ7bHdu3lzX2NxbOxLT/M97LS5c2sP5u7JNPPskeL+sgPLYX7gQx75GpSKGCB6dNmdL1+wsX7kjruT958mSWaB+fMDaZtXfCdSKW1lqp4sX3pMc4hSOkrhxVZk9n8ll/A/r1G3Pxhx/+EqmfR76cpYP33n238MD+/Uc754xwEWjcqOFLS5e+1PDHH3/8H/vjV0XuL3TAGvlVgfvyHrYuMtbHH32Us3WrlvOsv/QR7rbM6DkNd20Y+xv+JfqoPZ85wl1u1uAN/yj6STyuh8Mffnhfg3p1l1sDkaFRwwZLw53j6T3vhQsWeD+ax2njxo0PZ+a+CdcL532nTIjYU6dM7hbtay4ahbc7HzlyOG+kfw75cpbOwptc+/bu9Uz+vHmO2BjxIbwkpn27ts+/tmplbdEv+Tt1smW5x5q5eiDwols/EJjb8/bbb5ds2KD+y9Zh2vro2LFcmTGf4fpr/H9rwvjxve31zFOjerW11uFvjRg27Kl4XhP79+0r5nMn8w7kHzN6dP9Tp05myaj5Dr8Fo3W8ihctuj+z90t4oiAW1l743XM7L5RJrRBumzdtssi+T1/Vqz6yftvWLeWj5fPHF7OM/LDfv6/YyBEjBpUoVnS/zRJbQuDt2b3b5Mz+C1m0CRfL8MUi7n8IDR8+2HqIjDe99+rRfZI3Bkf3ocfhsYtyZcuYhyvqPf7YCvs7c33xxed3FylU0Hq85uVn1sWvTw090bHDTH8QTV+5cyQcDxFu165dpTLrqKiSDxSLunEL34fCH0kjYa/Ewgt1whFImTF24YUhkyZO7OHpq7RVtXLlNyLp7b4CYIQLd0bMnfN822ZNGi8Od4zZRFH3F5xT4RGOWTNmdAyPc1jTt+f1Natrhi/A4QyWLHfdeToehDNAwlkdhw4dym8NRJaLFy/+eeGLLzZ75OFKm1zvUq9/3z7jImEOwxks8XwUR7jLJTMPbue3zp49++8uTz75bI57s30Wz0ddjBo5cqD1cL1vv/327+GctaKFC7/rcyTtHjPv9ETHGZHyx/nz57/9ezTdjVW3Tp1XP/zgg3yRtE9Gjxo1oGC+fB9E2Vo8Xa1KlQ3bt217MFJuSBoyePDw8B3BdeLW7uLs3KnT9Gh+kacP3Qixe/fuEs+MG9cnlGSbKzKVK1N6Z7gFPZpu8QVu/5zA8FfTsqVL7XIdTPIOgZPhR82ihQubRuKLJi5cuHDH+fPn/xZPIvnwaUIIiK/1GIQ7oMx9yoRQ8GSnJ55zN/qtPZET7vTb8tabFSJ1fk9/8cVdmzZufHjt62tqpMaGDRuqhONzUmPPnj3FwzmkqXH06JE8ly5d+mOkv3wzWq59kd4fwnsLwh9nXD+SV/7Bstufe/bZJ8Mfa6L9M8YHbQT66aef/hRut54+bVrnVs2bLwiHd9t4Gf9Xw3AwcPjhv33r1nK+uALhEeHw4R8eX4vza+TpcN5J+INIOOfW2gBIe+Ec6TWrX3u0a+fO0/LmznXM9/Mbq1C+/JZwxNK+vXsfsG7g1oS7PWdMn97p8dq1V2a9+64vXFvuTCxTquTbkyZM6BluBoilubbgo8Tnn5+6Z/Vrq2qFD7jw6Gk4y8LGTLsfsxUrPPRWn149J7y8dGmDzDq4Hoge4a6ydWvXVhv29NNPX3lU+HQsn53UolnTheGLoR9YAJkjPHI2ZfLkbrUfrbk6nn+gh3PMwnf2EEdj4W4ciETh0flBAwaMCne+xcu1Jevdd10+Nzkc0/bZZ59li9W5tcCjWDjQM9ziHu5I6dC+3ezwF7DwKJagl/wP2RBQw0sXXl2x4rFoeFU3EB3CndtTp0zu1rhRw5dyJUTnH2nC3c/h3J+nBg0asezll+sf//jjHOYWIAIfFd66tVx4UiW8TThWz5YMoTOcnxbOLFv56qt1YvlHOUTD04ktmzV7MVbuSA7vYQhdINzlF474Cv+c8TCfFnUM+uabb/4Z/kq4auXK2uEvheFtjI/VqrXqypt/Tsd65Aub+aFy5ba2btFy/tAhQ4a+MHdOm61b3nrozJkz/7E+gIw85yu84XH5smX1xowe3b91q5bzwstfIuE6HI6WCKGvf7++Y8NfOsOZU66RANHrk08+yR5eqjZ2zJh+TRs3WlKsaJF3oul7f/gDVPVqVdf17tlj4oL581scPHCgkHmFyHTy5Mksb27eXPH52bPah5e/hUeHIzgMni5csMD7IV6OGzO2X7h7OBzrE69zZwHHofAjL/woXbv29epznp/dLrwlMLyNNPw4DY8VlC5ZYnf4EI7EN6eGNz9Vrlhxc7jDJrxN72rgC7cph7fxhsfyzDEQ6cK5ouHuunAAc7irIVyLRwwb9lS4Foc7usOPtzq1Hn2tUoUKb4a3Y9/smhz+++FfF67f4X8mnFPYtk3ruYMHDhwZ/hC0ZMnixuHQ8XDAtzNNAeLHF198fnf4rAl/jJr4zDO9wpmCNapXWxt+EGf09/jwx6dwhmz4zRGexnnppSWNwtES586d+4e5gtj4fhu+a4bOMH/evJYTxo/vHR7ZD0fJhLt5r7xwJE2vK+E7cHhZX7jhqWOH9rPCd98QJkMfiLXz+9LC/wf8YXUYGcCcFAAAAABJRU5ErkJggg==" vertex="1" parent="1">
          <mxGeometry x="200" y="178.39999999999998" width="70" height="63.21" as="geometry" />
        </mxCell>
        <mxCell id="bFlOcaczlWVgxTT0vWoC-793" value="" style="shape=image;verticalLabelPosition=bottom;labelBackgroundColor=#ffffff;verticalAlign=top;aspect=fixed;imageAspect=0;image=data:image/svg+xml,PHN2ZyB4bWxucz0iaHR0cDovL3d3dy53My5vcmcvMjAwMC9zdmciIHhtbG5zOnhsaW5rPSJodHRwOi8vd3d3LnczLm9yZy8xOTk5L3hsaW5rIiB3aWR0aD0iMjU2cHgiIGhlaWdodD0iNDE3cHgiIHZpZXdCb3g9IjAgMCAyNTYgNDE3IiB2ZXJzaW9uPSIxLjEiIHByZXNlcnZlQXNwZWN0UmF0aW89InhNaWRZTWlkIj4mI3hhOwk8Zz4mI3hhOwkJPHBhdGggZD0iTTI1MC43NDEwODUsMTY5LjI3NzUxOSBDMjUwLjc0MTA4NSwyMzguNzM0ODg0IDE5NS42NzEzMTgsMjk1LjA5NDU3NCAxMjcuNzAyMzI2LDI5NS4wOTQ1NzQgQzU5LjczMzMzMzMsMjk1LjA5NDU3NCA0LjY2MzU2NTg5LDIzOC43MzQ4ODQgNC42NjM1NjU4OSwxNjkuMjc3NTE5IEM0LjY2MzU2NTg5LDk5LjgyMDE1NSA1OS43MzMzMzMzLDQzLjQ2MDQ2NTEgMTI3LjcwMjMyNiw0My40NjA0NjUxIEMxOTUuNjcxMzE4LDQzLjQ2MDQ2NTEgMjUwLjc0MTA4NSw5OS44MjAxNTUgMjUwLjc0MTA4NSwxNjkuMjc3NTE5IiBmaWxsPSIjRDMzODMzIi8+JiN4YTsJCTxwYXRoIGQ9Ik05LjcyNDAzMTAxLDIwMC40MzQxMDkgQzkuNzI0MDMxMDEsMjAwLjQzNDEwOSAwLjc5Mzc5ODQ1LDY5LjI1ODkxNDcgMTIxLjc0ODgzNyw2NS40ODgzNzIxIEwxMTMuMzE0NzI5LDUxLjM5ODQ0OTYgTDQ3LjcyNzEzMTgsNzMuNDI2MzU2NiBMMjguOTczNjQzNCw5NC45NTgxMzk1IEwxMi42MDE1NTA0LDEyNi4zMTMxNzggTDMuMjc0NDE4NiwxNjIuODI3OTA3IEw2LjA1MjcxMzE4LDE4Ny4yMzcyMDkiIGZpbGw9IiNFRjNEM0EiLz4mI3hhOwkJPHBhdGggZD0iTTQzLjQ2MDQ2NTEsODMuNDQ4MDYyIEMyMS45Mjg2ODIyLDEwNS41NzUxOTQgOC41MzMzMzMzMywxMzYuMDM3MjA5IDguNTMzMzMzMzMsMTY5Ljc3MzY0MyBMOC41MzMzMzMzMywxNjkuNzczNjQzIEM4LjUzMzMzMzMzLDIwMy41MTAwNzggMjEuOTI4NjgyMiwyMzMuOTcyMDkzIDQzLjQ2MDQ2NTEsMjU2LjA5OTIyNSBMNDMuNDYwNDY1MSwyNTYuMDk5MjI1IEM2NS4wOTE0NzI5LDI3OC4yMjYzNTcgOTQuNzU5Njg5OSwyOTEuODIwMTU1IDEyNy43MDIzMjYsMjkxLjgyMDE1NSBMMTI3LjcwMjMyNiwyOTEuODIwMTU1IEMxNjAuNjQ0OTYxLDI5MS44MjAxNTUgMTkwLjMxMzE3OCwyNzguMjI2MzU3IDIxMS45NDQxODYsMjU2LjA5OTIyNSBMMjExLjk0NDE4NiwyNTYuMDk5MjI1IEMyMzMuNDc1OTY5LDIzMy45NzIwOTMgMjQ2Ljg3MTMxOCwyMDMuNTEwMDc4IDI0Ni44NzEzMTgsMTY5Ljc3MzY0MyBMMjQ2Ljg3MTMxOCwxNjkuNzczNjQzIEMyNDYuODcxMzE4LDEzNi4wMzcyMDkgMjMzLjQ3NTk2OSwxMDUuNTc1MTk0IDIxMS45NDQxODYsODMuNDQ4MDYyIEwyMTEuOTQ0MTg2LDgzLjQ0ODA2MiBDMTkwLjMxMzE3OCw2MS40MjAxNTUgMTYwLjY0NDk2MSw0Ny43MjcxMzE4IDEyNy43MDIzMjYsNDcuNzI3MTMxOCBMMTI3LjcwMjMyNiw0Ny43MjcxMzE4IEM5NC44NTg5MTQ3LDQ3LjcyNzEzMTggNjUuMDkxNDcyOSw2MS4zMjA5MzAyIDQzLjQ2MDQ2NTEsODMuNDQ4MDYyIEw0My40NjA0NjUxLDgzLjQ0ODA2MiBMNDMuNDYwNDY1MSw4My40NDgwNjIgWiBNMzguMDAzMTAwOCwyNjEuMzU4MTQgQzE1LjA4MjE3MDUsMjM3Ljk0MTA4NSAwLjg5MzAyMzI1NiwyMDUuNDk0NTc0IDAuODkzMDIzMjU2LDE2OS43NzM2NDMgTDAuODkzMDIzMjU2LDE2OS43NzM2NDMgQzAuODkzMDIzMjU2LDEzNC4wNTI3MTMgMTUuMDgyMTcwNSwxMDEuNjA2MjAyIDM4LjAwMzEwMDgsNzguMDg5OTIyNSBMMzguMDAzMTAwOCw3OC4wODk5MjI1IEM2MC45MjQwMzEsNTQuNjcyODY4MiA5Mi42NzU5NjksNDAuMDg2ODIxNyAxMjcuNzAyMzI2LDQwLjA4NjgyMTcgTDEyNy43MDIzMjYsNDAuMDg2ODIxNyBDMTYyLjcyODY4Miw0MC4wODY4MjE3IDE5NC40ODA2Miw1NC42NzI4NjgyIDIxNy40MDE1NSw3OC4wODk5MjI1IEwyMTcuNDAxNTUsNzguMDg5OTIyNSBDMjQwLjMyMjQ4MSwxMDEuNTA2OTc3IDI1NC41MTE2MjgsMTMzLjk1MzQ4OCAyNTQuNTExNjI4LDE2OS43NzM2NDMgTDI1NC41MTE2MjgsMTY5Ljc3MzY0MyBDMjU0LjUxMTYyOCwyMDUuNDk0NTc0IDI0MC4zMjI0ODEsMjM3Ljk0MTA4NSAyMTcuNDAxNTUsMjYxLjM1ODE0IEwyMTcuNDAxNTUsMjYxLjM1ODE0IEMxOTQuNDgwNjIsMjg0Ljg3NDQxOSAxNjIuNzI4NjgyLDI5OS4zNjEyNCAxMjcuNzAyMzI2LDI5OS4zNjEyNCBMMTI3LjcwMjMyNiwyOTkuMzYxMjQgQzkyLjY3NTk2OSwyOTkuMzYxMjQgNjAuOTI0MDMxLDI4NC44NzQ0MTkgMzguMDAzMTAwOCwyNjEuMzU4MTQgTDM4LjAwMzEwMDgsMjYxLjM1ODE0IEwzOC4wMDMxMDA4LDI2MS4zNTgxNCBaIiBmaWxsPSIjMjMxRjIwIi8+JiN4YTsJCTxwYXRoIGQ9Ik0xNzkuNDk3Njc0LDE2OS45NzIwOTMgTDE2MC43NDQxODYsMTcyLjc1MDM4OCBMMTM1LjQ0MTg2LDE3NS42Mjc5MDcgTDExOS4wNjk3NjcsMTc2LjAyNDgwNiBMMTAzLjA5NDU3NCwxNzUuNTI4NjgyIEw5MC44ODk5MjI1LDE3MS43NTgxNCBMODAuMDc0NDE4NiwxNjAuMDQ5NjEyIEw3MS42NDAzMTAxLDEzNi4xMzY0MzQgTDY5Ljc1NTAzODgsMTMwLjk3Njc0NCBMNTguNTQyNjM1NywxMjcuMjA2MjAyIEw1MS45OTM3OTg0LDExNi4zOTA2OTggTDQ3LjMzMDIzMjYsMTAwLjkxMTYyOCBMNTIuNDg5OTIyNSw4Ny4zMTc4Mjk1IEw2NC42OTQ1NzM2LDgzLjA1MTE2MjggTDc0LjUxNzgyOTUsODcuNzE0NzI4NyBMNzkuMTgxMzk1Myw5OC4wMzQxMDg1IEw4NC44MzcyMDkzLDk3LjE0MTA4NTMgTDg2LjcyMjQ4MDYsOTQuNzU5Njg5OSBMODQuODM3MjA5Myw4My45NDQxODYgTDg0LjM0MTA4NTMsNzAuMzUwMzg3NiBMODcuMTE5Mzc5OCw1MS41OTY4OTkyIEw4Ny4wMjAxNTUsNDAuODgwNjIwMiBMOTUuNTUzNDg4NCwyNy4xODc1OTY5IEwxMTAuNTM2NDM0LDE2LjM3MjA5MyBMMTM2LjczMTc4Myw1LjE1OTY4OTkyIEwxNjUuODA0NjUxLDkuNDI2MzU2NTkgTDE5MS4xMDY5NzcsMjcuNjgzNzIwOSBMMjAyLjgxNTUwNCw0Ni40MzcyMDkzIEwyMTAuMzU2NTg5LDYwLjAzMTAwNzggTDIxMi4yNDE4Niw5My43Njc0NDE5IEwyMDYuNTg2MDQ3LDEyMi44NDAzMSBMMTk2LjI2NjY2NywxNDguNjM4NzYgTDE4Ni41NDI2MzYsMTYyLjQzMTAwOCIgZmlsbD0iI0YwRDZCNyIvPiYjeGE7CQk8cGF0aCBkPSJNMTYzLjYyMTcwNSwyNTEuMDM4NzYgTDk2LjY0NDk2MTIsMjUzLjgxNzA1NCBMOTYuNjQ0OTYxMiwyNjUuMDI5NDU3IEwxMDIuMzAwNzc1LDMwNC40MjE3MDUgTDk5LjUyMjQ4MDYsMzA3LjY5NjEyNCBMNTIuNjg4MzcyMSwyOTEuNzIwOTMgTDQ5LjQxMzk1MzUsMjg2LjA2NTExNiBMNDQuNzUwMzg3NiwyMzMuMDc5MDcgTDMzLjczNjQzNDEsMjAxLjMyNzEzMiBMMzEuMzU1MDM4OCwxOTMuNzg2MDQ3IEw2OC44NjIwMTU1LDE2Ny45ODc1OTcgTDgwLjU3MDU0MjYsMTYzLjMyNDAzMSBMOTAuODg5OTIyNSwxNzYuMDI0ODA2IEw5OS44MjAxNTUsMTgzLjk2Mjc5MSBMMTEwLjEzOTUzNSwxODcuMjM3MjA5IEwxMTQuODAzMTAxLDE4OC42MjYzNTcgTDEyMC40NTg5MTUsMjEzLjAzNTY1OSBMMTI0LjcyNTU4MSwyMTguMTk1MzQ5IEwxMzUuNTQxMDg1LDIxNC40MjQ4MDYgTDEyOCwyMjkuMDEwODUzIEwxNjguNjgyMTcxLDI0OC4yNjA0NjUgTDE2My42MjE3MDUsMjUxLjAzODc2IiBmaWxsPSIjMzM1MDYxIi8+JiN4YTsJCTxwYXRoIGQ9Ik01Mi40ODk5MjI1LDg3LjUxNjI3OTEgTDY0LjY5NDU3MzYsODMuMjQ5NjEyNCBMNzQuNTE3ODI5NSw4Ny45MTMxNzgzIEw3OS4xODEzOTUzLDk4LjIzMjU1ODEgTDg0LjgzNzIwOTMsOTcuMzM5NTM0OSBMODYuMjI2MzU2Niw5MS42ODM3MjA5IEw4My40NDgwNjIsODAuODY4MjE3MSBMODYuMjI2MzU2Niw1NS4wNjk3Njc0IEw4My44NDQ5NjEyLDQwLjk3OTg0NSBMOTIuMjc5MDY5OCwzMS4xNTY1ODkxIEwxMTAuNTM2NDM0LDE2LjY2OTc2NzQgTDEwNS4zNzY3NDQsOS42MjQ4MDYyIEw3OS41NzgyOTQ2LDIyLjMyNTU4MTQgTDY4Ljc2Mjc5MDcsMzAuNzU5Njg5OSBMNjIuNzEwMDc3NSw0My44NTczNjQzIEw1My4zODI5NDU3LDU2LjU1ODEzOTUgTDUwLjYwNDY1MTIsNzEuNTQxMDg1MyBMNTIuNDg5OTIyNSw4Ny41MTYyNzkxIiBmaWxsPSIjNkQ2QjZEIi8+JiN4YTsJCTxwYXRoIGQ9Ik03MS43Mzk1MzQ5LDQzLjQ2MDQ2NTEgQzcxLjczOTUzNDksNDMuNDYwNDY1MSA3OC43ODQ0OTYxLDI2LjA5NjEyNCAxMDYuODY1MTE2LDE3LjY2MjAxNTUgQzEzNC45NDU3MzYsOS4yMjc5MDY5OCAxMDguMjU0MjY0LDExLjYwOTMwMjMgMTA4LjI1NDI2NCwxMS42MDkzMDIzIEw3Ny43OTIyNDgxLDIzLjMxNzgyOTUgTDY2LjA4MzcyMDksMzUuMDI2MzU2NiBMNjAuOTI0MDMxLDQ0LjM1MzQ4ODQgTDcxLjczOTUzNDksNDMuNDYwNDY1MSIgZmlsbD0iI0RDRDlEOCIvPiYjeGE7CQk8cGF0aCBkPSJNNTcuNjQ5NjEyNCw4NC4yNDE4NjA1IEM1Ny42NDk2MTI0LDg0LjI0MTg2MDUgNDcuODI2MzU2Niw1MS4zOTg0NDk2IDg1LjMzMzMzMzMsNDYuNzM0ODgzNyBMODMuOTQ0MTg2LDQxLjA3OTA2OTggTDU4LjE0NTczNjQsNDcuMTMxNzgyOSBMNTAuNjA0NjUxMiw3MS41NDEwODUzIEw1Mi40ODk5MjI1LDg3LjUxNjI3OTEgTDU3LjY0OTYxMjQsODQuMjQxODYwNSIgZmlsbD0iI0RDRDlEOCIvPiYjeGE7CQk8cGF0aCBkPSJNNzIuNjMyNTU4MSwxMjcuODAxNTUgTDc4Ljc4NDQ5NjEsMTIxLjg0ODA2MiBDNzguNzg0NDk2MSwxMjEuODQ4MDYyIDgxLjU2Mjc5MDcsMTIyLjE0NTczNiA4Mi4wNTg5MTQ3LDEyNS40MjAxNTUgQzgyLjU1NTAzODgsMTI4LjY5NDU3NCA4My45NDQxODYsMTU4LjI2MzU2NiAxMDQuMDg2ODIyLDE3NC4xMzk1MzUgQzEwNS45NzIwOTMsMTc1LjYyNzkwNyA4OS4xMDM4NzYsMTcxLjc1ODE0IDg5LjEwMzg3NiwxNzEuNzU4MTQgTDc0LjEyMDkzMDIsMTQ4LjM0MTA4NSIgZmlsbD0iI0Y3RTRDRCIvPiYjeGE7CQk8cGF0aCBkPSJNMTU4Ljg1ODkxNSwxMTguODcxMzE4IEMxNTguODU4OTE1LDExOC44NzEzMTggMTU5Ljk1MDM4OCwxMDQuNjgyMTcxIDE2My44MjAxNTUsMTA1Ljc3MzY0MyBDMTY3LjY4OTkyMiwxMDYuODY1MTE2IDE2Ny42ODk5MjIsMTEwLjczNDg4NCAxNjcuNjg5OTIyLDExMC43MzQ4ODQgQzE2Ny42ODk5MjIsMTEwLjczNDg4NCAxNTguMzYyNzkxLDExNi42ODgzNzIgMTU4Ljg1ODkxNSwxMTguODcxMzE4IiBmaWxsPSIjRjdFNENEIi8+JiN4YTsJCTxwYXRoIGQ9Ik0xOTcuNzU1MDM5LDY2Ljg3NzUxOTQgQzE5Ny43NTUwMzksNjYuODc3NTE5NCAxOTAuMDE1NTA0LDY4LjQ2NTExNjMgMTg5LjMyMDkzLDc1LjMxMTYyNzkgQzE4OC42MjYzNTcsODIuMTU4MTM5NSAxOTcuNzU1MDM5LDc2LjcwMDc3NTIgMTk5LjE0NDE4Niw3Ni4yMDQ2NTEyIiBmaWxsPSIjRjdFNENEIi8+JiN4YTsJCTxwYXRoIGQ9Ik0xNDEuMDk3Njc0LDY3LjM3MzY0MzQgQzE0MS4wOTc2NzQsNjcuMzczNjQzNCAxMzAuNzc4Mjk1LDY4Ljc2Mjc5MDcgMTMwLjc3ODI5NSw3NS4zMTE2Mjc5IEMxMzAuNzc4Mjk1LDgxLjg2MDQ2NTEgMTQyLjQ4NjgyMiw4MS4zNjQzNDExIDE0NS43NjEyNCw3OC41ODYwNDY1IiBmaWxsPSIjRjdFNENEIi8+JiN4YTsJCTxwYXRoIGQ9Ik03Ny4zOTUzNDg4LDk3LjgzNTY1ODkgQzc3LjM5NTM0ODgsOTcuODM1NjU4OSA1OS42MzQxMDg1LDg3LjAyMDE1NSA1Ny43NDg4MzcyLDk3LjMzOTUzNDkgQzU1Ljg2MzU2NTksMTA3LjY1ODkxNSA1MS42OTYxMjQsMTE1LjEwMDc3NSA2MC41MjcxMzE4LDEyNS45MTYyNzkgTDU0LjQ3NDQxODYsMTI0LjAzMTAwOCBMNDguODE4NjA0NywxMDkuNTQ0MTg2IEw0Ni45MzMzMzMzLDk1LjQ1NDI2MzYgTDU3Ljc0ODgzNzIsODQuMjQxODYwNSBMNjkuOTUzNDg4NCw4NS4xMzQ4ODM3IEw3Ni45OTg0NDk2LDkwLjc5MDY5NzcgTDc3LjM5NTM0ODgsOTcuODM1NjU4OSIgZmlsbD0iI0Y3RTRDRCIvPiYjeGE7CQk8cGF0aCBkPSJNODUuODI5NDU3NCw2OC4yNjY2NjY3IEM4NS44Mjk0NTc0LDY4LjI2NjY2NjcgOTMuNzY3NDQxOSwyNi45ODkxNDczIDEzNC4wNTI3MTMsMTkuMDUxMTYyOCBDMTY3LjE5Mzc5OCwxMi41MDIzMjU2IDE4NC42NTczNjQsMjAuNDQwMzEwMSAxOTEuMjA2MjAyLDI3Ljk4MTM5NTMgQzE5MS4yMDYyMDIsMjcuOTgxMzk1MyAxNjEuNjM3MjA5LC03LjE0NDE4NjA1IDEzMy41NTY1ODksMy41NzIwOTMwMiBDMTA1LjQ3NTk2OSwxNC4zODc1OTY5IDg0LjgzNzIwOTMsMzQuMDM0MTA4NSA4NS4zMzMzMzMzLDQ2LjYzNTY1ODkgQzg2LjEyNzEzMTgsNjguMjY2NjY2NyA4NS44Mjk0NTc0LDY4LjI2NjY2NjcgODUuODI5NDU3NCw2OC4yNjY2NjY3IiBmaWxsPSIjRjdFNENEIi8+JiN4YTsJCTxwYXRoIGQ9Ik0xOTQuNDgwNjIsMzIuNjQ0OTYxMiBDMTk0LjQ4MDYyLDMyLjY0NDk2MTIgMTgwLjg4NjgyMiwzMi4xNDg4MzcyIDE4MC4zOTA2OTgsNDQuMzUzNDg4NCBDMTgwLjM5MDY5OCw0NC4zNTM0ODg0IDE4MC4zOTA2OTgsNDYuMjM4NzU5NyAxODEuMjgzNzIxLDQ4LjEyNDAzMSBDMTgxLjI4MzcyMSw0OC4xMjQwMzEgMTkyLjA5OTIyNSwzNS45MTkzNzk4IDE5OC42NDgwNjIsNDIuNDY4MjE3MSIgZmlsbD0iI0Y3RTRDRCIvPiYjeGE7CQk8cGF0aCBkPSJNMTM1LjA0NDk2MSw0OS40MTM5NTM1IEMxMzUuMDQ0OTYxLDQ5LjQxMzk1MzUgMTMyLjY2MzU2NiwzMC43NTk2ODk5IDExNi43ODc1OTcsNDEuNTc1MTkzOCBDMTA2LjQ2ODIxNyw0OC42MjAxNTUgMTA3LjQ2MDQ2NSw1OC40NDM0MTA5IDEwOS4yNDY1MTIsNjAuMzI4NjgyMiBDMTExLjEzMTc4Myw2Mi4yMTM5NTM1IDExMC42MzU2NTksNjUuOTg0NDk2MSAxMTIuMDI0ODA2LDYzLjQwNDY1MTIgQzExMy40MTM5NTMsNjAuODI0ODA2MiAxMTMuMDE3MDU0LDUyLjM5MDY5NzcgMTE4LjE3Njc0NCw1MC4wMDkzMDIzIEMxMjMuMjM3MjA5LDQ3LjYyNzkwNyAxMzEuNzcwNTQzLDQ1LjA0ODA2MiAxMzUuMDQ0OTYxLDQ5LjQxMzk1MzUiIGZpbGw9IiNGN0U0Q0QiLz4mI3hhOwkJPHBhdGggZD0iTTkwLjk4OTE0NzMsMTc2LjAyNDgwNiBMNDYuOTMzMzMzMywxOTUuNjcxMzE4IEM0Ni45MzMzMzMzLDE5NS42NzEzMTggNjUuMTkwNjk3NywyNjguMzAzODc2IDU1Ljg2MzU2NTksMjkwLjgyNzkwNyBMNDkuMzE0NzI4NywyODguNDQ2NTEyIEw0OC44MTg2MDQ3LDI2MC43NjI3OTEgTDM2LjYxMzk1MzUsMjA4LjM3MjA5MyBMMzEuNDU0MjYzNiwxOTMuODg1MjcxIEw3Ny4zOTUzNDg4LDE2Mi45MjcxMzIgTDkwLjk4OTE0NzMsMTc2LjAyNDgwNiIgZmlsbD0iIzQ5NzI4QiIvPiYjeGE7CQk8cGF0aCBkPSJNOTUuNDU0MjYzNiwyMTYuMjEwODUzIEwxMDEuNzA1NDI2LDIyMy44NTExNjMgTDEwMS43MDU0MjYsMjUxLjkzMTc4MyBMOTQuMjYzNTY1OSwyNTEuOTMxNzgzIEM5NC4yNjM1NjU5LDI1MS45MzE3ODMgOTMuMzcwNTQyNiwyMzIuMjg1MjcxIDkzLjM3MDU0MjYsMjI5LjkwMzg3NiBDOTMuMzcwNTQyNiwyMjcuNTIyNDgxIDk0LjI2MzU2NTksMjE5LjA4ODM3MiA5NC4yNjM1NjU5LDIxOS4wODgzNzIiIGZpbGw9IiM0OTcyOEIiLz4mI3hhOwkJPHBhdGggZD0iTTk1LjY1MjcxMzIsMjU2LjE5ODQ1IEw3NC41MTc4Mjk1LDI1Ny4wOTE0NzMgTDgwLjU3MDU0MjYsMjYxLjM1ODE0IEw5NS41NTM0ODg0LDI2My43Mzk1MzUiIGZpbGw9IiM0OTcyOEIiLz4mI3hhOwkJPHBhdGggZD0iTTE2Ny43ODkxNDcsMjUxLjUzNDg4NCBMMTg1LjE1MzQ4OCwyNTEuMDM4NzYgTDE4OS40MjAxNTUsMjk0LjEwMjMyNiBMMTcxLjY1ODkxNSwyOTYuNDgzNzIxIEwxNjcuNzg5MTQ3LDI1MS41MzQ4ODQiIGZpbGw9IiMzMzUwNjEiLz4mI3hhOwkJPHBhdGggZD0iTTE3Mi40NTI3MTMsMjUxLjUzNDg4NCBMMTk4LjY0ODA2MiwyNTAuMTQ1NzM2IEMxOTguNjQ4MDYyLDI1MC4xNDU3MzYgMjA5LjQ2MzU2NiwyMjIuOTU4MTQgMjA5LjQ2MzU2NiwyMjEuNTY4OTkyIEMyMDkuNDYzNTY2LDIyMC4xNzk4NDUgMjE4Ljc5MDY5OCwxODIuMTc2NzQ0IDIxOC43OTA2OTgsMTgyLjE3Njc0NCBMMTk3LjY1NTgxNCwxNjAuMTQ4ODM3IEwxOTMuMzg5MTQ3LDE1Ni4zNzgyOTUgTDE4Mi4xNzY3NDQsMTY3LjU5MDY5OCBMMTgyLjE3Njc0NCwyMTEuMTUwMzg4IEwxNzIuNDUyNzEzLDI1MS41MzQ4ODQiIGZpbGw9IiMzMzUwNjEiLz4mI3hhOwkJPHBhdGggZD0iTTE4NC4xNjEyNCwyNDguMjYwNDY1IEwxNjcuNzg5MTQ3LDI1MS41MzQ4ODQgTDE3MC4xNzA1NDMsMjY0LjYzMjU1OCBDMTc2LjIyMzI1NiwyNjcuNDEwODUzIDE4Ni41NDI2MzYsMjU5Ljk2ODk5MiAxODYuNTQyNjM2LDI1OS45Njg5OTIiIGZpbGw9IiM0OTcyOEIiLz4mI3hhOwkJPHBhdGggZD0iTTE4NC42NTczNjQsMTY2LjIwMTU1IEwyMTcuNTAwNzc1LDE5MC42MTA4NTMgTDIxOC4zOTM3OTgsMTc5LjM5ODQ1IEwxOTMuNTg3NTk3LDE1Ni40Nzc1MTkgTDE4NC42NTczNjQsMTY2LjIwMTU1IiBmaWxsPSIjNDk3MjhCIi8+JiN4YTsJCTxwYXRoIGQ9Ik0xMTEuOTI1NTgxLDM0My44MTM5NTMgTDEwMi4yMDE1NSwzMDQuNDIxNzA1IEw5Ny4zMzk1MzQ5LDI3NS4zNDg4MzcgTDk2LjU0NTczNjQsMjUzLjgxNzA1NCBMMTQwLjUwMjMyNiwyNTEuNDM1NjU5IEwxNjcuNzg5MTQ3LDI1MS40MzU2NTkgTDE2NS4zMDg1MjcsMzAwLjY1MTE2MyBMMTY5LjU3NTE5NCwzMzguNjU0MjY0IEwxNjkuMDc5MDcsMzQ1LjY5OTIyNSBMMTMzLjQ1NzM2NCwzNDguNDc3NTE5IEwxMTEuOTI1NTgxLDM0My44MTM5NTMiIGZpbGw9IiNGRkZGRkYiLz4mI3hhOwkJPHBhdGggZD0iTTE2MS43MzY0MzQsMjUxLjAzODc2IEMxNjEuNzM2NDM0LDI1MS4wMzg3NiAxNTkuMzU1MDM5LDI5OS43NTgxNCAxNjYuNCwzMzQuNDg2ODIyIEMxNjYuNCwzMzQuNDg2ODIyIDE1Mi4zMTAwNzgsMzQzLjQxNzA1NCAxMzEuNzcwNTQzLDM0NS42OTkyMjUgTDE3MS4xNjI3OTEsMzQ0LjMxMDA3OCBMMTc1LjgyNjM1NywzNDEuNTMxNzgzIEwxNzAuMTcwNTQzLDI2NC43MzE3ODMgTDE2OC42ODIxNzEsMjQ4LjI2MDQ2NSIgZmlsbD0iI0RDRDlEOCIvPiYjeGE7CQk8cGF0aCBkPSJNMTkwLjExNDcyOSwyOTAuNDMxMDA4IEwyMDguMzcyMDkzLDI4NS4yNzEzMTggTDI0My4wMDE1NSwyODMuMzg2MDQ3IEwyNDguMTYxMjQsMjY3LjQxMDg1MyBMMjM4LjgzNDEwOSwyMzkuNzI3MTMyIEwyMjguMDE4NjA1LDIzOC4zMzc5ODQgTDIxMy4wMzU2NTksMjQzLjAwMTU1IEwxOTguNzQ3Mjg3LDI1MC4wNDY1MTIgTDE5MS4xMDY5NzcsMjQ4LjY1NzM2NCBMMTg1LjE1MzQ4OCwyNTEuMDM4NzYiIGZpbGw9IiNGRkZGRkYiLz4mI3hhOwkJPHBhdGggZD0iTTE4OS44MTcwNTQsMjgxLjAwNDY1MSBDMTg5LjgxNzA1NCwyODEuMDA0NjUxIDIwMi4wMjE3MDUsMjc1LjM0ODgzNyAyMDMuOTA2OTc3LDI3NS44NDQ5NjEgTDE5OC43NDcyODcsMjUwLjA0NjUxMiBMMjA0LjgsMjQ3LjY2NTExNiBDMjA0LjgsMjQ3LjY2NTExNiAyMDkuMDY2NjY3LDI3Mi4wNzQ0MTkgMjA5LjA2NjY2NywyNzQuODUyNzEzIEMyMDkuMDY2NjY3LDI3NC44NTI3MTMgMjM1LjI2MjAxNiwyNzYuMjQxODYgMjM3LjY0MzQxMSwyNzYuMjQxODYgQzIzNy42NDM0MTEsMjc2LjI0MTg2IDI0My4yOTkyMjUsMjY1LjQyNjM1NyAyNDEuOTEwMDc4LDI1NC4yMTM5NTMgTDI0Ny4wNjk3NjcsMjY5LjE5Njg5OSBMMjQ3LjU2NTg5MSwyNzcuNjMxMDA4IEwyNDAuMDI0ODA2LDI4OC44NDM0MTEgTDIzMS41OTA2OTgsMjkwLjcyODY4MiBMMjE3LjUwMDc3NSwyOTAuMjMyNTU4IEwyMTIuODM3MjA5LDI4NC4xNzk4NDUgTDE5Ni40NjUxMTYsMjg2LjU2MTI0IEwxOTEuMzA1NDI2LDI4OC40NDY1MTIiIGZpbGw9IiNEQ0Q5RDgiLz4mI3hhOwkJPHBhdGggZD0iTTE3MS4zNjEyNCwyNDcuNzY0MzQxIEwxNjEuMDQxODYsMjIxLjU2ODk5MiBMMTUwLjIyNjM1NywyMDYuMDg5OTIyIEMxNTAuMjI2MzU3LDIwNi4wODk5MjIgMTUyLjYwNzc1MiwxOTkuNTQxMDg1IDE1NS44ODIxNzEsMTk5LjU0MTA4NSBMMTY2LjY5NzY3NCwxOTkuNTQxMDg1IEwxNzcuMDE3MDU0LDIwMy4zMTE2MjggTDE3Ni4xMjQwMzEsMjIwLjY3NTk2OSBMMTcxLjM2MTI0LDI0Ny43NjQzNDEiIGZpbGw9IiNGRkZGRkYiLz4mI3hhOwkJPHBhdGggZD0iTTE3My40NDQ5NjEsMjM4LjgzNDEwOSBDMTczLjQ0NDk2MSwyMzguODM0MTA5IDE2MC4zNDcyODcsMjEzLjUzMTc4MyAxNjAuMzQ3Mjg3LDIwOS43NjEyNCBDMTYwLjM0NzI4NywyMDkuNzYxMjQgMTYyLjcyODY4MiwyMDQuMTA1NDI2IDE2Ni4wMDMxMDEsMjA1LjQ5NDU3NCBDMTY5LjI3NzUxOSwyMDYuODgzNzIxIDE3Ni4zMjI0ODEsMjEwLjY1NDI2NCAxNzYuMzIyNDgxLDIxMC42NTQyNjQgTDE3Ni4zMjI0ODEsMjAxLjcyNDAzMSBMMTYwLjM0NzI4NywxOTguNDQ5NjEyIEwxNDkuNTMxNzgzLDE5OS44Mzg3NiBMMTY3Ljc4OTE0NywyNDMuMTAwNzc1IEwxNzEuNTU5NjksMjQzLjU5Njg5OSIgZmlsbD0iI0RDRDlEOCIvPiYjeGE7CQk8cGF0aCBkPSJNMTE2LjA5MzAyMywxNzcuMDE3MDU0IEwxMDMuMDk0NTc0LDE3NS42Mjc5MDcgTDkwLjg4OTkyMjUsMTcxLjg1NzM2NCBMOTAuODg5OTIyNSwxNzYuMTI0MDMxIEw5Ni44NDM0MTA5LDE4Mi42NzI4NjggTDExNS41OTY4OTksMTkxLjEwNjk3NyIgZmlsbD0iI0ZGRkZGRiIvPiYjeGE7CQk8cGF0aCBkPSJNOTUuMTU2NTg5MSwxNzguNDA2MjAyIEM5NS4xNTY1ODkxLDE3OC40MDYyMDIgMTA5LjY0MzQxMSwxODQuNDU4OTE1IDExNC40MDYyMDIsMTgzLjA2OTc2NyBMMTE0LjkwMjMyNiwxODguNzI1NTgxIEwxMDEuODA0NjUxLDE4NS45NDcyODcgTDkzLjg2NjY2NjcsMTgwLjI5MTQ3MyBMOTUuMTU2NTg5MSwxNzguNDA2MjAyIiBmaWxsPSIjRENEOUQ4Ii8+JiN4YTsJCTxwYXRoIGQ9Ik0xOTAuMTE0NzI5LDIwMS4xMjg2ODIgQzE4Mi4xNzY3NDQsMjAwLjkzMDIzMyAxNzQuOTMzMzMzLDE5OS45Mzc5ODQgMTY4LjY4MjE3MSwxOTguMTUxOTM4IEMxNjkuMDc5MDcsMTk1LjU3MjA5MyAxNjguMjg1MjcxLDE5My4wOTE0NzMgMTY4Ljk3OTg0NSwxOTEuMjA2MjAyIEMxNzAuNzY1ODkxLDE4OS45MTYyNzkgMTczLjY0MzQxMSwxODkuOTE2Mjc5IDE3Ni4zMjI0ODEsMTg5LjYxODYwNSBDMTc0LjA0MDMxLDE4OC41MjcxMzIgMTcwLjc2NTg5MSwxODguMDMxMDA4IDE2OC4xODYwNDcsMTg4LjcyNTU4MSBDMTY4LjA4NjgyMiwxODYuOTM5NTM1IDE2Ny4yOTMwMjMsMTg1Ljg0ODA2MiAxNjYuNzk2ODk5LDE4NC40NTg5MTUgQzE3MS4yNjIwMTYsMTgyLjg3MTMxOCAxODEuNzc5ODQ1LDE3Mi40NTI3MTMgMTg3LjczMzMzMywxNzUuODI2MzU3IEMxOTAuNjEwODUzLDE3Ny41MTMxNzggMTkxLjgwMTU1LDE4Ni44NDAzMSAxOTIsMTkxLjUwMzg3NiBDMTkyLjE5ODQ1LDE5NS4yNzQ0MTkgMTkxLjYwMzEwMSwxOTkuMDQ0OTYxIDE5MC4xMTQ3MjksMjAxLjEyODY4MiIgZmlsbD0iI0QzMzgzMyIvPiYjeGE7CQk8cGF0aCBkPSJNMTkwLjExNDcyOSwyMDEuMTI4NjgyIEMxODIuMTc2NzQ0LDIwMC45MzAyMzMgMTc0LjkzMzMzMywxOTkuOTM3OTg0IDE2OC42ODIxNzEsMTk4LjE1MTkzOCBDMTY5LjA3OTA3LDE5NS41NzIwOTMgMTY4LjI4NTI3MSwxOTMuMDkxNDczIDE2OC45Nzk4NDUsMTkxLjIwNjIwMiBDMTcwLjc2NTg5MSwxODkuOTE2Mjc5IDE3My42NDM0MTEsMTg5LjkxNjI3OSAxNzYuMzIyNDgxLDE4OS42MTg2MDUgQzE3NC4wNDAzMSwxODguNTI3MTMyIDE3MC43NjU4OTEsMTg4LjAzMTAwOCAxNjguMTg2MDQ3LDE4OC43MjU1ODEgQzE2OC4wODY4MjIsMTg2LjkzOTUzNSAxNjcuMjkzMDIzLDE4NS44NDgwNjIgMTY2Ljc5Njg5OSwxODQuNDU4OTE1IEMxNzEuMjYyMDE2LDE4Mi44NzEzMTggMTgxLjc3OTg0NSwxNzIuNDUyNzEzIDE4Ny43MzMzMzMsMTc1LjgyNjM1NyBDMTkwLjYxMDg1MywxNzcuNTEzMTc4IDE5MS44MDE1NSwxODYuODQwMzEgMTkyLDE5MS41MDM4NzYgQzE5Mi4xOTg0NSwxOTUuMjc0NDE5IDE5MS42MDMxMDEsMTk5LjA0NDk2MSAxOTAuMTE0NzI5LDIwMS4xMjg2ODIgTDE5MC4xMTQ3MjksMjAxLjEyODY4MiBaIiBzdHJva2U9IiNEMzM4MzMiIHN0cm9rZS13aWR0aD0iMiIvPiYjeGE7CQk8cGF0aCBkPSJNMTUyLjExMTYyOCwxODguMTMwMjMzIEMxNTIuMTExNjI4LDE4OC43MjU1ODEgMTUyLjExMTYyOCwxODkuMzIwOTMgMTUyLjAxMjQwMywxODkuOTE2Mjc5IEMxNDkuNTMxNzgzLDE5MS41MDM4NzYgMTQ1LjU2Mjc5MSwxOTEuNTAzODc2IDE0Mi43ODQ0OTYsMTkyLjg5MzAyMyBDMTQ2Ljc1MzQ4OCwxOTMuMDkxNDczIDE0OS45Mjg2ODIsMTk0LjA4MzcyMSAxNTIuNzA2OTc3LDE5NS4zNzM2NDMgQzE1Mi42MDc3NTIsMTk2Ljg2MjAxNiAxNTIuNjA3NzUyLDE5OC40NDk2MTIgMTUyLjUwODUyNywxOTkuOTM3OTg0IEMxNDcuOTQ0MTg2LDIwMy4wMTM5NTMgMTQzLjc3Njc0NCwyMDcuNjc3NTE5IDEzOC40MTg2MDUsMjEwLjY1NDI2NCBDMTM1LjgzODc2LDIxMi4wNDM0MTEgMTI3LjAwNzc1MiwyMTUuNjE1NTA0IDEyNC4zMjg2ODIsMjE0LjkyMDkzIEMxMjIuODQwMzEsMjE0LjUyNDAzMSAxMjIuNjQxODYsMjEyLjYzODc2IDEyMi4wNDY1MTIsMjEwLjg1MjcxMyBDMTIwLjc1NjU4OSwyMDcuMDgyMTcxIDExNy43Nzk4NDUsMjAwLjkzMDIzMyAxMTcuNDgyMTcxLDE5NS4xNzUxOTQgQzExNy4xODQ0OTYsMTg3LjkzMTc4MyAxMTYuMzkwNjk4LDE3NS43MjcxMzIgMTI0LjIyOTQ1NywxNzcuMjE1NTA0IEMxMzAuNTc5ODQ1LDE3OC40MDYyMDIgMTM3LjkyMjQ4MSwxODEuMjgzNzIxIDE0Mi43ODQ0OTYsMTgzLjk2Mjc5MSBDMTQ1Ljg2MDQ2NSwxODUuNzQ4ODM3IDE0Ny41NDcyODcsMTg3LjczMzMzMyAxNTIuMTExNjI4LDE4OC4xMzAyMzMiIGZpbGw9IiNEMzM4MzMiLz4mI3hhOwkJPHBhdGggZD0iTTE1Mi4xMTE2MjgsMTg4LjEzMDIzMyBDMTUyLjExMTYyOCwxODguNzI1NTgxIDE1Mi4xMTE2MjgsMTg5LjMyMDkzIDE1Mi4wMTI0MDMsMTg5LjkxNjI3OSBDMTQ5LjUzMTc4MywxOTEuNTAzODc2IDE0NS41NjI3OTEsMTkxLjUwMzg3NiAxNDIuNzg0NDk2LDE5Mi44OTMwMjMgQzE0Ni43NTM0ODgsMTkzLjA5MTQ3MyAxNDkuOTI4NjgyLDE5NC4wODM3MjEgMTUyLjcwNjk3NywxOTUuMzczNjQzIEMxNTIuNjA3NzUyLDE5Ni44NjIwMTYgMTUyLjYwNzc1MiwxOTguNDQ5NjEyIDE1Mi41MDg1MjcsMTk5LjkzNzk4NCBDMTQ3Ljk0NDE4NiwyMDMuMDEzOTUzIDE0My43NzY3NDQsMjA3LjY3NzUxOSAxMzguNDE4NjA1LDIxMC42NTQyNjQgQzEzNS44Mzg3NiwyMTIuMDQzNDExIDEyNy4wMDc3NTIsMjE1LjYxNTUwNCAxMjQuMzI4NjgyLDIxNC45MjA5MyBDMTIyLjg0MDMxLDIxNC41MjQwMzEgMTIyLjY0MTg2LDIxMi42Mzg3NiAxMjIuMDQ2NTEyLDIxMC44NTI3MTMgQzEyMC43NTY1ODksMjA3LjA4MjE3MSAxMTcuNzc5ODQ1LDIwMC45MzAyMzMgMTE3LjQ4MjE3MSwxOTUuMTc1MTk0IEMxMTcuMTg0NDk2LDE4Ny45MzE3ODMgMTE2LjM5MDY5OCwxNzUuNzI3MTMyIDEyNC4yMjk0NTcsMTc3LjIxNTUwNCBDMTMwLjU3OTg0NSwxNzguNDA2MjAyIDEzNy45MjI0ODEsMTgxLjI4MzcyMSAxNDIuNzg0NDk2LDE4My45NjI3OTEgQzE0NS44NjA0NjUsMTg1Ljc0ODgzNyAxNDcuNTQ3Mjg3LDE4Ny43MzMzMzMgMTUyLjExMTYyOCwxODguMTMwMjMzIEwxNTIuMTExNjI4LDE4OC4xMzAyMzMgWiIgc3Ryb2tlPSIjRDMzODMzIiBzdHJva2Utd2lkdGg9IjIiLz4mI3hhOwkJPHBhdGggZD0iTTE1Ni41NzY3NDQsMTk2Ljc2Mjc5MSBDMTU1Ljg4MjE3MSwxOTIuNzkzNzk4IDE1NS4wODgzNzIsMTkxLjcwMjMyNiAxNTUuMzg2MDQ3LDE4OC4yMjk0NTcgQzE2Ni4wMDMxMDEsMTgxLjE4NDQ5NiAxNjcuODg4MzcyLDIwMC4zMzQ4ODQgMTU2LjU3Njc0NCwxOTYuNzYyNzkxIiBmaWxsPSIjRDMzODMzIi8+JiN4YTsJCTxwYXRoIGQ9Ik0xNTYuNTc2NzQ0LDE5Ni43NjI3OTEgQzE1NS44ODIxNzEsMTkyLjc5Mzc5OCAxNTUuMDg4MzcyLDE5MS43MDIzMjYgMTU1LjM4NjA0NywxODguMjI5NDU3IEMxNjYuMDAzMTAxLDE4MS4xODQ0OTYgMTY3Ljg4ODM3MiwyMDAuMzM0ODg0IDE1Ni41NzY3NDQsMTk2Ljc2Mjc5MSBMMTU2LjU3Njc0NCwxOTYuNzYyNzkxIFoiIHN0cm9rZT0iI0QzMzgzMyIgc3Ryb2tlLXdpZHRoPSIyIi8+JiN4YTsJCTxwYXRoIGQ9Ik0xNzEuODU3MzY0LDE5OS45Mzc5ODQgQzE3MS44NTczNjQsMTk5LjkzNzk4NCAxNjguNTgyOTQ2LDE5NS4yNzQ0MTkgMTcwLjk2NDM0MSwxOTMuODg1MjcxIEMxNzMuMzQ1NzM2LDE5Mi40OTYxMjQgMTc1LjYyNzkwNywxOTMuODg1MjcxIDE3Ny4wMTcwNTQsMTkxLjUwMzg3NiBDMTc4LjQwNjIwMiwxODkuMTIyNDgxIDE3Ny4wMTcwNTQsMTg3LjczMzMzMyAxNzcuNTEzMTc4LDE4NC45NTUwMzkgQzE3OC4wMDkzMDIsMTgyLjE3Njc0NCAxODAuMjkxNDczLDE4MS42ODA2MiAxODIuNjcyODY4LDE4MS4xODQ0OTYgQzE4NS4wNTQyNjQsMTgwLjY4ODM3MiAxOTEuNjAzMTAxLDE3OS43OTUzNDkgMTkyLjQ5NjEyNCwxODIuMDc3NTE5IEwxODkuNzE3ODI5LDE3My42NDM0MTEgTDE4NC4wNjIwMTYsMTcxLjc1ODE0IEwxNjYuMzAwNzc1LDE4Mi4wNzc1MTkgTDE2NS40MDc3NTIsMTg3LjIzNzIwOSBMMTY1LjQwNzc1MiwxOTcuNTU2NTg5IiBmaWxsPSIjRUYzRDNBIi8+JiN4YTsJCTxwYXRoIGQ9Ik0xMjIuNjQxODYsMjE1LjQxNzA1NCBDMTIyLjA0NjUxMiwyMDguMDc0NDE5IDEyMS40NTExNjMsMjAwLjgzMTAwOCAxMjAuODU1ODE0LDE5My40ODgzNzIgQzExOS44NjM1NjYsMTgyLjU3MzY0MyAxMjMuNDM1NjU5LDE4NC40NTg5MTUgMTMyLjk2MTI0LDE4NC40NTg5MTUgQzEzNC40NDk2MTIsMTg0LjQ1ODkxNSAxNDEuODkxNDczLDE4Ni4xNDU3MzYgMTQyLjM4NzU5NywxODcuMjM3MjA5IEMxNDQuOTY3NDQyLDE5Mi40OTYxMjQgMTM4LjEyMDkzLDE5MS4zMDU0MjYgMTQ1LjM2NDM0MSwxOTUuMjc0NDE5IEMxNTEuNDE3MDU0LDE5OC41NDg4MzcgMTYyLjIzMjU1OCwxOTMuMjg5OTIyIDE1OS43NTE5MzgsMTg1Ljg0ODA2MiBDMTU4LjM2Mjc5MSwxODQuMTYxMjQgMTUyLjYwNzc1MiwxODUuMzUxOTM4IDE1MC41MjQwMzEsMTg0LjI2MDQ2NSBDMTQ2Ljg1MjcxMywxODIuMzc1MTk0IDE0My4xODEzOTUsMTgwLjQ4OTkyMiAxMzkuNTEwMDc4LDE3OC42MDQ2NTEgQzEzNC44NDY1MTIsMTc2LjIyMzI1NiAxMjQuMTMwMjMzLDE3Mi42NTExNjMgMTE5LjE2ODk5MiwxNzYuMDI0ODA2IEMxMDYuNTY3NDQyLDE4NC41NTgxNCAxMTkuOTYyNzkxLDIwNS45OTA2OTggMTI0LjQyNzkwNywyMTQuOTIwOTMiIGZpbGw9IiNFRjNEM0EiLz4mI3hhOwkJPHBhdGggZD0iTTEzNS4wNDQ5NjEsNDkuNDEzOTUzNSBDMTIyLjI0NDk2MSw0Ni40MzcyMDkzIDExNS44OTQ1NzQsNTQuNzcyMDkzIDExMi4wMjQ4MDYsNjMuNDA0NjUxMiBDMTA4LjU1MTkzOCw2Mi42MTA4NTI3IDEwOS45NDEwODUsNTcuODQ4MDYyIDExMC44MzQxMDksNTUuNDY2NjY2NyBDMTEzLjExNjI3OSw0OS4yMTU1MDM5IDEyMi4zNDQxODYsNDAuNzgxMzk1MyAxMjkuODg1MjcxLDQxLjk3MjA5MyBDMTMzLjA2MDQ2NSw0Mi4zNjg5OTIyIDEzNy40MjYzNTcsNDUuMzQ1NzM2NCAxMzUuMDQ0OTYxLDQ5LjQxMzk1MzUiIGZpbGw9IiMyMzFGMjAiLz4mI3hhOwkJPHBhdGggZD0iTTE5Ny4yNTg5MTUsNjMuOTAwNzc1MiBMMTk3Ljg1NDI2NCw2My45MDA3NzUyIEMyMDAuNzMxNzgzLDY5Ljg1NDI2MzYgMjAzLjIxMjQwMyw3Ni4yMDQ2NTEyIDIwNi44ODM3MjEsODEuNTYyNzkwNyBDMjA0LjQwMzEwMSw4Ny4zMTc4Mjk1IDE4OC40Mjc5MDcsOTIuMjc5MDY5OCAxODguNjI2MzU3LDgyLjE1ODEzOTUgQzE5Mi4wOTkyMjUsODAuNjY5NzY3NCAxOTguMDUyNzEzLDgxLjg2MDQ2NTEgMjAxLjEyODY4Miw3OS44NzU5NjkgQzE5OS4zNDI2MzYsNzUuMDEzOTUzNSAxOTYuODYyMDE2LDcwLjg0NjUxMTYgMTk3LjI1ODkxNSw2My45MDA3NzUyIiBmaWxsPSIjMjMxRjIwIi8+JiN4YTsJCTxwYXRoIGQ9Ik0xNDEuNDk0NTc0LDY0LjA5OTIyNDggQzE0NC4yNzI4NjgsNjkuMTU5Njg5OSAxNDUuMTY1ODkxLDc0LjQxODYwNDcgMTQ5LjAzNTY1OSw3OC4xODkxNDczIEMxNTAuODIxNzA1LDc5Ljg3NTk2OSAxNTQuMTk1MzQ5LDgxLjk1OTY4OTkgMTUyLjUwODUyNyw4Ni43MjI0ODA2IEMxNTIuMTExNjI4LDg3LjgxMzk1MzUgMTQ5LjIzNDEwOSw5MC4yOTQ1NzM2IDE0Ny41NDcyODcsOTAuNzkwNjk3NyBDMTQxLjQ5NDU3NCw5Mi41NzY3NDQyIDEyNy4zMDU0MjYsOTEuMTg3NTk2OSAxMzIuMDY4MjE3LDgzLjU0NzI4NjggQzEzNy4xMjg2ODIsODMuNzQ1NzM2NCAxNDMuODc1OTY5LDg2LjgyMTcwNTQgMTQ3LjY0NjUxMiw4My4xNTAzODc2IEMxNDQuNzY4OTkyLDc4LjU4NjA0NjUgMTM5LjYwOTMwMiw2OS40NTczNjQzIDE0MS40OTQ1NzQsNjQuMDk5MjI0OCIgZmlsbD0iIzIzMUYyMCIvPiYjeGE7CQk8cGF0aCBkPSJNMTk0Ljk3Njc0NCwxMTUuMTAwNzc1IEMxODUuODQ4MDYyLDEyMC45NTUwMzkgMTc1LjYyNzkwNywxMjcuNDA0NjUxIDE2MC41NDU3MzYsMTI1LjkxNjI3OSBDMTU3LjM3MDU0MywxMjMuMTM3OTg0IDE1Ni4wODA2MiwxMTYuODg2ODIyIDE1OS4yNTU4MTQsMTEyLjgxODYwNSBDMTYwLjg0MzQxMSwxMTUuNTk2ODk5IDE1OS44NTExNjMsMTIwLjc1NjU4OSAxNjQuNDE1NTA0LDEyMS41NTAzODggQzE3Mi45NDg4MzcsMTIzLjAzODc2IDE4Mi44NzEzMTgsMTE2LjI5MTQ3MyAxODkuMDIzMjU2LDExNC4wMDkzMDIgQzE5Mi43OTM3OTgsMTA3LjU1OTY5IDE4OC43MjU1ODEsMTA1LjI3NzUxOSAxODUuMjUyNzEzLDEwMS4xMTAwNzggQzE3OC4yMDc3NTIsOTIuNjc1OTY5IDE2OC44ODA2Miw4Mi4xNTgxMzk1IDE2OS4xNzgyOTUsNjkuNTU2NTg5MSBDMTcyLjA1NTgxNCw2Ny40NzI4NjgyIDE3Mi4yNTQyNjQsNzIuNzMxNzgyOSAxNzIuNjUxMTYzLDczLjYyNDgwNjIgQzE3Ni4zMjI0ODEsODIuMTU4MTM5NSAxODUuNTUwMzg4LDkzLjE3MjA5MyAxOTIuMTk4NDUsMTAwLjUxNDcyOSBDMTkzLjg4NTI3MSwxMDIuMzAwNzc1IDE5Ni41NjQzNDEsMTA0LjA4NjgyMiAxOTYuODYyMDE2LDEwNS4yNzc1MTkgQzE5Ny43NTUwMzksMTA4LjY1MTE2MyAxOTQuNTc5ODQ1LDExMi44MTg2MDUgMTk0Ljk3Njc0NCwxMTUuMTAwNzc1IiBmaWxsPSIjMjMxRjIwIi8+JiN4YTsJCTxwYXRoIGQ9Ik03NC4xMjA5MzAyLDEwOC45NDg4MzcgQzcxLjI0MzQxMDksMTA3LjI2MjAxNiA3MC41NDg4MzcyLDEwMC4xMTc4MjkgNjcuMTc1MTkzOCw5OS45MTkzNzk4IEM2Mi4zMTMxNzgzLDk5LjYyMTcwNTQgNjMuMjA2MjAxNiwxMDkuMjQ2NTEyIDYzLjIwNjIwMTYsMTE0LjkwMjMyNiBDNTkuOTMxNzgyOSwxMTEuOTI1NTgxIDU5LjMzNjQzNDEsMTAyLjU5ODQ1IDYxLjcxNzgyOTUsOTcuODM1NjU4OSBDNTguOTM5NTM0OSw5Ni40NDY1MTE2IDU3Ljc0ODgzNzIsOTkuMzI0MDMxIDU2LjE2MTI0MDMsMTAwLjMxNjI3OSBDNTguMjQ0OTYxMiw4NS45Mjg2ODIyIDc3LjI5NjEyNCw5My42NjgyMTcxIDc0LjEyMDkzMDIsMTA4Ljk0ODgzNyIgZmlsbD0iIzIzMUYyMCIvPiYjeGE7CQk8cGF0aCBkPSJNMjAwLjczMTc4MywxMjEuMTUzNDg4IEMxOTYuNDY1MTE2LDEyOS4yODk5MjIgMTkwLjQxMjQwMywxMzguMjIwMTU1IDE3Ny45MTAwNzgsMTM4LjUxNzgyOSBDMTc3LjYxMjQwMywxMzUuOTM3OTg0IDE3Ny40MTM5NTMsMTMxLjg2OTc2NyAxNzcuOTEwMDc4LDEzMC4yODIxNzEgQzE4Ny41MzQ4ODQsMTI5LjI4OTkyMiAxOTMuNDg4MzcyLDEyNC40Mjc5MDcgMjAwLjczMTc4MywxMjEuMTUzNDg4IiBmaWxsPSIjMjMxRjIwIi8+JiN4YTsJCTxwYXRoIGQ9Ik0xNDAuOCwxMjYuNDEyNDAzIEMxNDguNzM3OTg0LDEzMC41Nzk4NDUgMTYzLjQyMzI1NiwxMzEuMDc1OTY5IDE3NC4zMzc5ODQsMTMwLjc3ODI5NSBDMTc0LjkzMzMzMywxMzMuMTU5NjkgMTc0LjkzMzMzMywxMzYuMTM2NDM0IDE3NC45MzMzMzMsMTM5LjAxMzk1MyBDMTYwLjk0MjYzNiwxMzkuNjA5MzAyIDE0NC40NzEzMTgsMTM2LjEzNjQzNCAxNDAuOCwxMjYuNDEyNDAzIiBmaWxsPSIjMjMxRjIwIi8+JiN4YTsJCTxwYXRoIGQ9Ik0xMzkuMzExNjI4LDEzNC4xNTE5MzggQzE0NC44NjgyMTcsMTQ4LjA0MzQxMSAxNjMuODIwMTU1LDE0Ni40NTU4MTQgMTc5Ljc5NTM0OSwxNDYuMDU4OTE1IEMxNzkuMTAwNzc1LDE0Ny44NDQ5NjEgMTc3LjYxMjQwMywxNTAuMDI3OTA3IDE3NS42Mjc5MDcsMTUwLjcyMjQ4MSBDMTcwLjQ2ODIxNywxNTIuODA2MjAyIDE1Ni4zNzgyOTUsMTU0LjM5Mzc5OCAxNDkuMjM0MTA5LDE1MC42MjMyNTYgQzE0NC43Njg5OTIsMTQ4LjI0MTg2IDE0MS43OTIyNDgsMTQyLjc4NDQ5NiAxMzkuMzExNjI4LDEzOS42MDkzMDIgQzEzOC4yMjAxNTUsMTM4LjEyMDkzIDEzMi4yNjY2NjcsMTM0LjI1MTE2MyAxMzkuMzExNjI4LDEzNC4xNTE5MzgiIGZpbGw9IiMyMzFGMjAiLz4mI3hhOwkJPHBhdGggZD0iTTE5NC4yODIxNzEsMjEwLjY1NDI2NCBDMTg3LjgzMjU1OCwyMjEuNzY3NDQyIDE4MS41ODEzOTUsMjMzLjE3ODI5NSAxNzMuOTQxMDg1LDI0Mi45MDIzMjYgQzE3Ny4xMTYyNzksMjMzLjQ3NTk2OSAxNzguNTA1NDI2LDIxNy42IDE3OS4wMDE1NSwyMDUuNDk0NTc0IEMxODUuNzQ4ODM3LDIwMi4zMTkzOCAxOTEuNTAzODc2LDIwNi4xODkxNDcgMTk0LjI4MjE3MSwyMTAuNjU0MjY0IiBmaWxsPSIjODFCMEM0Ii8+JiN4YTsJCTxwYXRoIGQ9Ik0yMjkuMTEwMDc4LDI1MC41NDI2MzYgQzIyMS44NjY2NjcsMjUyLjAzMTAwOCAyMTYuODA2MjAyLDI1OS4wNzU5NjkgMjA5LjY2MjAxNiwyNTguNTc5ODQ1IEMyMTMuNjMxMDA4LDI1My4xMjI0ODEgMjIwLjM3ODI5NSwyNTAuNzQxMDg1IDIyOS4xMTAwNzgsMjUwLjU0MjYzNiIgZmlsbD0iIzIzMUYyMCIvPiYjeGE7CQk8cGF0aCBkPSJNMjMyLjI4NTI3MSwyNjEuODU0MjY0IEMyMjYuMzMxNzgzLDI2Mi40NDk2MTIgMjE5LjM4NjA0NywyNjMuNDQxODYgMjEzLjQzMjU1OCwyNjIuOTQ1NzM2IEMyMTYuMzEwMDc4LDI1OC41Nzk4NDUgMjI3LjIyNDgwNiwyNjAuMTY3NDQyIDIzMi4yODUyNzEsMjYxLjg1NDI2NCIgZmlsbD0iIzIzMUYyMCIvPiYjeGE7CQk8cGF0aCBkPSJNMjM0LjM2ODk5MiwyNzEuNjc3NTE5IEMyMjcuNzIwOTMsMjcxLjc3Njc0NCAyMTkuNDg1MjcxLDI3MS42Nzc1MTkgMjEzLjEzNDg4NCwyNzEuMTgxMzk1IEMyMTYuOTA1NDI2LDI2Ny4xMTMxNzggMjMwLjEwMjMyNiwyNjkuNjkzMDIzIDIzNC4zNjg5OTIsMjcxLjY3NzUxOSIgZmlsbD0iIzIzMUYyMCIvPiYjeGE7CQk8cGF0aCBkPSJNMTgxLjc3OTg0NSwyOTguNDY4MjE3IEMxODIuNzcyMDkzLDMwNi44MDMxMDEgMTg2LjA0NjUxMiwzMTUuMjM3MjA5IDE4NS42NDk2MTIsMzI0LjM2NTg5MSBDMTgxLjk3ODI5NSwzMjUuNTU2NTg5IDE3OS44OTQ1NzQsMzI2LjY0ODA2MiAxNzQuOTMzMzMzLDMyNi42NDgwNjIgQzE3NC42MzU2NTksMzE4LjkwODUyNyAxNzMuNTQ0MTg2LDMwNy4wMDE1NSAxNzMuODQxODYsMjk5LjU1OTY5IEMxNzYuMjIzMjU2LDI5OS43NTgxNCAxNzkuNzk1MzQ5LDI5Ny44NzI4NjggMTgxLjc3OTg0NSwyOTguNDY4MjE3IiBmaWxsPSIjRENEOUQ4Ii8+JiN4YTsJCTxwYXRoIGQ9Ik0xNzEuMDYzNTY2LDE3NS40Mjk0NTcgQzE2Ny42ODk5MjIsMTc3LjYxMjQwMyAxNjQuOTExNjI4LDE4MC4yOTE0NzMgMTYxLjYzNzIwOSwxODIuNjcyODY4IEMxNTQuNDkzMDIzLDE4My4wNjk3NjcgMTUwLjYyMzI1NiwxODIuMTc2NzQ0IDE0NS40NjM1NjYsMTc4LjEwODUyNyBDMTQ1LjU2Mjc5MSwxNzcuODEwODUzIDE0Ni4wNTg5MTUsMTc3LjkxMDA3OCAxNDYuMDU4OTE1LDE3Ny41MTMxNzggQzE1My42OTkyMjUsMTgwLjg4NjgyMiAxNjMuNDIzMjU2LDE3Ni4xMjQwMzEgMTcxLjA2MzU2NiwxNzUuNDI5NDU3IiBmaWxsPSIjRjBENkI3Ii8+JiN4YTsJCTxwYXRoIGQ9Ik0xMzEuMTc1MTk0LDIyNy4zMjQwMzEgQzEzMy4yNTg5MTUsMjE4LjI5NDU3NCAxNDEuNDk0NTc0LDIxMy41MzE3ODMgMTQ4LjkzNjQzNCwyMDguNTcwNTQzIEMxNTYuNTc2NzQ0LDIxOC4yOTQ1NzQgMTYxLjI0MDMxLDIzMC43OTY4OTkgMTY2LjQsMjQyLjkwMjMyNiBDMTU0LjE5NTM0OSwyMzkuMjMxMDA4IDE0MS43OTIyNDgsMjMzLjM3Njc0NCAxMzEuMTc1MTk0LDIyNy4zMjQwMzEiIGZpbGw9IiM4MUIwQzQiLz4mI3hhOwkJPHBhdGggZD0iTTE3My44NDE4NiwyOTkuNjU4OTE1IEMxNzMuNTQ0MTg2LDMwNy4xMDA3NzUgMTc0LjUzNjQzNCwzMTguOTA4NTI3IDE3NC45MzMzMzMsMzI2Ljc0NzI4NyBDMTc5Ljg5NDU3NCwzMjYuNzQ3Mjg3IDE4MS45NzgyOTUsMzI1LjY1NTgxNCAxODUuNjQ5NjEyLDMyNC40NjUxMTYgQzE4Ni4wNDY1MTIsMzE1LjMzNjQzNCAxODIuNzcyMDkzLDMwNi45MDIzMjYgMTgxLjc3OTg0NSwyOTguNTY3NDQyIEMxNzkuNzk1MzQ5LDI5Ny44NzI4NjggMTc2LjIyMzI1NiwyOTkuNzU4MTQgMTczLjg0MTg2LDI5OS42NTg5MTUgTDE3My44NDE4NiwyOTkuNjU4OTE1IFogTTk3LjI0MDMxMDEsMjU3LjU4NzU5NyBDMTAwLjUxNDcyOSwyODcuNDU0MjY0IDEwNS4xNzgyOTUsMzEyLjQ1ODkxNSAxMTMuODEwODUzLDMzOC45NTE5MzggQzEzMi45NjEyNCwzNDQuODA2MjAyIDE1NS45ODEzOTUsMzQ1LjMwMjMyNiAxNzIuOTQ4ODM3LDM0MC4wNDM0MTEgQzE2OS44NzI4NjgsMzI1LjE1OTY5IDE3MS4xNjI3OTEsMzA3LjAwMTU1IDE2OS4zNzY3NDQsMjkxLjAyNjM1NyBDMTY3Ljk4NzU5NywyNzkuMDIwMTU1IDE2OC42ODIxNzEsMjY3LjAxMzk1MyAxNjYuNzk2ODk5LDI1NC44MDkzMDIgQzE0Ni4yNTczNjQsMjUwLjU0MjYzNiAxMTcuMjgzNzIxLDI1My44MTcwNTQgOTcuMjQwMzEwMSwyNTcuNTg3NTk3IEw5Ny4yNDAzMTAxLDI1Ny41ODc1OTcgWiBNMTcxLjY1ODkxNSwyNTUuMDA3NzUyIEMxNzEuNDYwNDY1LDI2Ny44MDc3NTIgMTcyLjI1NDI2NCwyODAuNTA4NTI3IDE3My4yNDY1MTIsMjkzLjMwODUyNyBDMTc4LjIwNzc1MiwyOTIuNjEzOTUzIDE4MS40ODIxNzEsMjkyLjExNzgyOSAxODYuMDQ2NTEyLDI5MS4wMjYzNTcgQzE4NC41NTgxNCwyNzguNzIyNDgxIDE4NC43NTY1ODksMjY0LjczMTc4MyAxODEuNjgwNjIsMjUzLjgxNzA1NCBDMTc4LjIwNzc1MiwyNTMuOTE2Mjc5IDE3NS4xMzE3ODMsMjUzLjgxNzA1NCAxNzEuNjU4OTE1LDI1NS4wMDc3NTIgTDE3MS42NTg5MTUsMjU1LjAwNzc1MiBaIE0xOTYuNTY0MzQxLDI1Mi45MjQwMzEgQzE5NC4xODI5NDYsMjUyLjQyNzkwNyAxOTEuNTAzODc2LDI1Mi45MjQwMzEgMTg5LjMyMDkzLDI1Mi45MjQwMzEgQzE5MC40MTI0MDMsMjYzLjM0MjYzNiAxOTIuODkzMDIzLDI3NC44NTI3MTMgMTkzLjc4NjA0NywyODUuODY2NjY3IEMxOTcuMjU4OTE1LDI4NS45NjU4OTEgMTk5LjE0NDE4NiwyODQuMjc5MDcgMjAyLjAyMTcwNSwyODMuNzgyOTQ2IEMyMDIuMjIwMTU1LDI3NC4xNTgxNCAyMDEuMjI3OTA3LDI2MC44NjIwMTYgMTk2LjU2NDM0MSwyNTIuOTI0MDMxIEwxOTYuNTY0MzQxLDI1Mi45MjQwMzEgTDE5Ni41NjQzNDEsMjUyLjkyNDAzMSBaIE0yMzQuMzY4OTkyLDI4Ny40NTQyNjQgQzI0MS43MTE2MjgsMjg1LjY2ODIxNyAyNDYuMjc1OTY5LDI3Ni43Mzc5ODQgMjQ0LjE5MjI0OCwyNjcuNTEwMDc4IEMyNDIuODAzMTAxLDI2MS4zNTgxNCAyNDAuNDIxNzA1LDI0OS42NDk2MTIgMjM3Ljc0MjYzNiwyNDUuNjgwNjIgQzIzNS44NTczNjQsMjQyLjgwMzEwMSAyMzAuNTk4NDUsMjM4LjkzMzMzMyAyMjYuMzMxNzgzLDI0MS42MTI0MDMgQzIxOS40ODUyNzEsMjQ1Ljk3ODI5NSAyMDcuNDc5MDcsMjQ3LjI2ODIxNyAyMDIuNTE3ODI5LDI1Mi41MjcxMzIgQzIwNC45OTg0NSwyNjAuODYyMDE2IDIwNS43OTIyNDgsMjcyLjE3MzY0MyAyMDYuNzg0NDk2LDI4Mi42OTE0NzMgQzIxNS4zMTc4MjksMjgzLjE4NzU5NyAyMjUuNzM2NDM0LDI4MC4zMTAwNzggMjMyLjg4MDYyLDI4My4zODYwNDcgQzIyNy45MTkzOCwyODQuOTczNjQzIDIyMS41Njg5OTIsMjg0Ljk3MzY0MyAyMTcuMzAyMzI2LDI4Ny4zNTUwMzkgQzIyMC44NzQ0MTksMjg5LjA0MTg2IDIyOS4wMTA4NTMsMjg4Ljc0NDE4NiAyMzQuMzY4OTkyLDI4Ny40NTQyNjQgTDIzNC4zNjg5OTIsMjg3LjQ1NDI2NCBMMjM0LjM2ODk5MiwyODcuNDU0MjY0IFogTTE2Ni4zMDA3NzUsMjQyLjkwMjMyNiBDMTYxLjE0MTA4NSwyMzAuNzk2ODk5IDE1Ni40Nzc1MTksMjE4LjI5NDU3NCAxNDguODM3MjA5LDIwOC41NzA1NDMgQzE0MS4zOTUzNDksMjEzLjUzMTc4MyAxMzMuMjU4OTE1LDIxOC4yOTQ1NzQgMTMxLjA3NTk2OSwyMjcuMzI0MDMxIEMxNDEuNzkyMjQ4LDIzMy4zNzY3NDQgMTU0LjE5NTM0OSwyMzkuMjMxMDA4IDE2Ni4zMDA3NzUsMjQyLjkwMjMyNiBMMTY2LjMwMDc3NSwyNDIuOTAyMzI2IFogTTE3OS4wMDE1NSwyMDUuNDk0NTc0IEMxNzguNTA1NDI2LDIxNy42IDE3Ny4xMTYyNzksMjMzLjQ3NTk2OSAxNzMuOTQxMDg1LDI0Mi45MDIzMjYgQzE4MS41ODEzOTUsMjMzLjA3OTA3IDE4Ny44MzI1NTgsMjIxLjc2NzQ0MiAxOTQuMjgyMTcxLDIxMC42NTQyNjQgQzE5MS41MDM4NzYsMjA2LjE4OTE0NyAxODUuNzQ4ODM3LDIwMi4zMTkzOCAxNzkuMDAxNTUsMjA1LjQ5NDU3NCBMMTc5LjAwMTU1LDIwNS40OTQ1NzQgWiBNMTY0LjYxMzk1MywyMDAuNDM0MTA5IEMxNjEuNzM2NDM0LDIwMC4xMzY0MzQgMTU5LjI1NTgxNCwyMDMuODA3NzUyIDE1NS40ODUyNzEsMjAyLjIyMDE1NSBDMTU0LjU5MjI0OCwyMDMuMjEyNDAzIDE1My43OTg0NSwyMDQuMjA0NjUxIDE1Mi45MDU0MjYsMjA1LjE5Njg5OSBDMTYxLjI0MDMxLDIxNS4zMTc4MjkgMTY1LjExMDA3OCwyMjkuNjA2MjAyIDE3MS41NTk2OSwyNDEuNDEzOTUzIEMxNzUuMDMyNTU4LDIzMC4wMDMxMDEgMTc0LjYzNTY1OSwyMTcuNiAxNzUuNDI5NDU3LDIwNS4xOTY4OTkgQzE3MC42NjY2NjcsMjA1LjM5NTM0OSAxNjcuOTg3NTk3LDIwMC43MzE3ODMgMTY0LjYxMzk1MywyMDAuNDM0MTA5IEwxNjQuNjEzOTUzLDIwMC40MzQxMDkgWiBNMTU1LjM4NjA0NywxODguMjI5NDU3IEMxNTUuMDg4MzcyLDE5MS43MDIzMjYgMTU1Ljg4MjE3MSwxOTIuNzkzNzk4IDE1Ni41NzY3NDQsMTk2Ljc2Mjc5MSBDMTY3Ljg4ODM3MiwyMDAuMzM0ODg0IDE2Ni4wMDMxMDEsMTgxLjE4NDQ5NiAxNTUuMzg2MDQ3LDE4OC4yMjk0NTcgTDE1NS4zODYwNDcsMTg4LjIyOTQ1NyBaIE0xNDIuNzg0NDk2LDE4NC4wNjIwMTYgQzEzNy45MjI0ODEsMTgxLjM4Mjk0NiAxMzAuNTc5ODQ1LDE3OC41MDU0MjYgMTI0LjIyOTQ1NywxNzcuMzE0NzI5IEMxMTYuMzkwNjk4LDE3NS44MjYzNTcgMTE3LjE4NDQ5NiwxODguMDMxMDA4IDExNy40ODIxNzEsMTk1LjI3NDQxOSBDMTE3Ljc3OTg0NSwyMDEuMDI5NDU3IDEyMC43NTY1ODksMjA3LjA4MjE3MSAxMjIuMDQ2NTEyLDIxMC45NTE5MzggQzEyMi42NDE4NiwyMTIuNzM3OTg0IDEyMi44NDAzMSwyMTQuNjIzMjU2IDEyNC4zMjg2ODIsMjE1LjAyMDE1NSBDMTI3LjAwNzc1MiwyMTUuNjE1NTA0IDEzNS45Mzc5ODQsMjEyLjE0MjYzNiAxMzguNDE4NjA1LDIxMC43NTM0ODggQzE0My43NzY3NDQsMjA3Ljg3NTk2OSAxNDcuOTQ0MTg2LDIwMy4yMTI0MDMgMTUyLjUwODUyNywyMDAuMDM3MjA5IEMxNTIuNjA3NzUyLDE5OC41NDg4MzcgMTUyLjYwNzc1MiwxOTYuOTYxMjQgMTUyLjcwNjk3NywxOTUuNDcyODY4IEMxNDkuOTI4NjgyLDE5NC4wODM3MjEgMTQ2Ljg1MjcxMywxOTMuMTkwNjk4IDE0Mi43ODQ0OTYsMTkyLjk5MjI0OCBDMTQ1LjQ2MzU2NiwxOTEuNjAzMTAxIDE0OS41MzE3ODMsMTkxLjYwMzEwMSAxNTIuMDEyNDAzLDE5MC4wMTU1MDQgQzE1Mi4wMTI0MDMsMTg5LjQyMDE1NSAxNTIuMDEyNDAzLDE4OC44MjQ4MDYgMTUyLjExMTYyOCwxODguMjI5NDU3IEMxNDcuNTQ3Mjg3LDE4Ny43MzMzMzMgMTQ1Ljg2MDQ2NSwxODUuNzQ4ODM3IDE0Mi43ODQ0OTYsMTg0LjA2MjAxNiBMMTQyLjc4NDQ5NiwxODQuMDYyMDE2IFogTTk2LjE0ODgzNzIsMTc1LjYyNzkwNyBDOTIuMDgwNjIwMiwxNzkuNzk1MzQ5IDEwNy41NTk2OSwxODUuMzUxOTM4IDExMi40MjE3MDUsMTg1LjY0OTYxMiBDMTEyLjQyMTcwNSwxODMuMDY5NzY3IDExMy45MTAwNzgsMTgwLjU4OTE0NyAxMTMuNjEyNDAzLDE3OC43MDM4NzYgQzEwNy43NTgxNCwxNzcuNzExNjI4IDEwMC4xMTc4MjksMTc4LjQwNjIwMiA5Ni4xNDg4MzcyLDE3NS42Mjc5MDcgTDk2LjE0ODgzNzIsMTc1LjYyNzkwNyBaIE0xNDYuMTU4MTQsMTc3LjUxMzE3OCBDMTQ2LjE1ODE0LDE3Ny45MTAwNzggMTQ1LjY2MjAxNiwxNzcuODEwODUzIDE0NS41NjI3OTEsMTc4LjEwODUyNyBDMTUwLjgyMTcwNSwxODIuMTc2NzQ0IDE1NC42OTE0NzMsMTgzLjA2OTc2NyAxNjEuNzM2NDM0LDE4Mi42NzI4NjggQzE2NC45MTE2MjgsMTgwLjM5MDY5OCAxNjcuNzg5MTQ3LDE3Ny42MTI0MDMgMTcxLjE2Mjc5MSwxNzUuNDI5NDU3IEMxNjMuNDIzMjU2LDE3Ni4xMjQwMzEgMTUzLjY5OTIyNSwxODAuODg2ODIyIDE0Ni4xNTgxNCwxNzcuNTEzMTc4IEwxNDYuMTU4MTQsMTc3LjUxMzE3OCBaIE0xOTIsMTkxLjQwNDY1MSBDMTkxLjgwMTU1LDE4Ni44NDAzMSAxOTAuNjEwODUzLDE3Ny40MTM5NTMgMTg3LjczMzMzMywxNzUuNzI3MTMyIEMxODEuNzc5ODQ1LDE3Mi4yNTQyNjQgMTcxLjI2MjAxNiwxODIuNzcyMDkzIDE2Ni43OTY4OTksMTg0LjM1OTY5IEMxNjcuMjkzMDIzLDE4NS43NDg4MzcgMTY4LjA4NjgyMiwxODYuODQwMzEgMTY4LjE4NjA0NywxODguNjI2MzU3IEMxNzAuODY1MTE2LDE4Ny45MzE3ODMgMTc0LjA0MDMxLDE4OC40Mjc5MDcgMTc2LjMyMjQ4MSwxODkuNTE5MzggQzE3My42NDM0MTEsMTg5LjgxNzA1NCAxNzAuNzY1ODkxLDE4OS44MTcwNTQgMTY4Ljk3OTg0NSwxOTEuMTA2OTc3IEMxNjguMzg0NDk2LDE5Mi45OTIyNDggMTY5LjE3ODI5NSwxOTUuNDcyODY4IDE2OC42ODIxNzEsMTk4LjA1MjcxMyBDMTc0LjkzMzMzMywxOTkuODM4NzYgMTgyLjE3Njc0NCwyMDAuNzMxNzgzIDE5MC4xMTQ3MjksMjAxLjAyOTQ1NyBDMTkxLjYwMzEwMSwxOTkuMDQ0OTYxIDE5Mi4xOTg0NSwxOTUuMjc0NDE5IDE5MiwxOTEuNDA0NjUxIEwxOTIsMTkxLjQwNDY1MSBaIE04OS4zMDIzMjU2LDE3OS41OTY4OTkgQzg4LjAxMjQwMzEsMTc4LjcwMzg3NiA3OS4zNzk4NDUsMTY3LjQ5MTQ3MyA3OC4xODkxNDczLDE2Ny45ODc1OTcgQzYyLjYxMDg1MjcsMTc0LjEzOTUzNSA0OC4wMjQ4MDYyLDE4NC43NTY1ODkgMzUuMDI2MzU2NiwxOTQuODc3NTE5IEM0Ny40Mjk0NTc0LDIyMS41Njg5OTIgNTIuNDg5OTIyNSwyNTQuMjEzOTUzIDUzLjM4Mjk0NTcsMjg1LjY2ODIxNyBDNjcuNTcyMDkzLDI5Mi4zMTYyNzkgODAuMDc0NDE4NiwzMDEuOTQxMDg1IDk5LjQyMzI1NTgsMzAyLjkzMzMzMyBDOTcuMTQxMDg1MywyODcuMTU2NTg5IDk1LjE1NjU4OTEsMjcyLjk2NzQ0MiA5My44NjY2NjY3LDI1OC4wODM3MjEgQzg5LjAwNDY1MTIsMjU2IDgyLjA1ODkxNDcsMjU4LjE4Mjk0NiA3Ny40OTQ1NzM2LDI1Ny40ODgzNzIgQzc3LjQ5NDU3MzYsMjUyLjAzMTAwOCA4NC40NDAzMTAxLDI1NS4xMDY5NzcgODUuMDM1NjU4OSwyNTEuNDM1NjU5IEM4NS40MzI1NTgxLDI0OC42NTczNjQgODEuMTY1ODkxNSwyNDguNDU4OTE1IDgyLjU1NTAzODgsMjQ0LjA5MzAyMyBDODYuMTI3MTMxOCwyNDUuMzgyOTQ2IDg4LjAxMjQwMzEsMjQ4LjI2MDQ2NSA5MS43ODI5NDU3LDI0OS4zNTE5MzggQzk1LjI1NTgxNCwyNDEuODEwODUzIDkxLjc4Mjk0NTcsMjI4LjQxNTUwNCA5Mi4yNzkwNjk4LDIyMi4wNjUxMTYgQzkyLjM3ODI5NDYsMjIwLjg3NDQxOSA5Mi44NzQ0MTg2LDIxNS41MTYyNzkgOTUuNTUzNDg4NCwyMTYuNDA5MzAyIEM5Ny45MzQ4ODM3LDIxNy4yMDMxMDEgOTUuNDU0MjYzNiwyMzAuNzk2ODk5IDk1LjY1MjcxMzIsMjM2Ljc1MDM4OCBDOTUuODUxMTYyOCwyNDIuMzA2OTc3IDk0Ljk1ODEzOTUsMjQ3LjU2NTg5MSA5Ny4yNDAzMTAxLDI1MS4wMzg3NiBDMTE1Ljg5NDU3NCwyNDguNDU4OTE1IDEzNC44NDY1MTIsMjQ2Ljg3MTMxOCAxNTUuMDg4MzcyLDI0Ni4yNzU5NjkgQzE1MC42MjMyNTYsMjQ0LjM5MDY5OCAxNDUuMzY0MzQxLDI0Mi42MDQ2NTEgMTM5LjYwOTMwMiwyMzkuMzMwMjMzIEMxMzYuNDM0MTA5LDIzNy41NDQxODYgMTI2LjYxMDg1MywyMzMuODcyODY4IDEyNS43MTc4MjksMjMwLjg5NjEyNCBDMTI0LjIyOTQ1NywyMjYuMTMzMzMzIDEyOS40ODgzNzIsMjIzLjY1MjcxMyAxMzAuMzgxMzk1LDIxOS41ODQ0OTYgQzEyMC45NTUwMzksMjI0Ljc0NDE4NiAxMTkuMTY4OTkyLDIxNC42MjMyNTYgMTE2Ljg4NjgyMiwyMDcuNTc4Mjk1IEMxMTQuOTAyMzI2LDIwMS4xMjg2ODIgMTEzLjcxMTYyOCwxOTYuMjY2NjY3IDExMy4yMTU1MDQsMTkyLjU5NTM0OSBDMTA0Ljk3OTg0NSwxODguNDI3OTA3IDk2LjI0ODA2MiwxODQuNTU4MTQgODkuMzAyMzI1NiwxNzkuNTk2ODk5IEw4OS4zMDIzMjU2LDE3OS41OTY4OTkgTDg5LjMwMjMyNTYsMTc5LjU5Njg5OSBaIE0xODMuNzY0MzQxLDE2OS4yNzc1MTkgQzE5Ni43NjI3OTEsMTYzLjAyNjM1NyAxOTkuMTQ0MTg2LDE5Mi43OTM3OTggMTkzLjk4NDQ5NiwyMDIuNDE4NjA1IEMxOTQuNzc4Mjk1LDIwNS4yOTYxMjQgMTk3LjQ1NzM2NCwyMDYuMzg3NTk3IDE5OC41NDg4MzcsMjA4Ljk2NzQ0MiBDMTkxLjMwNTQyNiwyMjEuOTY1ODkxIDE4My4yNjgyMTcsMjM0LjA3MTMxOCAxNzUuODI2MzU3LDI0Ni44NzEzMTggQzE4MS4yODM3MjEsMjQzLjM5ODQ1IDE4OS4yMjE3MDUsMjQ2LjI3NTk2OSAxOTUuNjcxMzE4LDI0My42OTYxMjQgQzE5OC4wNTI3MTMsMjQyLjgwMzEwMSAxOTkuNzM5NTM1LDIzNy4zNDU3MzYgMjAxLjUyNTU4MSwyMzIuOTc5ODQ1IEMyMDYuNDg2ODIyLDIyMS4wNzI4NjggMjExLjY0NjUxMiwyMDUuOTkwNjk4IDIxMy45Mjg2ODIsMTk0LjY3OTA3IEMyMTQuNDI0ODA2LDE5Mi4wOTkyMjUgMjE1LjkxMzE3OCwxODYuNDQzNDExIDIxNS41MTYyNzksMTg0LjE2MTI0IEMyMTQuOTIwOTMsMTc5Ljk5Mzc5OCAyMDkuMzY0MzQxLDE3Ni45MTc4MjkgMjA2LjQ4NjgyMiwxNzQuNDM3MjA5IEMyMDEuMjI3OTA3LDE2OS42NzQ0MTkgMTk3Ljk1MzQ4OCwxNjUuNjA2MjAyIDE5Mi4zOTY4OTksMTYxLjE0MTA4NSBDMTkwLjMxMzE3OCwxNjQuNDE1NTA0IDE4NS41NTAzODgsMTY2LjU5ODQ1IDE4My43NjQzNDEsMTY5LjI3NzUxOSBMMTgzLjc2NDM0MSwxNjkuMjc3NTE5IEwxODMuNzY0MzQxLDE2OS4yNzc1MTkgWiBNNTkuNjM0MTA4NSw1NC4wNzc1MTk0IEM1My40ODIxNzA1LDYwLjkyNDAzMSA1NC43NzIwOTMsNzMuNjI0ODA2MiA1NS40NjY2NjY3LDgyLjc1MzQ4ODQgQzY2LjY3OTA2OTgsNzUuNzA4NTI3MSA4MS40NjM1NjU5LDgzLjM0ODgzNzIgODEuMzY0MzQxMSw5NS4yNTU4MTQgQzg2LjcyMjQ4MDYsOTUuMTU2NTg5MSA4My4zNDg4MzcyLDg4LjYwNzc1MTkgODIuMzU2NTg5MSw4NC4zNDEwODUzIEM3OS4xODEzOTUzLDcwLjU0ODgzNzIgODcuNzE0NzI4Nyw1NS42NjUxMTYzIDgyLjc1MzQ4ODQsNDMuMDYzNTY1OSBDNzMuMTI4NjgyMiw0My44NTczNjQzIDY1LjI4OTkyMjUsNDcuNzI3MTMxOCA1OS42MzQxMDg1LDU0LjA3NzUxOTQgTDU5LjYzNDEwODUsNTQuMDc3NTE5NCBMNTkuNjM0MTA4NSw1NC4wNzc1MTk0IFogTTEwMy44ODgzNzIsMTQuNDg2ODIxNyBDODkuODk3Njc0NCwxOC40NTU4MTQgNzEuOTM3OTg0NSwyOC42NzU5NjkgNjYuMTgyOTQ1Nyw0MS4yNzc1MTk0IEM3MC42NDgwNjIsNDAuNTgyOTQ1NyA3My43MjQwMzEsMzguNCA3OC4wODk5MjI1LDM4LjEwMjMyNTYgQzc5Ljc3Njc0NDIsMzguMDAzMTAwOCA4MS45NTk2ODk5LDM4Ljc5Njg5OTIgODMuODQ0OTYxMiwzOC4zMDA3NzUyIEM4Ny42MTU1MDM5LDM3LjMwODUyNzEgOTAuODg5OTIyNSwyOC43NzUxOTM4IDkzLjc2NzQ0MTksMjUuNiBDOTYuNTQ1NzM2NCwyMi41MjQwMzEgOTkuOTE5Mzc5OCwyMS4xMzQ4ODM3IDEwMi4yMDE1NSwxOC4zNTY1ODkxIEMxMDMuNjg5OTIyLDE3LjY2MjAxNTUgMTA1Ljg3Mjg2OCwxNy42NjIwMTU1IDEwNS45NzIwOTMsMTUuNDc5MDY5OCBDMTA1LjM3Njc0NCwxNC43ODQ0OTYxIDEwNC42ODIxNzEsMTQuMjg4MzcyMSAxMDMuODg4MzcyLDE0LjQ4NjgyMTcgTDEwMy44ODgzNzIsMTQuNDg2ODIxNyBaIE0xNzYuODE4NjA1LDE4LjI1NzM2NDMgQzE2Mi4yMzI1NTgsMTAuMDIxNzA1NCAxMzcuNjI0ODA2LDMuODY5NzY3NDQgMTIyLjE0NTczNiwxMS42MDkzMDIzIEMxMDkuNjQzNDExLDE3Ljg2MDQ2NTEgOTIuNzc1MTkzOCwyOC4xNzk4NDUgODcuMDIwMTU1LDQxLjE3ODI5NDYgQzkyLjM3ODI5NDYsNTMuNzc5ODQ1IDg1LjQzMjU1ODEsNjUuMjg5OTIyNSA4NC45MzY0MzQxLDc4LjA4OTkyMjUgQzg0LjczNzk4NDUsODQuOTM2NDM0MSA4OC4xMTE2Mjc5LDkwLjc5MDY5NzcgODguNDA5MzAyMyw5OC4yMzI1NTgxIEM4Ni41MjQwMzEsMTAxLjMwODUyNyA4MC45Njc0NDE5LDEwMS42MDYyMDIgNzcuMDk3Njc0NCwxMDEuNDA3NzUyIEM3NS44MDc3NTE5LDk0Ljg1ODkxNDcgNzMuNTI1NTgxNCw4Ny41MTYyNzkxIDY2Ljc3ODI5NDYsODYuNzIyNDgwNiBDNTcuMjUyNzEzMiw4NS42MzEwMDc4IDUwLjIwNzc1MTksOTMuNTY4OTkyMiA0OS44MTA4NTI3LDEwMS44MDQ2NTEgQzQ5LjMxNDcyODcsMTExLjUyODY4MiA1Ny4yNTI3MTMyLDEyNy42MDMxMDEgNjguNTY0MzQxMSwxMjYuNTExNjI4IEM3Mi45MzAyMzI2LDEyNi4xMTQ3MjkgNzQuMDIxNzA1NCwxMjEuNzQ4ODM3IDc4Ljc4NDQ5NjEsMTIxLjc0ODgzNyBDODEuMzY0MzQxMSwxMjYuOTA4NTI3IDc0LjgxNTUwMzksMTI4LjQ5NjEyNCA3NC4xMjA5MzAyLDEzMi4xNjc0NDIgQzczLjkyMjQ4MDYsMTMzLjE1OTY5IDc0LjYxNzA1NDMsMTM2LjgzMTAwOCA3NS4xMTMxNzgzLDEzOC42MTcwNTQgQzc3LjE5Njg5OTIsMTQ3LjA1MTE2MyA4MS43NjEyNDAzLDE1OC4wNjUxMTYgODYuMjI2MzU2NiwxNjQuNTE0NzI5IEM5MS45ODEzOTUzLDE3Mi43NTAzODggMTAzLjE5Mzc5OCwxNzMuOTQxMDg1IDExNS4yOTkyMjUsMTc0LjczNDg4NCBDMTE3LjQ4MjE3MSwxNzAuMDcxMzE4IDEyNS40MjAxNTUsMTcwLjQ2ODIxNyAxMzAuNTc5ODQ1LDE3MS42NTg5MTUgQzEyNC4zMjg2ODIsMTY5LjE3ODI5NSAxMTguNTczNjQzLDE2My4yMjQ4MDYgMTEzLjgxMDg1MywxNTcuOTY1ODkxIEMxMDguMzUzNDg4LDE1MS45MTMxNzggMTAyLjc5Njg5OSwxNDUuNDYzNTY2IDEwMi40OTkyMjUsMTM3LjUyNTU4MSBDMTEyLjkxNzgyOSwxNTEuOTEzMTc4IDEyMS40NTExNjMsMTY0LjUxNDcyOSAxNDAuMzAzODc2LDE3MC44NjUxMTYgQzE1NC41OTIyNDgsMTc1LjYyNzkwNyAxNzEuMjYyMDE2LDE2OC42ODIxNzEgMTgyLjI3NTk2OSwxNjAuOTQyNjM2IEMxODYuODQwMzEsMTU3Ljc2NzQ0MiAxODkuNTE5MzgsMTUyLjYwNzc1MiAxOTIuNzkzNzk4LDE0OC4wNDM0MTEgQzIwNC44OTkyMjUsMTMwLjU3OTg0NSAyMTAuNTU1MDM5LDEwNS43NzM2NDMgMjA5LjM2NDM0MSw4MS42NjIwMTU1IEMyMDguODY4MjE3LDcxLjczOTUzNDkgMjA4Ljg2ODIxNyw2MS44MTcwNTQzIDIwNS40OTQ1NzQsNTUuMTY4OTkyMiBDMjAyLjAyMTcwNSw0OC4yMjMyNTU4IDE5MC4yMTM5NTMsNDEuODcyODY4MiAxODMuMjY4MjE3LDQ4LjIyMzI1NTggQzE4MS45NzgyOTUsNDEuMzc2NzQ0MiAxODkuMDIzMjU2LDM3LjIwOTMwMjMgMTk3LjI1ODkxNSwzOS42ODk5MjI1IEMxOTEuNDA0NjUxLDMyLjA0OTYxMjQgMTg1LjI1MjcxMywyMy4wMjAxNTUgMTc2LjgxODYwNSwxOC4yNTczNjQzIEwxNzYuODE4NjA1LDE4LjI1NzM2NDMgTDE3Ni44MTg2MDUsMTguMjU3MzY0MyBaIE0yMDQuMDA2MjAyLDI0Mi42MDQ2NTEgQzIxNS40MTcwNTQsMjM2Ljk0ODgzNyAyMzYuNjUxMTYzLDIyNy40MjMyNTYgMjQzLjY5NjEyNCwyNDIuNjA0NjUxIEMyNDYuMzc1MTk0LDI0OC4yNjA0NjUgMjQ5LjQ1MTE2MywyNTcuNjg2ODIyIDI1MC43NDEwODUsMjYzLjU0MTA4NSBDMjUyLjYyNjM1NywyNzEuNjc3NTE5IDI0OC42NTczNjQsMjg4Ljk0MjYzNiAyNDAuMjIzMjU2LDI5MS42MjE3MDUgQzIzMi43ODEzOTUsMjk0LjAwMzEwMSAyMjQuMTQ4ODM3LDI5My45MDM4NzYgMjE1LjIxODYwNSwyOTIuMTE3ODI5IEMyMTQuMTI3MTMyLDI5MS4yMjQ4MDYgMjEzLjAzNTY1OSwyODkuNzM2NDM0IDIxMi4xNDI2MzYsMjg4LjE0ODgzNyBDMjA1Ljc5MjI0OCwyODcuOTUwMzg4IDE5OS43Mzk1MzUsMjg4LjQ0NjUxMiAxOTQuNzc4Mjk1LDI5MS4xMjU1ODEgQzE5NS4yNzQ0MTksMjk1Ljg4ODM3MiAxOTIuMDk5MjI1LDI5Ni41ODI5NDYgMTg5LjAyMzI1NiwyOTcuNTc1MTk0IEMxODYuODQwMzEsMzA2LjQwNjIwMiAxOTMuNDg4MzcyLDMxNy45MTYyNzkgMTkxLjkwMDc3NSwzMjUuODU0MjY0IEMxOTAuODA5MzAyLDMzMS42MDkzMDIgMTgzLjc2NDM0MSwzMzIuNTAyMzI2IDE3OC42MDQ2NTEsMzMzLjQ5NDU3NCBDMTc4LjQwNjIwMiwzMzYuNjY5NzY3IDE3OC44MDMxMDEsMzM5LjM0ODgzNyAxNzkuMiwzNDIuMDI3OTA3IEMxNzguMDA5MzAyLDM0Ni4zOTM3OTggMTcyLjc1MDM4OCwzNDguODc0NDE5IDE2Ny42ODk5MjIsMzQ5LjQ2OTc2NyBDMTUxLjExOTM4LDM1MS40NTQyNjQgMTI2LjAxNTUwNCwzNTIuMzQ3Mjg3IDExMC4xMzk1MzUsMzQ2LjU5MjI0OCBDMTA1LjY3NDQxOSwzMzUuNjc3NTE5IDEwMi4yMDE1NSwzMjIuNDgwNjIgOTguNTMwMjMyNiwzMTAuMDc3NTE5IEM4My4wNTExNjI4LDMxMS43NjQzNDEgNzAuNDQ5NjEyNCwzMDMuNDI5NDU3IDU4LjY0MTg2MDUsMjk3Ljg3Mjg2OCBDNTQuNTczNjQzNCwyOTUuOTg3NTk3IDQ4LjkxNzgyOTUsMjk0Ljg5NjEyNCA0Ny4zMzAyMzI2LDI5MS42MjE3MDUgQzQ1Ljg0MTg2MDUsMjg4LjQ0NjUxMiA0Ni40MzcyMDkzLDI4Mi4zOTM3OTggNDYuMDQwMzEwMSwyNzYuNzM3OTg0IEM0NS4xNDcyODY4LDI2Mi4xNTE5MzggNDQuMjU0MjYzNiwyNDguMDYyMDE2IDQwLjQ4MzcyMDksMjMzLjE3ODI5NSBDMzguNzk2ODk5MiwyMjYuNDMxMDA4IDM1LjcyMDkzMDIsMjIwLjU3Njc0NCAzMy42MzcyMDkzLDIxNC4xMjcxMzIgQzMxLjY1MjcxMzIsMjA4LjE3MzY0MyAyOC4yNzkwNjk4LDIwMC43MzE3ODMgMjcuMzg2MDQ2NSwxOTQuNzc4Mjk1IEMyNi4wOTYxMjQsMTg1Ljk0NzI4NyAzNC40MzEwMDc4LDE4NS40NTExNjMgMzkuNjg5OTIyNSwxODEuNTgxMzk1IEM0Ny45MjU1ODE0LDE3NS42Mjc5MDcgNTQuMzc1MTkzOCwxNzIuMzUzNDg4IDYzLjMwNTQyNjQsMTY2Ljk5NTM0OSBDNjUuOTg0NDk2MSwxNjUuNDA3NzUyIDczLjkyMjQ4MDYsMTYxLjQzODc2IDc0LjgxNTUwMzksMTU5LjU1MzQ4OCBDNzYuNjAxNTUwNCwxNTUuODgyMTcxIDcxLjczOTUzNDksMTUwLjcyMjQ4MSA3MC40NDk2MTI0LDE0Ny44NDQ5NjEgQzY4LjM2NTg5MTUsMTQzLjI4MDYyIDY3LjI3NDQxODYsMTM5LjQxMDg1MyA2Ni45NzY3NDQyLDEzNC45NDU3MzYgQzU5LjUzNDg4MzcsMTMzLjc1NTAzOSA1My43Nzk4NDUsMTI5LjI4OTkyMiA1MC40MDYyMDE2LDEyNC4zMjg2ODIgQzQ0Ljc1MDM4NzYsMTE1Ljk5Mzc5OCA0MC43ODEzOTUzLDEwMC42MTM5NTMgNDUuNzQyNjM1Nyw4OS4wMDQ2NTEyIEM0Ni4xMzk1MzQ5LDg4LjExMTYyNzkgNDguMDI0ODA2Miw4Ni4yMjYzNTY2IDQ4LjMyMjQ4MDYsODQuODM3MjA5MyBDNDguOTE3ODI5NSw4Mi4wNTg5MTQ3IDQ3LjIzMTAwNzgsNzguMzg3NTk2OSA0Ny4xMzE3ODI5LDc1LjQxMDg1MjcgQzQ2LjYzNTY1ODksNjAuMjI5NDU3NCA0OS43MTE2Mjc5LDQ3LjEzMTc4MjkgNTkuOTMxNzgyOSw0Mi41Njc0NDE5IEM2NC4wOTkyMjQ4LDI1Ljk5Njg5OTIgNzguOTgyOTQ1NywyMC41Mzk1MzQ5IDkyLjk3MzY0MzQsMTIuMzAzODc2IEM5OC4yMzI1NTgxLDkuMjI3OTA2OTggMTAzLjk4NzU5Nyw3LjI0MzQxMDg1IDEwOS45NDEwODUsNS4wNjA0NjUxMiBDMTMxLjI3NDQxOSwtMi43NzgyOTQ1NyAxNjQuMTE3ODI5LC0xLjI4OTkyMjQ4IDE4MS44NzkwNywxMi4xMDU0MjY0IEMxODkuNDIwMTU1LDE3Ljc2MTI0MDMgMjAxLjQyNjM1NywyOS43Njc0NDE5IDIwNS42OTMwMjMsMzguNDk5MjI0OCBDMjE3LjEwMzg3Niw2MS40MjAxNTUgMjE2LjIxMDg1Myw5OS44MjAxNTUgMjA4LjI3Mjg2OCwxMjcuODAxNTUgQzIwNy4xODEzOTUsMTMxLjU3MjA5MyAyMDUuNjkzMDIzLDEzNy4wMjk0NTcgMjAzLjUxMDA3OCwxNDEuNTkzNzk4IEMyMDIuMDIxNzA1LDE0NC43Njg5OTIgMTk3LjM1ODE0LDE1MS4wMjAxNTUgMTk3Ljg1NDI2NCwxNTMuNzk4NDUgQzE5OC40NDk2MTIsMTU2LjY3NTk2OSAyMDguNTcwNTQzLDE2NC4zMTYyNzkgMjEwLjc1MzQ4OCwxNjYuNCBDMjE0LjYyMzI1NiwxNzAuMTcwNTQzIDIyMi4wNjUxMTYsMTc1LjEzMTc4MyAyMjIuNjYwNDY1LDE3OS44OTQ1NzQgQzIyMy4zNTUwMzksMTg0Ljk1NTAzOSAyMjAuNDc3NTE5LDE5MS45MDA3NzUgMjE4Ljk4OTE0NywxOTYuNzYyNzkxIEMyMTQuMjI2MzU3LDIxMy4wMzU2NTkgMjA5LjQ2MzU2NiwyMjguMDE4NjA1IDIwNC4wMDYyMDIsMjQyLjYwNDY1MSBMMjA0LjAwNjIwMiwyNDIuNjA0NjUxIFoiIGZpbGw9IiMyMzFGMjAiLz4mI3hhOwkJPHBhdGggZD0iTTEyOC4wOTkyMjUsMTI5Ljg4NTI3MSBDMTI4LjY5NDU3NCwxMjkuMDkxNDczIDEzMi4wNjgyMTcsMTI3LjgwMTU1IDEzNi44MzEwMDgsMTMwLjA4MzcyMSBDMTM2LjgzMTAwOCwxMzAuMDgzNzIxIDEzMS4xNzUxOTQsMTMwLjk3Njc0NCAxMzEuNjcxMzE4LDE0MC40MDMxMDEgTDEyOS4yODk5MjIsMTM5LjkwNjk3NyBDMTI5LjM4OTE0NywxNDAuMDA2MjAyIDEyNi45MDg1MjcsMTMxLjQ3Mjg2OCAxMjguMDk5MjI1LDEyOS44ODUyNzEiIGZpbGw9IiNGN0U0Q0QiLz4mI3hhOwkJPHBhdGggZD0iTTE2OS4xNzgyOTUsMjEwLjQ1NTgxNCBDMTY5LjE3ODI5NSwyMTEuODQ0OTYxIDE2Ny45ODc1OTcsMjEzLjAzNTY1OSAxNjYuNTk4NDUsMjEzLjAzNTY1OSBDMTY1LjIwOTMwMiwyMTMuMDM1NjU5IDE2NC4wMTg2MDUsMjExLjg0NDk2MSAxNjQuMDE4NjA1LDIxMC40NTU4MTQgQzE2NC4wMTg2MDUsMjA5LjA2NjY2NyAxNjUuMjA5MzAyLDIwNy44NzU5NjkgMTY2LjU5ODQ1LDIwNy44NzU5NjkgQzE2OC4wODY4MjIsMjA3Ljg3NTk2OSAxNjkuMTc4Mjk1LDIwOS4wNjY2NjcgMTY5LjE3ODI5NSwyMTAuNDU1ODE0IiBmaWxsPSIjMUQxOTE5Ii8+JiN4YTsJCTxwYXRoIGQ9Ik0xNzEuNzU4MTQsMjIyLjQ2MjAxNiBDMTcxLjc1ODE0LDIyMy44NTExNjMgMTcwLjU2NzQ0MiwyMjUuMDQxODYgMTY5LjE3ODI5NSwyMjUuMDQxODYgQzE2Ny43ODkxNDcsMjI1LjA0MTg2IDE2Ni41OTg0NSwyMjMuODUxMTYzIDE2Ni41OTg0NSwyMjIuNDYyMDE2IEMxNjYuNTk4NDUsMjIxLjA3Mjg2OCAxNjcuNzg5MTQ3LDIxOS44ODIxNzEgMTY5LjE3ODI5NSwyMTkuODgyMTcxIEMxNzAuNjY2NjY3LDIxOS44ODIxNzEgMTcxLjc1ODE0LDIyMC45NzM2NDMgMTcxLjc1ODE0LDIyMi40NjIwMTYiIGZpbGw9IiMxRDE5MTkiLz4mI3hhOwkJPGcgdHJhbnNmb3JtPSJ0cmFuc2xhdGUoMC45OTIyNDgsIDM2Ny4xMzE3ODMpIiBmaWxsPSIjMjMxRjIwIj4mI3hhOwkJCTxwYXRoIGQ9Ik0zNS42MjE3MDU0LDcuMTQ0MTg2MDUgQzM0LjgyNzkwNyw3LjI0MzQxMDg1IDM0LjEzMzMzMzMsNy4zNDI2MzU2NiAzMy41Mzc5ODQ1LDcuNDQxODYwNDcgQzMyLjk0MjYzNTcsNy41NDEwODUyNyAzMi4zNDcyODY4LDcuNjQwMzEwMDggMzEuNTUzNDg4NCw3LjgzODc1OTY5IEMzMC42NjA0NjUxLDguMDM3MjA5MyAzMC4xNjQzNDExLDguNDM0MTA4NTMgMjkuOTY1ODkxNSw5LjAyOTQ1NzM2IEMyOS43Njc0NDE5LDkuNjI0ODA2MiAyOS41Njg5OTIyLDEwLjIyMDE1NSAyOS41Njg5OTIyLDExLjAxMzk1MzUgTDI5LjU2ODk5MjIsMzUuMjI0ODA2MiBDMjkuNTY4OTkyMiwzNy40MDc3NTE5IDI5LjA3Mjg2ODIsMzkuNDkxNDcyOSAyOC4xNzk4NDUsNDEuMzc2NzQ0MiBDMjcuMjg2ODIxNyw0My4yNjIwMTU1IDI2LjA5NjEyNCw0NC43NTAzODc2IDI0LjUwODUyNzEsNDYuMDQwMzEwMSBDMjIuOTIwOTMwMiw0Ny4yMzEwMDc4IDIxLjEzNDg4MzcsNDguMjIzMjU1OCAxOS4xNTAzODc2LDQ4LjgxODYwNDcgQzE3LjE2NTg5MTUsNDkuNDEzOTUzNSAxNS4wODIxNzA1LDQ5LjgxMDg1MjcgMTIuODk5MjI0OCw0OS44MTA4NTI3IEM5LjAyOTQ1NzM2LDQ5LjgxMDg1MjcgNS45NTM0ODgzNyw0OC45MTc4Mjk1IDMuNTcyMDkzMDIsNDcuMDMyNTU4MSBDMS4xOTA2OTc2Nyw0NS4xNDcyODY4IDAsNDIuNjY2NjY2NyAwLDM5LjM5MjI0ODEgQzAsMzcuNTA2OTc2NyAwLjQ5NjEyNDAzMSwzNS45MTkzNzk4IDEuNTg3NTk2OSwzNC42Mjk0NTc0IEMyLjY3OTA2OTc3LDMzLjMzOTUzNDkgNC4xNjc0NDE4NiwzMi43NDQxODYgNi4wNTI3MTMxOCwzMi43NDQxODYgQzcuODM4NzU5NjksMzIuNzQ0MTg2IDkuMjI3OTA2OTgsMzMuMjQwMzEwMSAxMC4zMTkzNzk4LDM0LjMzMTc4MjkgQzExLjQxMDg1MjcsMzUuNDIzMjU1OCAxMS45MDY5NzY3LDM2LjcxMzE3ODMgMTEuOTA2OTc2NywzOC4yMDE1NTA0IEMxMS45MDY5NzY3LDM5LjQ5MTQ3MjkgMTEuNDEwODUyNyw0MC43ODEzOTUzIDEwLjUxNzgyOTUsNDEuODcyODY4MiBDOS42MjQ4MDYyLDQyLjk2NDM0MTEgOC41MzMzMzMzMyw0NC4wNTU4MTQgNy4zNDI2MzU2Niw0NC45NDg4MzcyIEw3LjM0MjYzNTY2LDQ1LjM0NTczNjQgQzcuNTQxMDg1MjcsNDUuNzQyNjM1NyA3LjkzNzk4NDUsNDYuMTM5NTM0OSA4LjUzMzMzMzMzLDQ2LjQzNzIwOTMgQzkuMTI4NjgyMTcsNDYuNzM0ODgzNyA5LjgyMzI1NTgxLDQ2LjgzNDEwODUgMTAuNDE4NjA0Nyw0Ni44MzQxMDg1IEMxMi44OTkyMjQ4LDQ2LjgzNDEwODUgMTQuODgzNzIwOSw0NS45NDEwODUzIDE2LjI3Mjg2ODIsNDQuMTU1MDM4OCBDMTcuNjYyMDE1NSw0Mi4zNjg5OTIyIDE4LjM1NjU4OTEsMzkuNjg5OTIyNSAxOC4zNTY1ODkxLDM2LjExNzgyOTUgTDE4LjM1NjU4OTEsMTEuMzExNjI3OSBDMTguMzU2NTg5MSwxMC42MTcwNTQzIDE4LjI1NzM2NDMsOS45MjI0ODA2MiAxOC4wNTg5MTQ3LDkuNDI2MzU2NTkgQzE3Ljg2MDQ2NTEsOC45MzAyMzI1NiAxNy4yNjUxMTYzLDguNTMzMzMzMzMgMTYuMzcyMDkzLDguMTM2NDM0MTEgQzE1Ljc3Njc0NDIsNy44Mzg3NTk2OSAxNC45ODI5NDU3LDcuNjQwMzEwMDggMTQuMDg5OTIyNSw3LjQ0MTg2MDQ3IEMxMy4xOTY4OTkyLDcuMjQzNDEwODUgMTIuNTAyMzI1Niw3LjE0NDE4NjA1IDExLjkwNjk3NjcsNy4wNDQ5NjEyNCBMMTEuOTA2OTc2Nyw0LjY2MzU2NTg5IEwzNS4zMjQwMzEsNC42NjM1NjU4OSBMMzUuMzI0MDMxLDcuMTQ0MTg2MDUgTDM1LjYyMTcwNTQsNy4xNDQxODYwNSBaIi8+JiN4YTsJCQk8cGF0aCBkPSJNNzIuMzM0ODgzNyw0MS4yNzc1MTk0IEM3MS42NDAzMTAxLDQyLjQ2ODIxNzEgNzAuNzQ3Mjg2OCw0My41NTk2ODk5IDY5Ljc1NTAzODgsNDQuNjUxMTYyOCBDNjguNzYyNzkwNyw0NS43NDI2MzU3IDY3LjU3MjA5Myw0Ni41MzY0MzQxIDY2LjI4MjE3MDUsNDcuMzMwMjMyNiBDNjQuODkzMDIzMyw0OC4xMjQwMzEgNjMuNTAzODc2LDQ4LjcxOTM3OTggNjIuMTE0NzI4Nyw0OS4xMTYyNzkxIEM2MC43MjU1ODE0LDQ5LjUxMzE3ODMgNTkuMDM4NzU5Nyw0OS43MTE2Mjc5IDU3LjI1MjcxMzIsNDkuNzExNjI3OSBDNTQuMTc2NzQ0Miw0OS43MTE2Mjc5IDUxLjU5Njg5OTIsNDkuMzE0NzI4NyA0OS4zMTQ3Mjg3LDQ4LjQyMTcwNTQgQzQ3LjEzMTc4MjksNDcuNTI4NjgyMiA0NS4yNDY1MTE2LDQ2LjQzNzIwOTMgNDMuODU3MzY0Myw0NC45NDg4MzcyIEM0Mi4zNjg5OTIyLDQzLjQ2MDQ2NTEgNDEuMzc2NzQ0Miw0MS43NzM2NDM0IDQwLjU4Mjk0NTcsMzkuNzg5MTQ3MyBDMzkuODg4MzcyMSwzNy44MDQ2NTEyIDM5LjQ5MTQ3MjksMzUuNjIxNzA1NCAzOS40OTE0NzI5LDMzLjMzOTUzNDkgQzM5LjQ5MTQ3MjksMzEuMjU1ODE0IDM5Ljg4ODM3MjEsMjkuMTcyMDkzIDQwLjY4MjE3MDUsMjcuMjg2ODIxNyBDNDEuNDc1OTY5LDI1LjQwMTU1MDQgNDIuNTY3NDQxOSwyMy42MTU1MDM5IDQzLjk1NjU4OTEsMjIuMTI3MTMxOCBDNDUuMzQ1NzM2NCwyMC42Mzg3NTk3IDQ3LjEzMTc4MjksMTkuNDQ4MDYyIDQ5LjMxNDcyODcsMTguNTU1MDM4OCBDNTEuNDk3Njc0NCwxNy42NjIwMTU1IDUzLjg3OTA2OTgsMTcuMTY1ODkxNSA1Ni40NTg5MTQ3LDE3LjE2NTg5MTUgQzU5LjMzNjQzNDEsMTcuMTY1ODkxNSA2MS43MTc4Mjk1LDE3LjU2Mjc5MDcgNjMuNjAzMTAwOCwxOC4yNTczNjQzIEM2NS40ODgzNzIxLDE4Ljk1MTkzOCA2Ni45NzY3NDQyLDE5Ljk0NDE4NiA2OC4xNjc0NDE5LDIxLjEzNDg4MzcgQzY5LjM1ODEzOTUsMjIuMzI1NTgxNCA3MC4xNTE5MzgsMjMuNzE0NzI4NyA3MC43NDcyODY4LDI1LjMwMjMyNTYgQzcxLjI0MzQxMDksMjYuODg5OTIyNSA3MS41NDEwODUzLDI4LjU3Njc0NDIgNzEuNTQxMDg1MywzMC4zNjI3OTA3IEw3MS41NDEwODUzLDMyLjM0NzI4NjggTDUwLjYwNDY1MTIsMzIuMzQ3Mjg2OCBDNTAuNjA0NjUxMiwzNi42MTM5NTM1IDUxLjM5ODQ0OTYsMzkuNzg5MTQ3MyA1My4wODUyNzEzLDQxLjk3MjA5MyBDNTQuNjcyODY4Miw0NC4xNTUwMzg4IDU3LjM1MTkzOCw0NS4yNDY1MTE2IDYwLjgyNDgwNjIsNDUuMjQ2NTExNiBDNjIuODA5MzAyMyw0NS4yNDY1MTE2IDY0LjQ5NjEyNCw0NC43NTAzODc2IDY2LjA4MzcyMDksNDMuNjU4OTE0NyBDNjcuNjcxMzE3OCw0Mi41Njc0NDE5IDY4Ljk2MTI0MDMsNDEuMjc3NTE5NCA3MC4wNTI3MTMyLDM5LjU5MDY5NzcgTDcyLjMzNDg4MzcsNDEuMjc3NTE5NCBMNzIuMzM0ODgzNyw0MS4yNzc1MTk0IFogTTYwLjUyNzEzMTgsMjkuNDY5NzY3NCBDNjAuNTI3MTMxOCwyOC4yNzkwNjk4IDYwLjQyNzkwNywyNi45ODkxNDczIDYwLjMyODY4MjIsMjUuNjk5MjI0OCBDNjAuMjI5NDU3NCwyNC40MDkzMDIzIDYwLjAzMTAwNzgsMjMuMzE3ODI5NSA1OS42MzQxMDg1LDIyLjUyNDAzMSBDNTkuMjM3MjA5MywyMS41MzE3ODI5IDU4Ljg0MDMxMDEsMjAuODM3MjA5MyA1OC4xNDU3MzY0LDIwLjM0MTA4NTMgQzU3LjU1MDM4NzYsMTkuODQ0OTYxMiA1Ni43NTY1ODkxLDE5LjY0NjUxMTYgNTUuODYzNTY1OSwxOS42NDY1MTE2IEM1NC4yNzU5NjksMTkuNjQ2NTExNiA1Mi45ODYwNDY1LDIwLjQ0MDMxMDEgNTIuMDkzMDIzMywyMi4wMjc5MDcgQzUxLjEwMDc3NTIsMjMuNjE1NTAzOSA1MC42MDQ2NTEyLDI2LjE5NTM0ODggNTAuNTA1NDI2NCwyOS42NjgyMTcxIEw2MC41MjcxMzE4LDI5LjQ2OTc2NzQgTDYwLjUyNzEzMTgsMjkuNDY5NzY3NCBaIi8+JiN4YTsJCQk8cGF0aCBkPSJNMTE2LjA5MzAyMyw0OC42MjAxNTUgTDk3LjQzODc1OTcsNDguNjIwMTU1IEw5Ny40Mzg3NTk3LDQ2LjMzNzk4NDUgQzk3LjgzNTY1ODksNDYuMzM3OTg0NSA5OC4zMzE3ODI5LDQ2LjIzODc1OTcgOTguODI3OTA3LDQ2LjEzOTUzNDkgQzk5LjQyMzI1NTgsNDYuMDQwMzEwMSA5OS44MjAxNTUsNDUuOTQxMDg1MyAxMDAuMTE3ODI5LDQ1Ljg0MTg2MDUgQzEwMC41MTQ3MjksNDUuNjQzNDEwOSAxMDAuODEyNDAzLDQ1LjI0NjUxMTYgMTAxLjAxMDg1Myw0NC44NDk2MTI0IEMxMDEuMjA5MzAyLDQ0LjQ1MjcxMzIgMTAxLjMwODUyNyw0My43NTgxMzk1IDEwMS4zMDg1MjcsNDIuOTY0MzQxMSBMMTAxLjMwODUyNywyOC40Nzc1MTk0IEMxMDEuMzA4NTI3LDI2LjM5Mzc5ODQgMTAwLjkxMTYyOCwyNC44MDYyMDE2IDEwMC4xMTc4MjksMjMuNzE0NzI4NyBDOTkuMzI0MDMxLDIyLjYyMzI1NTggOTguMjMyNTU4MSwyMi4xMjcxMzE4IDk2LjY0NDk2MTIsMjIuMTI3MTMxOCBDOTUuODUxMTYyOCwyMi4xMjcxMzE4IDk1LjA1NzM2NDMsMjIuMjI2MzU2NiA5NC4zNjI3OTA3LDIyLjUyNDAzMSBDOTMuNjY4MjE3MSwyMi43MjI0ODA2IDkyLjk3MzY0MzQsMjMuMTE5Mzc5OCA5Mi4yNzkwNjk4LDIzLjYxNTUwMzkgQzkxLjY4MzcyMDksMjQuMDEyNDAzMSA5MS4xODc1OTY5LDI0LjQwOTMwMjMgOTAuNzkwNjk3NywyNC45MDU0MjY0IEM5MC4zOTM3OTg0LDI1LjMwMjMyNTYgOTAuMDk2MTI0LDI1LjY5OTIyNDggODkuODk3Njc0NCwyNi4wOTYxMjQgTDg5Ljg5NzY3NDQsNDIuNjY2NjY2NyBDODkuODk3Njc0NCw0My4zNjEyNDAzIDg5Ljk5Njg5OTIsNDMuOTU2NTg5MSA5MC4xOTUzNDg4LDQ0LjQ1MjcxMzIgQzkwLjM5Mzc5ODQsNDQuOTQ4ODM3MiA5MC43OTA2OTc3LDQ1LjM0NTczNjQgOTEuMTg3NTk2OSw0NS41NDQxODYgQzkxLjQ4NTI3MTMsNDUuNzQyNjM1NyA5MS44ODIxNzA1LDQ1Ljk0MTA4NTMgOTIuMzc4Mjk0Niw0Ni4wNDAzMTAxIEM5Mi44NzQ0MTg2LDQ2LjEzOTUzNDkgOTMuMzcwNTQyNiw0Ni4yMzg3NTk3IDkzLjg2NjY2NjcsNDYuMzM3OTg0NSBMOTMuODY2NjY2Nyw0OC42MjAxNTUgTDc1LjAxMzk1MzUsNDguNjIwMTU1IEw3NS4wMTM5NTM1LDQ2LjMzNzk4NDUgQzc1LjUxMDA3NzUsNDYuMzM3OTg0NSA3Ni4wMDYyMDE2LDQ2LjIzODc1OTcgNzYuNjAxNTUwNCw0Ni4xMzk1MzQ5IEM3Ny4wOTc2NzQ0LDQ2LjA0MDMxMDEgNzcuNTkzNzk4NCw0NS45NDEwODUzIDc3Ljk5MDY5NzcsNDUuODQxODYwNSBDNzguNjg1MjcxMyw0NS42NDM0MTA5IDc5LjA4MjE3MDUsNDUuMjQ2NTExNiA3OS4zNzk4NDUsNDQuNzUwMzg3NiBDNzkuNTc4Mjk0Niw0NC4yNTQyNjM2IDc5Ljc3Njc0NDIsNDMuNjU4OTE0NyA3OS43NzY3NDQyLDQyLjg2NTExNjMgTDc5Ljc3Njc0NDIsMjQuODA2MjAxNiBDNzkuNzc2NzQ0MiwyNC4yMTA4NTI3IDc5LjU3ODI5NDYsMjMuNTE2Mjc5MSA3OS4yODA2MjAyLDIyLjkyMDkzMDIgQzc4Ljk4Mjk0NTcsMjIuMzI1NTgxNCA3OC40ODY4MjE3LDIxLjgyOTQ1NzQgNzcuOTkwNjk3NywyMS40MzI1NTgxIEM3Ny41OTM3OTg0LDIxLjIzNDEwODUgNzcuMTk2ODk5MiwyMC45MzY0MzQxIDc2LjYwMTU1MDQsMjAuODM3MjA5MyBDNzYuMDA2MjAxNiwyMC42Mzg3NTk3IDc1LjQxMDg1MjcsMjAuNTM5NTM0OSA3NC43MTYyNzkxLDIwLjUzOTUzNDkgTDc0LjcxNjI3OTEsMTguMjU3MzY0MyBMODkuNTAwNzc1MiwxNy40NjM1NjU5IEw4OS45OTY4OTkyLDE3Ljk1OTY4OTkgTDg5Ljk5Njg5OTIsMjIuNDI0ODA2MiBMOTAuMDk2MTI0LDIyLjQyNDgwNjIgQzkwLjY5MTQ3MjksMjEuOTI4NjgyMiA5MS4zODYwNDY1LDIxLjMzMzMzMzMgOTIuMTc5ODQ1LDIwLjUzOTUzNDkgQzkyLjk3MzY0MzQsMTkuODQ0OTYxMiA5My43Njc0NDE5LDE5LjI0OTYxMjQgOTQuNDYyMDE1NSwxOC43NTM0ODg0IEM5NS4yNTU4MTQsMTguMjU3MzY0MyA5Ni4yNDgwNjIsMTcuODYwNDY1MSA5Ny40Mzg3NTk3LDE3LjQ2MzU2NTkgQzk4LjYyOTQ1NzQsMTcuMDY2NjY2NyAxMDAuMDE4NjA1LDE2Ljk2NzQ0MTkgMTAxLjQwNzc1MiwxNi45Njc0NDE5IEMxMDQuNzgxMzk1LDE2Ljk2NzQ0MTkgMTA3LjI2MjAxNiwxNy45NTk2ODk5IDEwOC45NDg4MzcsMTkuODQ0OTYxMiBDMTEwLjYzNTY1OSwyMS43MzAyMzI2IDExMS40Mjk0NTcsMjQuMzEwMDc3NSAxMTEuNDI5NDU3LDI3LjQ4NTI3MTMgTDExMS40Mjk0NTcsNDIuNjY2NjY2NyBDMTExLjQyOTQ1Nyw0My40NjA0NjUxIDExMS41Mjg2ODIsNDQuMDU1ODE0IDExMS43MjcxMzIsNDQuNDUyNzEzMiBDMTExLjkyNTU4MSw0NC45NDg4MzcyIDExMi40MjE3MDUsNDUuMjQ2NTExNiAxMTMuMDE3MDU0LDQ1LjU0NDE4NiBDMTEzLjMxNDcyOSw0NS42NDM0MTA5IDExMy43MTE2MjgsNDUuODQxODYwNSAxMTQuMjA3NzUyLDQ1Ljk0MTA4NTMgQzExNC43MDM4NzYsNDYuMDQwMzEwMSAxMTUuMiw0Ni4xMzk1MzQ5IDExNS44OTQ1NzQsNDYuMjM4NzU5NyBMMTE1Ljg5NDU3NCw0OC42MjAxNTUgTDExNi4wOTMwMjMsNDguNjIwMTU1IFoiLz4mI3hhOwkJCTxwYXRoIGQ9Ik0xNTguNzU5NjksNDguNjIwMTU1IEwxNDQuMTczNjQzLDQ4LjYyMDE1NSBDMTQyLjM4NzU5Nyw0NS40NDQ5NjEyIDE0MC43MDA3NzUsNDIuNzY1ODkxNSAxMzkuMjEyNDAzLDQwLjU4Mjk0NTcgQzEzNy43MjQwMzEsMzguNCAxMzYuMzM0ODg0LDM2LjMxNjI3OTEgMTM1LjA0NDk2MSwzNC41MzAyMzI2IEwxMzMuMjU4OTE1LDM2LjExNzgyOTUgTDEzMy4yNTg5MTUsNDIuODY1MTE2MyBDMTMzLjI1ODkxNSw0My41NTk2ODk5IDEzMy4zNTgxNCw0NC4yNTQyNjM2IDEzMy41NTY1ODksNDQuNjUxMTYyOCBDMTMzLjc1NTAzOSw0NS4xNDcyODY4IDEzNC4xNTE5MzgsNDUuNDQ0OTYxMiAxMzQuODQ2NTEyLDQ1Ljc0MjYzNTcgQzEzNS4yNDM0MTEsNDUuOTQxMDg1MyAxMzUuNjQwMzEsNDYuMDQwMzEwMSAxMzYuMTM2NDM0LDQ2LjEzOTUzNDkgQzEzNi42MzI1NTgsNDYuMjM4NzU5NyAxMzcuMTI4NjgyLDQ2LjMzNzk4NDUgMTM3LjYyNDgwNiw0Ni4zMzc5ODQ1IEwxMzcuNjI0ODA2LDQ4LjYyMDE1NSBMMTE4LjM3NTE5NCw0OC42MjAxNTUgTDExOC4zNzUxOTQsNDYuMzM3OTg0NSBDMTE4Ljg3MTMxOCw0Ni4zMzc5ODQ1IDExOS4zNjc0NDIsNDYuMjM4NzU5NyAxMTkuOTYyNzkxLDQ2LjEzOTUzNDkgQzEyMC40NTg5MTUsNDYuMDQwMzEwMSAxMjAuOTU1MDM5LDQ1Ljk0MTA4NTMgMTIxLjM1MTkzOCw0NS44NDE4NjA1IEMxMjIuMDQ2NTEyLDQ1LjY0MzQxMDkgMTIyLjQ0MzQxMSw0NS4yNDY1MTE2IDEyMi43NDEwODUsNDQuNzUwMzg3NiBDMTIyLjkzOTUzNSw0NC4yNTQyNjM2IDEyMy4xMzc5ODQsNDMuNjU4OTE0NyAxMjMuMTM3OTg0LDQyLjg2NTExNjMgTDEyMy4xMzc5ODQsOC4zMzQ4ODM3MiBDMTIzLjEzNzk4NCw3LjY0MDMxMDA4IDEyMi45Mzk1MzUsNi45NDU3MzY0MyAxMjIuNjQxODYsNi4yNTExNjI3OSBDMTIyLjM0NDE4Niw1LjU1NjU4OTE1IDEyMS45NDcyODcsNC45NjEyNDAzMSAxMjEuMzUxOTM4LDQuNTY0MzQxMDkgQzEyMC45NTUwMzksNC4zNjU4OTE0NyAxMjAuMzU5NjksNC4wNjgyMTcwNSAxMTkuNTY1ODkxLDMuOTY4OTkyMjUgQzExOC43NzIwOTMsMy43NzA1NDI2NCAxMTguMDc3NTE5LDMuNjcxMzE3ODMgMTE3LjM4Mjk0NiwzLjY3MTMxNzgzIEwxMTcuMzgyOTQ2LDEuMzg5MTQ3MjkgTDEzMi43NjI3OTEsMC41OTUzNDg4MzcgTDEzMy4yNTg5MTUsMS4wOTE0NzI4NyBMMTMzLjI1ODkxNSwzMy4wNDE4NjA1IEMxMzQuNzQ3Mjg3LDMxLjY1MjcxMzIgMTM2LjUzMzMzMywzMC4wNjUxMTYzIDEzOC40MTg2MDUsMjguMjc5MDY5OCBDMTQwLjMwMzg3NiwyNi40OTMwMjMzIDE0MS44OTE0NzMsMjUuMDA0NjUxMiAxNDIuOTgyOTQ2LDIzLjgxMzk1MzUgQzE0My42Nzc1MTksMjMuMTE5Mzc5OCAxNDQuMDc0NDE5LDIyLjYyMzI1NTggMTQ0LjA3NDQxOSwyMi4yMjYzNTY2IEMxNDQuMTczNjQzLDIxLjgyOTQ1NzQgMTQ0LjE3MzY0MywyMS42MzEwMDc4IDE0NC4xNzM2NDMsMjEuNTMxNzgyOSBDMTQ0LjE3MzY0MywyMS4xMzQ4ODM3IDE0My44NzU5NjksMjAuODM3MjA5MyAxNDMuMTgxMzk1LDIwLjYzODc1OTcgQzE0Mi40ODY4MjIsMjAuNDQwMzEwMSAxNDEuNTkzNzk4LDIwLjE0MjYzNTcgMTQwLjIwNDY1MSwxOS45NDQxODYgTDE0MC4yMDQ2NTEsMTcuNzYxMjQwMyBMMTU1Ljg4MjE3MSwxNy43NjEyNDAzIEwxNTUuODgyMTcxLDE5Ljk0NDE4NiBDMTUzLjc5ODQ1LDIwLjUzOTUzNDkgMTUyLjIxMDg1MywyMS4wMzU2NTg5IDE1MS4xMTkzOCwyMS41MzE3ODI5IEMxNTAuMDI3OTA3LDIyLjAyNzkwNyAxNDguODM3MjA5LDIyLjcyMjQ4MDYgMTQ3LjU0NzI4NywyMy41MTYyNzkxIEMxNDYuNjU0MjY0LDI0LjExMTYyNzkgMTQ1Ljg2MDQ2NSwyNC43MDY5NzY3IDE0NS4wNjY2NjcsMjUuMzAyMzI1NiBDMTQ0LjI3Mjg2OCwyNS44OTc2NzQ0IDE0My4zNzk4NDUsMjYuNjkxNDcyOSAxNDIuMjg4MzcyLDI3LjU4NDQ5NjEgQzE0NC4yNzI4NjgsMzAuNTYxMjQwMyAxNDYuMTU4MTQsMzMuMjQwMzEwMSAxNDcuODQ0OTYxLDM1LjcyMDkzMDIgQzE0OS41MzE3ODMsMzguMjAxNTUwNCAxNTEuMzE3ODI5LDQwLjg4MDYyMDIgMTUzLjIwMzEwMSw0My42NTg5MTQ3IEMxNTMuNzk4NDUsNDQuNjUxMTYyOCAxNTQuNTkyMjQ4LDQ1LjI0NjUxMTYgMTU1LjU4NDQ5Niw0NS42NDM0MTA5IEMxNTYuNTc2NzQ0LDQ1Ljk0MTA4NTMgMTU3LjQ2OTc2Nyw0Ni4xMzk1MzQ5IDE1OC40NjIwMTYsNDYuMjM4NzU5NyBMMTU4LjQ2MjAxNiw0OC42MjAxNTUgTDE1OC43NTk2OSw0OC42MjAxNTUgWiIvPiYjeGE7CQkJPHBhdGggZD0iTTE3OC42MDQ2NTEsNDguNjIwMTU1IEwxNTkuMDU3MzY0LDQ4LjYyMDE1NSBMMTU5LjA1NzM2NCw0Ni4zMzc5ODQ1IEMxNTkuNTUzNDg4LDQ2LjMzNzk4NDUgMTYwLjE0ODgzNyw0Ni4yMzg3NTk3IDE2MC42NDQ5NjEsNDYuMTM5NTM0OSBDMTYxLjE0MTA4NSw0Ni4wNDAzMTAxIDE2MS42MzcyMDksNDUuOTQxMDg1MyAxNjEuOTM0ODg0LDQ1Ljg0MTg2MDUgQzE2Mi42Mjk0NTcsNDUuNjQzNDEwOSAxNjMuMDI2MzU3LDQ1LjI0NjUxMTYgMTYzLjMyNDAzMSw0NC43NTAzODc2IEMxNjMuNjIxNzA1LDQ0LjI1NDI2MzYgMTYzLjcyMDkzLDQzLjY1ODkxNDcgMTYzLjcyMDkzLDQyLjg2NTExNjMgTDE2My43MjA5MywyNC44MDYyMDE2IEMxNjMuNzIwOTMsMjQuMTExNjI3OSAxNjMuNTIyNDgxLDIzLjQxNzA1NDMgMTYzLjIyNDgwNiwyMi45MjA5MzAyIEMxNjIuOTI3MTMyLDIyLjMyNTU4MTQgMTYyLjUzMDIzMywyMS45Mjg2ODIyIDE2Mi4wMzQxMDksMjEuNjMxMDA3OCBDMTYxLjYzNzIwOSwyMS40MzI1NTgxIDE2MS4xNDEwODUsMjEuMTM0ODgzNyAxNjAuMzQ3Mjg3LDIwLjkzNjQzNDEgQzE1OS41NTM0ODgsMjAuNzM3OTg0NSAxNTguODU4OTE1LDIwLjUzOTUzNDkgMTU4LjI2MzU2NiwyMC41Mzk1MzQ5IEwxNTguMjYzNTY2LDE4LjI1NzM2NDMgTDE3My40NDQ5NjEsMTcuNDYzNTY1OSBMMTczLjk0MTA4NSwxNy45NTk2ODk5IEwxNzMuOTQxMDg1LDQyLjU2NzQ0MTkgQzE3My45NDEwODUsNDMuMjYyMDE1NSAxNzQuMTM5NTM1LDQzLjg1NzM2NDMgMTc0LjQzNzIwOSw0NC40NTI3MTMyIEMxNzQuNzM0ODg0LDQ0Ljk0ODgzNzIgMTc1LjIzMTAwOCw0NS4zNDU3MzY0IDE3NS43MjcxMzIsNDUuNTQ0MTg2IEMxNzYuMTI0MDMxLDQ1Ljc0MjYzNTcgMTc2LjYyMDE1NSw0NS45NDEwODUzIDE3Ny4xMTYyNzksNDYuMDQwMzEwMSBDMTc3LjYxMjQwMyw0Ni4xMzk1MzQ5IDE3OC4xMDg1MjcsNDYuMjM4NzU5NyAxNzguNzAzODc2LDQ2LjMzNzk4NDUgTDE3OC43MDM4NzYsNDguNjIwMTU1IEwxNzguNjA0NjUxLDQ4LjYyMDE1NSBaIE0xNzQuMTM5NTM1LDYuNDQ5NjEyNCBDMTc0LjEzOTUzNSw4LjAzNzIwOTMgMTczLjU0NDE4Niw5LjMyNzEzMTc4IDE3Mi4zNTM0ODgsMTAuNDE4NjA0NyBDMTcxLjE2Mjc5MSwxMS41MTAwNzc1IDE2OS42NzQ0MTksMTIuMTA1NDI2NCAxNjguMDg2ODIyLDEyLjEwNTQyNjQgQzE2Ni40LDEyLjEwNTQyNjQgMTY1LjAxMDg1MywxMS41MTAwNzc1IDE2My43MjA5MywxMC40MTg2MDQ3IEMxNjIuNTMwMjMzLDkuMzI3MTMxNzggMTYxLjkzNDg4NCw3LjkzNzk4NDUgMTYxLjkzNDg4NCw2LjQ0OTYxMjQgQzE2MS45MzQ4ODQsNC44NjIwMTU1IDE2Mi41MzAyMzMsMy41NzIwOTMwMiAxNjMuNzIwOTMsMi4zODEzOTUzNSBDMTY0LjkxMTYyOCwxLjI4OTkyMjQ4IDE2Ni40LDAuNjk0NTczNjQzIDE2OC4wODY4MjIsMC42OTQ1NzM2NDMgQzE2OS43NzM2NDMsMC42OTQ1NzM2NDMgMTcxLjE2Mjc5MSwxLjI4OTkyMjQ4IDE3Mi4zNTM0ODgsMi4zODEzOTUzNSBDMTczLjU0NDE4NiwzLjQ3Mjg2ODIyIDE3NC4xMzk1MzUsNC44NjIwMTU1IDE3NC4xMzk1MzUsNi40NDk2MTI0IEwxNzQuMTM5NTM1LDYuNDQ5NjEyNCBaIi8+JiN4YTsJCQk8cGF0aCBkPSJNMjIyLjM2Mjc5MSw0OC42MjAxNTUgTDIwMy43MDg1MjcsNDguNjIwMTU1IEwyMDMuNzA4NTI3LDQ2LjMzNzk4NDUgQzIwNC4xMDU0MjYsNDYuMzM3OTg0NSAyMDQuNjAxNTUsNDYuMjM4NzU5NyAyMDUuMDk3Njc0LDQ2LjEzOTUzNDkgQzIwNS42OTMwMjMsNDYuMDQwMzEwMSAyMDYuMDg5OTIyLDQ1Ljk0MTA4NTMgMjA2LjM4NzU5Nyw0NS44NDE4NjA1IEMyMDYuNzg0NDk2LDQ1LjY0MzQxMDkgMjA3LjA4MjE3MSw0NS4yNDY1MTE2IDIwNy4yODA2Miw0NC44NDk2MTI0IEMyMDcuNDc5MDcsNDQuNDUyNzEzMiAyMDcuNTc4Mjk1LDQzLjc1ODEzOTUgMjA3LjU3ODI5NSw0Mi45NjQzNDExIEwyMDcuNTc4Mjk1LDI4LjQ3NzUxOTQgQzIwNy41NzgyOTUsMjYuMzkzNzk4NCAyMDcuMTgxMzk1LDI0LjgwNjIwMTYgMjA2LjM4NzU5NywyMy43MTQ3Mjg3IEMyMDUuNTkzNzk4LDIyLjYyMzI1NTggMjA0LjUwMjMyNiwyMi4xMjcxMzE4IDIwMi45MTQ3MjksMjIuMTI3MTMxOCBDMjAyLjEyMDkzLDIyLjEyNzEzMTggMjAxLjMyNzEzMiwyMi4yMjYzNTY2IDIwMC42MzI1NTgsMjIuNTI0MDMxIEMxOTkuOTM3OTg0LDIyLjgyMTcwNTQgMTk5LjI0MzQxMSwyMy4xMTkzNzk4IDE5OC41NDg4MzcsMjMuNjE1NTAzOSBDMTk3Ljk1MzQ4OCwyNC4wMTI0MDMxIDE5Ny40NTczNjQsMjQuNDA5MzAyMyAxOTcuMDYwNDY1LDI0LjkwNTQyNjQgQzE5Ni42NjM1NjYsMjUuMzAyMzI1NiAxOTYuMzY1ODkxLDI1LjY5OTIyNDggMTk2LjE2NzQ0MiwyNi4wOTYxMjQgTDE5Ni4xNjc0NDIsNDIuNjY2NjY2NyBDMTk2LjE2NzQ0Miw0My4zNjEyNDAzIDE5Ni4yNjY2NjcsNDMuOTU2NTg5MSAxOTYuNDY1MTE2LDQ0LjQ1MjcxMzIgQzE5Ni42NjM1NjYsNDQuOTQ4ODM3MiAxOTcuMDYwNDY1LDQ1LjM0NTczNjQgMTk3LjQ1NzM2NCw0NS41NDQxODYgQzE5Ny43NTUwMzksNDUuNzQyNjM1NyAxOTguMTUxOTM4LDQ1Ljk0MTA4NTMgMTk4LjY0ODA2Miw0Ni4wNDAzMTAxIEMxOTkuMTQ0MTg2LDQ2LjEzOTUzNDkgMTk5LjY0MDMxLDQ2LjIzODc1OTcgMjAwLjEzNjQzNCw0Ni4zMzc5ODQ1IEwyMDAuMTM2NDM0LDQ4LjYyMDE1NSBMMTgxLjI4MzcyMSw0OC42MjAxNTUgTDE4MS4yODM3MjEsNDYuMzM3OTg0NSBDMTgxLjc3OTg0NSw0Ni4zMzc5ODQ1IDE4Mi4yNzU5NjksNDYuMjM4NzU5NyAxODIuODcxMzE4LDQ2LjEzOTUzNDkgQzE4My4zNjc0NDIsNDYuMDQwMzEwMSAxODMuODYzNTY2LDQ1Ljk0MTA4NTMgMTg0LjI2MDQ2NSw0NS44NDE4NjA1IEMxODQuOTU1MDM5LDQ1LjY0MzQxMDkgMTg1LjM1MTkzOCw0NS4yNDY1MTE2IDE4NS42NDk2MTIsNDQuNzUwMzg3NiBDMTg1Ljg0ODA2Miw0NC4yNTQyNjM2IDE4Ni4wNDY1MTIsNDMuNjU4OTE0NyAxODYuMDQ2NTEyLDQyLjg2NTExNjMgTDE4Ni4wNDY1MTIsMjQuODA2MjAxNiBDMTg2LjA0NjUxMiwyNC4yMTA4NTI3IDE4NS44NDgwNjIsMjMuNTE2Mjc5MSAxODUuNTUwMzg4LDIyLjkyMDkzMDIgQzE4NS4yNTI3MTMsMjIuMzI1NTgxNCAxODQuNzU2NTg5LDIxLjgyOTQ1NzQgMTg0LjI2MDQ2NSwyMS40MzI1NTgxIEMxODMuODYzNTY2LDIxLjIzNDEwODUgMTgzLjQ2NjY2NywyMC45MzY0MzQxIDE4Mi44NzEzMTgsMjAuODM3MjA5MyBDMTgyLjI3NTk2OSwyMC42Mzg3NTk3IDE4MS42ODA2MiwyMC41Mzk1MzQ5IDE4MC45ODYwNDcsMjAuNTM5NTM0OSBMMTgwLjk4NjA0NywxOC4yNTczNjQzIEwxOTUuNzcwNTQzLDE3LjQ2MzU2NTkgTDE5Ni4yNjY2NjcsMTcuOTU5Njg5OSBMMTk2LjI2NjY2NywyMi40MjQ4MDYyIEwxOTYuMzY1ODkxLDIyLjQyNDgwNjIgQzE5Ni45NjEyNCwyMS45Mjg2ODIyIDE5Ny42NTU4MTQsMjEuMzMzMzMzMyAxOTguNDQ5NjEyLDIwLjUzOTUzNDkgQzE5OS4yNDM0MTEsMTkuODQ0OTYxMiAyMDAuMDM3MjA5LDE5LjI0OTYxMjQgMjAwLjczMTc4MywxOC43NTM0ODg0IEMyMDEuNTI1NTgxLDE4LjI1NzM2NDMgMjAyLjUxNzgyOSwxNy44NjA0NjUxIDIwMy43MDg1MjcsMTcuNDYzNTY1OSBDMjA0Ljg5OTIyNSwxNy4wNjY2NjY3IDIwNi4yODgzNzIsMTYuOTY3NDQxOSAyMDcuNjc3NTE5LDE2Ljk2NzQ0MTkgQzIxMS4wNTExNjMsMTYuOTY3NDQxOSAyMTMuNTMxNzgzLDE3Ljk1OTY4OTkgMjE1LjIxODYwNSwxOS44NDQ5NjEyIEMyMTYuOTA1NDI2LDIxLjczMDIzMjYgMjE3LjY5OTIyNSwyNC4zMTAwNzc1IDIxNy42OTkyMjUsMjcuNDg1MjcxMyBMMjE3LjY5OTIyNSw0Mi42NjY2NjY3IEMyMTcuNjk5MjI1LDQzLjQ2MDQ2NTEgMjE3Ljc5ODQ1LDQ0LjA1NTgxNCAyMTcuOTk2ODk5LDQ0LjQ1MjcxMzIgQzIxOC4xOTUzNDksNDQuOTQ4ODM3MiAyMTguNjkxNDczLDQ1LjI0NjUxMTYgMjE5LjI4NjgyMiw0NS41NDQxODYgQzIxOS41ODQ0OTYsNDUuNjQzNDEwOSAyMTkuOTgxMzk1LDQ1Ljg0MTg2MDUgMjIwLjQ3NzUxOSw0NS45NDEwODUzIEMyMjAuOTczNjQzLDQ2LjA0MDMxMDEgMjIxLjQ2OTc2Nyw0Ni4xMzk1MzQ5IDIyMi4xNjQzNDEsNDYuMjM4NzU5NyBMMjIyLjE2NDM0MSw0OC42MjAxNTUgTDIyMi4zNjI3OTEsNDguNjIwMTU1IFoiLz4mI3hhOwkJCTxwYXRoIGQ9Ik0yMzkuNTI4NjgyLDQ5LjcxMTYyNzkgQzIzNy41NDQxODYsNDkuNzExNjI3OSAyMzUuNTU5NjksNDkuNDEzOTUzNSAyMzMuNjc0NDE5LDQ4LjgxODYwNDcgQzIzMS43ODkxNDcsNDguMjIzMjU1OCAyMzAuMzAwNzc1LDQ3LjYyNzkwNyAyMjkuMjA5MzAyLDQ2LjkzMzMzMzMgTDIyOC4zMTYyNzksNDkuMDE3MDU0MyBMMjI1LjkzNDg4NCw0OS4wMTcwNTQzIEwyMjUuNTM3OTg0LDM3LjUwNjk3NjcgTDIyNy44MjAxNTUsMzcuNTA2OTc2NyBDMjI4LjExNzgyOSwzOC40IDIyOC42MTM5NTMsMzkuNDkxNDcyOSAyMjkuNDA3NzUyLDQwLjY4MjE3MDUgQzIzMC4xMDIzMjYsNDEuODcyODY4MiAyMzAuOTk1MzQ5LDQyLjg2NTExNjMgMjMxLjg4ODM3Miw0My44NTczNjQzIEMyMzIuODgwNjIsNDQuNzUwMzg3NiAyMzMuOTcyMDkzLDQ1LjU0NDE4NiAyMzUuMjYyMDE2LDQ2LjIzODc1OTcgQzIzNi41NTE5MzgsNDYuODM0MTA4NSAyMzcuODQxODYsNDcuMjMxMDA3OCAyMzkuMjMxMDA4LDQ3LjIzMTAwNzggQzI0MS4xMTYyNzksNDcuMjMxMDA3OCAyNDIuNTA1NDI2LDQ2LjgzNDEwODUgMjQzLjM5ODQ1LDQ2LjEzOTUzNDkgQzI0NC4yOTE0NzMsNDUuNDQ0OTYxMiAyNDQuNzg3NTk3LDQ0LjI1NDI2MzYgMjQ0Ljc4NzU5Nyw0Mi43NjU4OTE1IEMyNDQuNzg3NTk3LDQxLjk3MjA5MyAyNDQuNTg5MTQ3LDQxLjI3NzUxOTQgMjQ0LjE5MjI0OCw0MC42ODIxNzA1IEMyNDMuNzk1MzQ5LDQwLjE4NjA0NjUgMjQzLjIsMzkuNjg5OTIyNSAyNDIuNTA1NDI2LDM5LjI5MzAyMzMgQzI0MS43MTE2MjgsMzguODk2MTI0IDI0MC44MTg2MDUsMzguNDk5MjI0OCAyMzkuODI2MzU3LDM4LjIwMTU1MDQgQzIzOC44MzQxMDksMzcuOTAzODc2IDIzNy42NDM0MTEsMzcuNjA2MjAxNiAyMzYuMjU0MjY0LDM3LjExMDA3NzUgQzIzNC44NjUxMTYsMzYuNzEzMTc4MyAyMzMuNjc0NDE5LDM2LjMxNjI3OTEgMjMyLjY4MjE3MSwzNS44MjAxNTUgQzIzMS42ODk5MjIsMzUuNDIzMjU1OCAyMzAuNTk4NDUsMzQuNzI4NjgyMiAyMjkuNjA2MjAyLDMzLjgzNTY1ODkgQzIyOC43MTMxNzgsMzMuMDQxODYwNSAyMjcuOTE5MzgsMzIuMDQ5NjEyNCAyMjcuNDIzMjU2LDMwLjk1ODEzOTUgQzIyNi44Mjc5MDcsMjkuODY2NjY2NyAyMjYuNjI5NDU3LDI4LjQ3NzUxOTQgMjI2LjYyOTQ1NywyNi44ODk5MjI1IEMyMjYuNjI5NDU3LDI0LjAxMjQwMzEgMjI3LjgyMDE1NSwyMS42MzEwMDc4IDIzMC4zMDA3NzUsMTkuODQ0OTYxMiBDMjMyLjc4MTM5NSwxOC4wNTg5MTQ3IDIzNS45NTY1ODksMTcuMTY1ODkxNSAyMzkuOTI1NTgxLDE3LjE2NTg5MTUgQzI0MS44MTA4NTMsMTcuMTY1ODkxNSAyNDMuNDk3Njc0LDE3LjM2NDM0MTEgMjQ1LjA4NTI3MSwxNy43NjEyNDAzIEMyNDYuNjcyODY4LDE4LjE1ODEzOTUgMjQ3Ljk2Mjc5MSwxOC41NTUwMzg4IDI0OS4wNTQyNjQsMTkuMDUxMTYyOCBMMjQ5Ljc0ODgzNywxNy4yNjUxMTYzIEwyNTIuMTMwMjMzLDE3LjI2NTExNjMgTDI1Mi42MjYzNTcsMjcuNzgyOTQ1NyBMMjUwLjQ0MzQxMSwyNy43ODI5NDU3IEMyNDkuNzQ4ODM3LDI1LjYgMjQ4LjQ1ODkxNSwyMy44MTM5NTM1IDI0Ni43NzIwOTMsMjIuMjI2MzU2NiBDMjQ0Ljk4NjA0NywyMC42Mzg3NTk3IDI0My4xMDA3NzUsMTkuODQ0OTYxMiAyNDEuMTE2Mjc5LDE5Ljg0NDk2MTIgQzIzOS41Mjg2ODIsMTkuODQ0OTYxMiAyMzguMjM4NzYsMjAuMTQyNjM1NyAyMzcuMzQ1NzM2LDIwLjgzNzIwOTMgQzIzNi40NTI3MTMsMjEuNTMxNzgyOSAyMzUuOTU2NTg5LDIyLjQyNDgwNjIgMjM1Ljk1NjU4OSwyMy42MTU1MDM5IEMyMzUuOTU2NTg5LDI1LjIwMzEwMDggMjM2LjY1MTE2MywyNi4yOTQ1NzM2IDIzNy45NDEwODUsMjYuOTg5MTQ3MyBDMjM5LjIzMTAwOCwyNy42ODM3MjA5IDI0MS4xMTYyNzksMjguMzc4Mjk0NiAyNDMuNDk3Njc0LDI4Ljk3MzY0MzQgQzI0Ny4xNjg5OTIsMjkuOTY1ODkxNSAyNDkuODQ4MDYyLDMxLjI1NTgxNCAyNTEuNjM0MTA5LDMyLjg0MzQxMDkgQzI1My4zMjA5MywzNC41MzAyMzI2IDI1NC4yMTM5NTMsMzYuNjEzOTUzNSAyNTQuMjEzOTUzLDM5LjA5NDU3MzYgQzI1NC4yMTM5NTMsNDIuNDY4MjE3MSAyNTIuOTI0MDMxLDQ1LjE0NzI4NjggMjUwLjI0NDk2MSw0Ni45MzMzMzMzIEMyNDcuMjY4MjE3LDQ4LjcxOTM3OTggMjQzLjc5NTM0OSw0OS43MTE2Mjc5IDIzOS41Mjg2ODIsNDkuNzExNjI3OSBMMjM5LjUyODY4Miw0OS43MTE2Mjc5IFoiLz4mI3hhOwkJPC9nPiYjeGE7CTwvZz4mI3hhOzwvc3ZnPg==;" vertex="1" parent="1">
          <mxGeometry x="330" y="67" width="70" height="114.03" as="geometry" />
        </mxCell>
      </root>
    </mxGraphModel>
  </diagram>
</mxfile>
